<?xml version="1.0" encoding="UTF-8"?><svg id="a" xmlns="http://www.w3.org/2000/svg" viewBox="0 0 800 800"><defs><style>.b{fill:#e9e8e8;}.c{fill:#9dd5c0;}.d{fill:#1d252e;}.e{fill:#fff;}.e,.f{stroke:#1d252e;stroke-linecap:round;stroke-linejoin:round;stroke-width:2px;}.f{fill:none;}</style></defs><path class="b" d="M685.7,420.79c.04,2.07-.01,4.11-.15,6.12-2.62,37.91-25.76,66.7-59.18,88.9-6.42,4.27-13.23,8.29-20.35,12.09-3.71,1.99-7.52,3.92-11.39,5.78-74.97,36.09-177.48,50.1-232.37,60.71-48.98,9.47-203.59,21.31-265.99-27.48-10.29-8.04-18.07-17.73-22.46-29.36-18.65-49.42,84.9-165.21,146.39-248.89,100-136.08,254.65-100.1,357.92-23.52,28.56,21.17,53.19,45.45,71.64,70.06,7.26,9.66,13.56,19.37,18.76,28.96,10.81,19.89,16.94,39.26,17.18,56.63Z"/><g><path class="c" d="M645.18,413.23c-2.91-1.84-5.58-4.16-7.9-6.95-11.09-13.34-10.15-32.69,1.58-44.92-1.95-8.7,.93-18.16,8.26-24.24,10.42-8.66,25.89-7.23,34.55,3.19,4.88,5.87,6.55,13.34,5.23,20.3,.81,.79,1.58,1.63,2.32,2.52,11.54,13.89,10.06,34.3-3.08,46.4,1.79,7.46-.62,15.63-6.92,20.86-8.83,7.34-21.93,6.13-29.27-2.7-3.5-4.21-5.05-9.39-4.76-14.46Z"/><path class="c" d="M553.45,306.93c3.29,12.06,12.71,20.81,23.98,23.8,3.58,12.09,12.6,22.4,25.31,27.13,4.79,1.78,9.71,2.63,14.54,2.62,.15,.89,.35,1.78,.59,2.67,3.84,14.07,18.36,22.36,32.43,18.52,14.07-3.84,22.36-18.37,18.52-32.43-1.94-7.12-6.61-12.75-12.57-16.08,5.37-14.72,1.87-30.56-7.8-41.59,1.77-2.09,3.21-4.53,4.23-7.25,4.73-12.7-1.72-26.83-14.43-31.56-12.7-4.73-26.83,1.72-31.56,14.43-.4,1.08-.72,2.17-.96,3.26-7.98-5.68-18.35-7.86-28.54-5.08-18.02,4.92-28.65,23.52-23.73,41.56Z"/><path class="d" d="M639.59,408.79l-15.12,18.93,1.9,88.09c-6.42,4.27-13.23,8.29-20.35,12.09l2.24-102.74-.51-.48,.54-.49,.79-21.93-12.78-13.96-27.76-30.32,3.35-3.58,12.5,9.98,3.44,2.75,2.43,1.94,19.46,15.54,.89-24.65,1.56-43.33h8.29l2.01,55.75,1.36,37.58,9.83-9,22.02-20.16,3.59,3.35-19.68,24.64Z"/><path class="c" d="M553.03,339.37c-.02-2.59,.34-5.22,1.11-7.83,4.22-14.3,19.23-22.48,33.53-18.26,14.3,4.22,22.48,19.23,18.26,33.53-2.51,8.52-8.86,14.87-16.61,17.71,1.39,4.97,1.68,10.31,.66,15.64,7.25,6.08,10.63,16.09,7.78,25.75-3.83,13-17.48,20.43-30.47,16.59-7.54-2.22-13.19-7.75-15.88-14.53-1.71-.23-3.43-.6-5.13-1.1-18.29-5.4-28.75-24.6-23.35-42.89,4.13-14.02,16.38-23.42,30.11-24.63Z"/></g><path class="c" d="M594.63,533.68c-74.97,36.09-177.48,50.1-232.37,60.71-48.98,9.47-203.59,21.31-265.99-27.48,17.55-32.66,109.2-29.11,139.78-30.57,60.59,1.96,253.41-23.7,358.58-2.66Z"/><g><path class="c" d="M481.92,361.1c-2.91-1.84-5.58-4.16-7.9-6.95-11.09-13.34-10.15-32.69,1.58-44.92-1.95-8.7,.93-18.16,8.26-24.24,10.42-8.66,25.89-7.23,34.55,3.19,4.88,5.87,6.55,13.34,5.23,20.3,.81,.79,1.58,1.63,2.32,2.52,11.54,13.89,10.06,34.3-3.08,46.4,1.79,7.46-.62,15.63-6.92,20.86-8.83,7.34-21.93,6.13-29.27-2.7-3.5-4.21-5.05-9.39-4.76-14.46Z"/><path class="c" d="M390.19,254.8c3.29,12.06,12.71,20.81,23.98,23.8,3.58,12.09,12.6,22.4,25.31,27.13,4.79,1.78,9.71,2.63,14.54,2.62,.15,.89,.35,1.78,.59,2.67,3.84,14.07,18.36,22.36,32.43,18.52,14.07-3.84,22.36-18.37,18.52-32.43-1.94-7.12-6.61-12.75-12.57-16.08,5.37-14.72,1.87-30.56-7.8-41.59,1.77-2.09,3.21-4.53,4.23-7.25,4.73-12.7-1.72-26.83-14.43-31.56-12.7-4.73-26.83,1.72-31.56,14.43-.4,1.08-.72,2.17-.96,3.26-7.98-5.68-18.35-7.86-28.54-5.08-18.02,4.92-28.65,23.52-23.73,41.56Z"/><path class="d" d="M444.49,372.55l.54-.5,.79-21.92-40.54-44.28,3.35-3.59,37.83,30.21,2.45-67.99h8.29l3.37,93.34,31.85-29.16,3.59,3.35-34.8,43.56,4.2,194.43c-8.87,6.71-19.57,4.37-24.69,0l4.29-196.99-.51-.47Z"/><path class="c" d="M389.76,287.24c-.02-2.59,.34-5.22,1.11-7.83,4.22-14.3,19.23-22.48,33.53-18.26,14.3,4.22,22.48,19.23,18.26,33.53-2.51,8.52-8.86,14.87-16.61,17.71,1.39,4.97,1.68,10.31,.66,15.64,7.25,6.08,10.63,16.09,7.78,25.75-3.83,13-17.48,20.43-30.47,16.59-7.54-2.22-13.19-7.75-15.88-14.53-1.71-.23-3.43-.6-5.13-1.1-18.29-5.4-28.75-24.6-23.35-42.89,4.13-14.02,16.38-23.42,30.11-24.63Z"/></g><g><path class="c" d="M364.31,415.8c-2.16-1.37-4.15-3.09-5.87-5.16-8.24-9.92-7.55-24.3,1.18-33.39-1.45-6.47,.69-13.5,6.14-18.02,7.75-6.44,19.25-5.38,25.68,2.37,3.63,4.36,4.87,9.92,3.88,15.09,.6,.59,1.17,1.21,1.72,1.87,8.58,10.33,7.48,25.5-2.29,34.49,1.33,5.54-.46,11.62-5.15,15.51-6.56,5.45-16.3,4.55-21.76-2.01-2.6-3.13-3.75-6.98-3.54-10.75Z"/><path class="c" d="M296.13,336.78c2.45,8.97,9.45,15.47,17.82,17.69,2.66,8.99,9.37,16.65,18.82,20.17,3.56,1.32,7.21,1.95,10.81,1.95,.11,.66,.26,1.32,.44,1.98,2.85,10.46,13.65,16.62,24.11,13.77,10.46-2.85,16.62-13.65,13.77-24.11-1.44-5.29-4.92-9.48-9.35-11.96,3.99-10.95,1.39-22.71-5.8-30.92,1.31-1.56,2.39-3.36,3.14-5.39,3.52-9.44-1.28-19.94-10.72-23.46-9.44-3.52-19.94,1.28-23.46,10.72-.3,.8-.53,1.62-.72,2.43-5.93-4.22-13.64-5.84-21.22-3.78-13.4,3.66-21.3,17.49-17.64,30.89Z"/><path class="d" d="M336.49,424.31l.4-.37,.59-16.3-30.14-32.92,2.49-2.67,28.12,22.46,1.82-50.54h6.16l2.5,69.38,23.68-21.68,2.67,2.49-25.87,32.38,3.12,144.52c-6.59,4.99-14.54,3.25-18.36,0l3.19-146.43-.38-.35Z"/><path class="c" d="M295.81,360.89c-.01-1.92,.25-3.88,.82-5.82,3.14-10.63,14.3-16.71,24.93-13.57,10.63,3.14,16.71,14.3,13.57,24.93-1.87,6.34-6.59,11.05-12.35,13.17,1.03,3.7,1.25,7.66,.49,11.63,5.39,4.52,7.9,11.96,5.78,19.14-2.85,9.66-12.99,15.18-22.65,12.33-5.6-1.65-9.81-5.76-11.8-10.8-1.27-.17-2.55-.45-3.82-.82-13.6-4.01-21.37-18.29-17.36-31.88,3.07-10.42,12.18-17.41,22.38-18.31Z"/></g><g><path class="c" d="M144.22,448.69c2.67-1.69,5.13-3.82,7.25-6.38,10.18-12.25,9.32-30.01-1.45-41.23,1.79-7.99-.85-16.66-7.58-22.25-9.57-7.95-23.77-6.64-31.72,2.93-4.48,5.39-6.02,12.25-4.8,18.63-.74,.73-1.45,1.5-2.13,2.31-10.6,12.75-9.23,31.48,2.83,42.59-1.65,6.85,.57,14.35,6.35,19.15,8.1,6.73,20.13,5.62,26.87-2.48,3.21-3.86,4.63-8.62,4.37-13.27Z"/><path class="d" d="M178.58,459.2l-.5-.46-.73-20.12,37.22-40.65-3.08-3.29-34.72,27.73-2.25-62.4h-7.61l-3.09,85.67-29.24-26.77-3.29,3.08,31.94,39.99-3.85,123.38c3.57,2.57,14.35,3.28,22.67,0l-3.94-125.73,.47-.43Z"/><path class="c" d="M229.06,427.26c1.59,1.77,3.45,3.33,5.59,4.63,11.7,7.1,26.94,3.37,34.04-8.34,7.1-11.7,3.37-26.94-8.34-34.04-6.97-4.23-15.21-4.61-22.22-1.75-2.13-4.23-5.23-8.03-9.22-11.02,1.16-8.61-2.73-17.49-10.64-22.29-10.63-6.45-24.49-3.06-30.94,7.58-3.74,6.17-4.17,13.41-1.79,19.67-1.02,1.22-1.95,2.52-2.8,3.92-9.08,14.97-4.3,34.46,10.66,43.54,11.47,6.96,25.59,5.77,35.65-1.89Z"/><path class="c" d="M223.12,368.68c-3.7,10.87-12.82,18.35-23.31,20.46-3.96,10.87-12.8,19.81-24.72,23.43-4.49,1.36-9.04,1.86-13.47,1.58-.19,.8-.42,1.61-.69,2.41-4.31,12.67-18.08,19.45-30.76,15.14-12.67-4.31-19.45-18.09-15.14-30.76,2.18-6.41,6.78-11.31,12.43-14.03-4.09-13.79,0-28.1,9.49-37.67-1.5-2.02-2.69-4.33-3.46-6.88-3.62-11.9,3.09-24.48,15-28.1,11.9-3.62,24.48,3.09,28.1,15,.31,1.01,.54,2.03,.7,3.05,7.63-4.75,17.26-6.17,26.44-3.05,16.24,5.52,24.93,23.17,19.4,39.41Z"/></g><g><path class="c" d="M204.09,391.35c4.34-2.75,8.33-6.2,11.79-10.37,16.55-19.91,15.15-48.79-2.36-67.04,2.9-12.98-1.39-27.09-12.32-36.18-15.55-12.92-38.64-10.79-51.56,4.76-7.28,8.76-9.78,19.91-7.8,30.29-1.2,1.18-2.36,2.44-3.46,3.76-17.23,20.73-15.01,51.19,4.6,69.24-2.68,11.13,.93,23.33,10.33,31.14,13.18,10.95,32.73,9.14,43.68-4.03,5.22-6.28,7.53-14.02,7.11-21.57Z"/><path class="d" d="M259.95,408.44l-.81-.74-1.18-32.72,60.51-66.08-5-5.35-56.45,45.09-3.66-101.46h-12.37l-5.03,139.29-47.54-43.52-5.35,5,51.93,65.02-6.26,200.6c5.8,4.18,23.33,5.33,36.85,0l-6.4-204.42,.76-.71Z"/><path class="c" d="M342.04,356.51c2.58,2.87,5.61,5.42,9.08,7.52,19.03,11.54,43.81,5.47,55.35-13.56,11.54-19.03,5.47-43.81-13.56-55.35-11.34-6.88-24.72-7.5-36.13-2.85-3.47-6.88-8.51-13.06-14.99-17.92,1.89-14-4.45-28.44-17.3-36.23-17.29-10.49-39.81-4.97-50.3,12.32-6.08,10.03-6.77,21.81-2.92,31.98-1.65,1.98-3.18,4.1-4.56,6.37-14.76,24.34-7,56.03,17.34,70.79,18.65,11.31,41.61,9.38,57.97-3.08Z"/></g><g><path class="c" d="M572.68,337.53c-3.85-2.44-7.39-5.5-10.46-9.19-14.67-17.66-13.43-43.26,2.09-59.44-2.57-11.51,1.23-24.02,10.93-32.08,13.79-11.46,34.26-9.57,45.72,4.22,6.46,7.77,8.67,17.66,6.91,26.86,1.07,1.05,2.09,2.16,3.07,3.34,15.27,18.38,13.31,45.39-4.07,61.39,2.37,9.87-.82,20.68-9.16,27.61-11.68,9.71-29.02,8.11-38.73-3.58-4.63-5.57-6.68-12.43-6.3-19.13Z"/><path class="c" d="M451.3,196.87c4.36,15.96,16.82,27.53,31.73,31.5,4.74,16,16.67,29.63,33.5,35.9,6.34,2.36,12.84,3.48,19.24,3.47,.2,1.17,.46,2.35,.78,3.53,5.08,18.61,24.29,29.59,42.91,24.51,18.61-5.08,29.59-24.3,24.51-42.91-2.57-9.42-8.75-16.87-16.64-21.28,7.11-19.48,2.48-40.43-10.32-55.04,2.34-2.77,4.25-5.99,5.59-9.59,6.26-16.8-2.28-35.5-19.09-41.76-16.8-6.26-35.5,2.28-41.76,19.09-.54,1.43-.95,2.88-1.28,4.32-10.56-7.52-24.29-10.4-37.77-6.72-23.85,6.51-37.92,31.13-31.4,54.99Z"/><path class="d" d="M523.15,352.68l.72-.66,1.05-29.01-53.65-58.59,4.44-4.74,50.06,39.98,3.25-89.96h10.97l4.46,123.51,42.15-38.59,4.74,4.44-46.04,57.65,5.55,257.27c-11.73,8.88-25.89,5.78-32.67,0l5.67-260.66-.67-.63Z"/></g><g><path class="d" d="M399.09,370.87c19.69-20.06,45.75-23.83,43.93-32.59l-5.57-39.35c-1.82-8.77-10.4-14.4-19.17-12.58l-65.49,13.6c-8.77,1.82-14.4,10.4-12.58,19.17l27.59,45.19c1.82,8.77,27.18,10.75,31.29,6.57Z"/><g><path class="e" d="M293.04,613.69c1.61-2.76,2.81-5.55,5.43-7.63,6.29-5.01,13.32-7.66,21.13-4.04,6.67,3.09,9.11,8.79,10.31,16.2,.76,4.68,1.81,12.93-1.04,17.4-2.25,3.52-6.87,2.2-10.44,2.78-5.74,.94-11.68,1.79-17.52,2.56-11.69,1.53-23.48,2.78-35.25,3.71-2.99,.24-6.06,.42-8.85-.84-2.78-1.26-4.79-4.05-3.88-7.11,.75-2.51,3.17-3.64,5.58-4.2,4.49-1.05,9.14,.05,13.68-.99,5.9-1.35,10.5-5.25,14.9-9.19,2.79-2.5,4.13-5.53,5.94-8.63Z"/><path class="d" d="M403.3,369.14c-33.7,30.85-58.54,69.7-87.16,105.12-10.03,34.04-.28,102.64-.28,102.64,0,0,6.75,17.96,12.76,31.09,2.04,1.87,3.87,3.5,3.71,6.69-4.02,8.97-12.69,7.39-14.81-1.82-3.04,1.71-2.5,4.94-3.09,7.98-4.7,3.99-4.68-6.83-4.06-9.53-5.78,3.64-5.69,11-9.37,16.09-1.47,2.03-3.91,.76-4.32-1.44-.98-5.32,1.36-10.66,1.28-16.05-2.65,.96-2.88,3.73-3.73,6.02-.43,1.16-1.57,1.86-2.34,.64-1.52-2.4-.89-5.27-.71-7.99-1.97-19.23-1.11-58.95-1.11-58.95,2.56-27.62-3.38-56.51,4.7-83.03,25.42-41.04,52.72-81.05,75.47-123.68,28.34-31.05,56.85-8.41,33.05,26.22Z"/></g><g><path class="e" d="M465.38,628.11c.55-3.01,1.15-6.01,2.86-8.89,4.1-6.94,10.79-11.33,19.08-10.33,7.08,.85,11.79,6.32,14.63,12.45,1.8,3.87,5.59,12.85,4.34,17.25-.99,3.48-5.99,4.01-9.3,5.63-5.31,2.6-10.63,5.16-16,7.63-10.73,4.95-21.73,4.52-33.54,4.22-3-.08-6.15-.21-8.75-1.71-2.6-1.5-4.41-4.84-3.18-7.58,1.01-2.25,3.62-3.33,6.07-3.61,4.55-.52,9.14,.96,13.71,.54,5.92-.54,9.48-12.24,10.09-15.61Z"/><path class="d" d="M447.14,351.15c-15.84,45.81-37.36,146.44-37.36,146.44,0,0,41.58,70.6,75.09,98.85,4.88,4.11,9.81,8.18,14.47,12.56,4,3.97,1.65,11.64-1.25,15.99-8.16,7.63-10.3-5.11-14.45-9.48-5.92,5.33-1.13,14.82-5.12,17.1-6.34,.34-5.36-9.17-6.79-13.45-2.73,3.13-.36,6.58-.99,9.71-1.53,2.1-4.29,.32-5.37-1.42-19.84-28.63-37.19-63.77-56.81-92.41-3.27-4.6-6.54-9.18-9.81-13.78-2.85-4-16.77-19.82-18.2-24.47,0,0,23.55-103.69,25.14-153.58,6.51-33.96,47.94-26.02,41.43,7.94Z"/></g><g><path class="e" d="M279.22,424.74c-.45,.05-.93,.12-1.25,.43-.29,.27-.4,.68-.49,1.07-2.06,8.54-10.25,16.5-5.05,23.08,5.21,6.59,18.59,4.74,19.37,3.87,.31-.35,3.38-11.95,7.07-16.06,2.01-2.24,4.28-4.4,5.29-7.23,4.57-12.82-19.24-5.85-24.94-5.16Z"/><path class="d" d="M320.98,246.56c1.08,1.52,40.19,51.79,48.17,72.67,3.21,5.6,5.31,11.84,6.09,18.24-1.33-1.69-2.66-3.38-4-5.07-.14,.27-.29,.54-.43,.82,.81,4.2,.77,8.56-.13,12.74-1.29-1.78-2.57-3.56-3.86-5.34,0,.01-.02,.03-.03,.05,.12,5.58,.04,11.71-3.59,15.95-.56-2.46-.87-4.97-.97-7.49-2.83,5.26-5.66,10.51-8.5,15.78-5.68,10.53-28.47,38.96-39.51,52.89-2.92,3.69-10.98,12.09-11.9,13.71-.88,1.54-.65,4.47-3.13,4.56-1.73,.07-2.67-2.02-2.8-3.75s0-3.72-1.26-4.9c-1.99,.99-1.39,4.42-3.28,5.59-1.49,.92-3.51-.35-4.17-1.98-.65-1.63-.4-3.45-.45-5.2-.03-.89-.31-1.98-1.18-2.18-1.01-.23-1.76,.96-1.93,1.98-.17,1.01-.23,2.23-1.08,2.8-.9,.61-2.22,.04-2.78-.89s-.57-2.09-.49-3.17c.51-8.28,4.9-15.7,8.3-23.13,.58-1.27,1.76-3.66,3.36-6.87l.16,.17c9.56-19.06,28.69-56.86,33.32-71.3-.32-13.5-21.74-68.16-21.74-68.16-4.48-9.39,13.35-17.91,17.82-8.53Z"/></g><g><path class="e" d="M507.11,362.79c.04,.45,.1,.93,.41,1.26,.27,.29,.67,.41,1.06,.51,8.49,2.25,17.18,3.71,25.94,4.36,1.52-5.01,1.49-10.49-.1-15.48,1.06-.5,2.37-7.75-2.81-9.04-5.18-1.29-7.64,2.81-11.67-.98-2.19-2.06-4.3-4.38-7.11-5.45-12.72-4.86-6.28,19.1-5.72,24.81Z"/><path class="d" d="M521.97,334.5c-1.04-2.68-13.86-35.66-24.91-64.1,.39-.06,.77-.19,1.11-.42,1.11-.78,1.37-2.38,.98-3.68-.39-1.3-1.3-2.37-2.18-3.4-1.73-2.02-3.45-4.03-5.18-6.05-.19-.5-.37-.95-.56-1.43,1.9,1.14,3.79,2.29,5.69,3.43-1.17-6.82-6.09-12.24-11.02-17.17l-.21-.54c2.17,1.2,4.34,2.39,6.51,3.59-1.12-6.32-4.51-12.18-9.32-16.4-1.15-1.01-2.09-1.58-2.88-1.82v-.04c.34,.12-83.33-37.23-85.6-38.04-9.2-5.17-18.88,12.06-9.67,17.23,0,0,49.04,44.99,59.54,53.52,5.01,8.11,54,87.35,54,87.35,.31,.61,.66,1.16,1.06,1.65,.17,2.34,1.09,4.69,2,6.89,.57,1.38,1.17,2.79,2.23,3.84s2.72,1.63,4.08,1.02c2.95-1.33,1.84-6.37,4.45-8.3,1.09,2.49,2.18,4.99,3.27,7.48,2.59-1.02,3.13-4.38,3.27-7.15,.1-1.81,.19-3.62,.29-5.43,.1-.09,.2-.19,.3-.28,1.07,2.01,2.13,4.03,3.2,6.04-.35-.66,1.31-5.05,1.41-6.13,.19-2.19,.07-4.42-.38-6.58-.36-1.77-.71-3.63-1.46-5.08Z"/></g><g><path class="d" d="M457.51,306.83c-4.43-5.06-7.95-10.91-10.34-17.21,1.64,12.95,8.65,25.06,8.46,38.11-3.42-6.24-6.86-12.5-10.28-18.74,.66,12.8,9.59,24.76,7.47,37.4-.13,.71-.35,1.51-.99,1.82-1.1,.53-2.17-.73-2.74-1.79-5.39-10.07-10.87-20.47-12.46-31.73-5.44,12.76-13.6,24.84-24.92,30.75-26.79,13.98-38.02,26.22-73.92-17.07-1.01-.27-39.64-69.74-39.64-69.74-7.84-14.84-2.16-33.23,12.69-41.07l55.12-29.1c14.85-7.83,33.24-2.15,41.07,12.7l35.97,68.15s.02,.03,.02,.03c5.17,8.29,8.76,17.3,12.73,26.43,1.53,3.51,3.08,7.46,1.76,11.06Z"/><g><path class="e" d="M333.03,229.19l3.83,2.88c10.24-12.78,27.36-17.36,43.29-21.21,4.43,6.4,4.5,14.8,7.34,22.04,5.74,11.58,13.18,19.63,10.2,33.88-1.54,10.47-10.63,26.4-25.05,38.25-14.58-1.02-25.69-4.47-38.68-11.9-2.88-1.65-7.73-7.23-4.86-9.62,1.15-1.83-.45-4.09-1.88-5.71-5.1-5.78-15.93-18.98-15.07-27.28,.36-3.48,17.78-23.68,20.88-21.34Z"/><path class="e" d="M340.65,240.31c4.04,10.1,9.17,19.76,15.27,28.77"/><path class="e" d="M380.99,273.69c-7.39,2.37-15.65,1.95-22.77-1.16-1.58,7.06-5.8,13.18-10.25,18.88"/></g><path class="d" d="M328.19,179.21l19.91,15.99,.68,29.56-18.47,9.92s-11.26-9.58-18.47-18.84c-7.22-9.26-5.26-25.23-5.26-25.23l21.62-11.41h0Z"/><path class="d" d="M348.04,182.17c.72,.1,1.43,.69,1.42,1.42,0,.48-.31,.91-.6,1.3l-3.07,4.15c1.59,.6,3.15-.84,4.42-1.98,2.3-2.07,5.15-3.51,8.18-4.15l-2.72,4.12c-.23,.35-.47,.77-.31,1.16,.26,.65,1.23,.46,1.85,.13,4.5-2.39,8.57-6.14,13.64-6.59,1.32-.12,3.03,.33,3.19,1.64,.12,.98-.73,1.78-1.5,2.39-8.32,6.63-17.08,13.27-27.39,15.91-5.57,1.43-10.53-3.52-8.8-9.18,1.04-3.4,8.18-10.81,11.71-10.32Z"/></g><path class="d" d="M387.8,267.93c.16,1.62,2.92,1.09,4,2.31,.68,.77,.41,2.03-.26,2.81s-1.64,1.23-2.51,1.77c-1.67,1.04-3.09,2.49-4.08,4.19l5.62,1.26c-2.97,4.18-7.15,7.49-11.9,9.43-.5,.21-1.05,.43-1.32,.9-.53,.93,.47,2.1,1.52,2.25s2.1-.29,3.14-.5c2.32-.46,4.86,.23,7.01-.75,1.31-.59,2.28-1.73,3.18-2.85,7.42-9.38,12.41-21.23,13.33-33.2-2.77,1.88-4,5.41-6.61,7.63-.79,.67-11.02,5.94-11.13,4.74Z"/><path class="d" d="M341.11,285.61c-1.73,1.63-4.04,2.62-6.41,2.75,.19,1.02,1.56,1.16,2.59,1.12,4.35-.18,8.73,.74,12.64,2.66l-7.93,3.06c1.89,1.37,4.44,1.17,6.78,1.27,3.14,.13,6.25,.93,9.06,2.31,.7-.11,.33,1.1-.27,1.46-3.77,2.25-7.96,4.58-12.3,3.88-2.63-.43-4.94-1.93-7.17-3.4-2.68-1.77-5.39-3.57-7.61-5.9-3.69-3.88-6.34-8.8-9.73-12.92,3-2.81,16.34,2.75,20.35,3.7Z"/><g><path class="d" d="M346.18,154.9c-2.01-2.31-4.84-3.89-6.45-6.49,.65-.83,1.99-.36,2.79,.31s1.7,1.54,2.72,1.32c1.57-.34,1.48-2.68,.63-4.05-2.13-3.4-6.36-5.01-10.37-5.04-1.68-.01-9.88,2.41-9.97,.63-.11-2.31,5.16-1.11,5.07-3.98-.05-1.55-2.09-2.07-3.65-2.06-7.13,.05-14.25,1.75-20.62,4.94-1.12,.56-2.45,1.18-3.57,.62-1.13-.56-1.45-2.12-1.02-3.31,.43-1.19,5.62-2.2,2.33-2.94-8.66-1.96-17.92,8.59-22.98,14.25-3.27,3.66-5.76,7.78-3.93,12.68,.87,2.32,2.18,4.42,2.94,6.79,.36,1.13,1.37,7.69,3.56,4.95-.46,6.38-.92,12.75-1.38,19.13-.63,8.76,1.97,17,7.98,23.5,.53,.58,1.13,1.16,1.89,1.37,.76,.21,1.72-.12,1.95-.87,.27-.9-.58-1.73-1.39-2.21-.81-.48-1.78-.99-1.95-1.91-.24-1.32,1.48-2.27,2.77-1.91,1.29,.36,2.2,1.48,3.15,2.43,3.23,3.25,7.85,5.07,12.43,4.92,4.58-.16,9.06-2.29,12.06-5.76-1.35-1.52-4.76-.29-5.33-2.24-.29-.99,.64-1.98,1.65-2.2,1.01-.22,2.04,.1,3.04,.33,5.52,1.27,11.59-.13,16.01-3.68,.31-.25,.62-.53,.71-.91,.18-.75-.58-1.38-1.28-1.71-1.17-.54-2.48-.84-3.5-1.63-1.02-.79-1.65-2.33-.9-3.38,.78-1.09,2.46-.94,3.69-.39,1.23,.55,2.41,1.39,3.75,1.33,2.13-.1,3.5-2.56,3.26-4.68-.23-2.12-1.56-3.93-2.8-5.67-1.24-1.74-2.48-3.65-2.49-5.78,.74,.75,1.53,1.53,2.54,1.85,1.01,.32,2.31,0,2.73-.98,.3-.69,.09-1.49-.12-2.22-1.29-4.58-2.09-9.29-2.42-14.04,.59,2.42,1.24,4.81,3.38,5.48,2.32,.73,4.53-1.54,5.39-3.81,1.64-4.31,.71-9.48-2.31-12.95Z"/><path class="e" d="M326.07,180.48c-.18-1.01,.16-2.04,.49-3.01l2.25-6.57,1.67-4.85c1.45-4.24,7.89,.12,9.39,2.32s1.73,5.62-.02,7.77c-1.08,1.32-2.69,2.07-4.24,2.77-2.16,.98-8.73,5.75-9.53,1.57Z"/><path class="e" d="M327.56,164.31c-2.11,4.86-6.14,10.54-5.8,15.94,.25,3.88,2.33,7.6,5.5,9.84,.13,1.68-2.33,2.13-3.93,1.62s-3.62-1.24-4.74,.02l4.28,4.03c.3,.28,.62,.59,.69,1,.15,.78-.64,1.4-1.34,1.79-6.03,3.37-12.97,5.1-19.88,4.97-4.19-.08-8.86-1.16-11.07-4.71-1.91-3.07-.78-5.98-1.17-9.26-.33-2.77-1.61-5.58-2.01-8.42-.9-6.52-.35-13.25,2.58-19.22,1.69-3.42,4.73-6.41,8.5-7.01-1.72,2.57-2.28,5.9-1.5,8.89,3.24-5.46,8.82-9.48,15.03-10.83l-2.68,5.71c-.58,1.23-.75,3.27,.61,3.41,.58,.06,1.09-.35,1.54-.72,4.08-3.37,8.92-5.81,14.06-7.08,.77-.19,1.59-.35,2.33-.08,2.14,.79,1.64,3.94,.73,6.04-.59,1.35-1.17,2.71-1.76,4.06Z"/></g><path class="e" d="M300.23,195.16h6.3"/><path class="e" d="M301.64,174.85c.06,2.37,.41,4.73,1.05,7"/></g><path class="c" d="M314.75,277.42c-2.93,7.05-11.68,13.76-17.55,17.85-3.95,2.76-8.29,4.94-12.85,6.48-1.61,.54-12.96,1.86-13.34,2.57-8.89,16.58-25.19,28.91-45.2,31.99-7.54,1.15-14.98,.9-22.05-.57-.49,1.25-1.04,2.49-1.67,3.72-9.87,19.39-33.6,27.13-53,17.25-19.39-9.87-27.12-33.61-17.25-53,4.99-9.81,13.52-16.63,23.24-19.7-3.39-23.14,6.51-45.22,23.99-58.42-1.95-3.59-3.32-7.59-3.98-11.87-3.08-19.99,10.64-38.68,30.63-41.75,11.97-1.84,24.32,2.49,32.52,11.4,4.08,4.43,7.02,9.85,8.51,15.69,.81,3.17,.8,5.4,.23,8.43s-2.11,6.37,.77,8.79c2.67,2.25,6.68,.59,9.85-.88,9.15-4.24,19.83-6.2,29.37-2.91,9.53,3.29,17.26,12.8,16.29,22.83-.36,3.67-1.79,7.15-2.55,10.76s-.76,7.68,1.45,10.63c2.68,3.59,7.79,4.51,10.85,7.78,2.79,2.98,3.41,7.57,2.26,11.48-.14,.49-.32,.97-.52,1.46Z"/><path class="f" d="M270.43,228.69c2.12-5.14,8.99-7.66,13.94-5.12s6.87,9.61,3.91,14.32c2.79,0,5.4,2.29,5.74,5.06s-1.63,5.63-4.34,6.3"/><path class="f" d="M171.77,274.91c-.89-1.25-2.88-.7-4.09,.24-4.3,3.34-5.22,10.25-1.95,14.6-4.72-.59-9.66,2.36-11.39,6.79s-.07,9.95,3.81,12.7"/><path class="f" d="M575.16,215.95c3.47,1.69,5.87,5.38,6.02,9.23s-1.95,7.71-5.28,9.67c5.48-.25,11.03,1.43,15.44,4.68"/><path class="f" d="M160.38,401.78c-1.31,3.16,.26,7.22,3.36,8.67s7.23,.05,8.81-2.99c2.08,4.48,9.62,4.72,11.98,.38"/><path class="f" d="M252.94,308.74c1.12,5.17,8.82,7.32,12.46,3.48,.09,3.97,.21,8.08,1.91,11.68s5.43,6.55,9.37,6.04"/><path class="f" d="M584.59,344.58c-1.84,2.21,.12,5.88,2.88,6.69s5.69-.3,8.3-1.52c.78,2.96,3.59,5.28,6.65,5.49s6.15-1.7,7.33-4.53"/><path class="f" d="M640.57,310.41c4.13,2.35,4.66,9.11,.94,12.07"/></svg>