<svg xmlns="http://www.w3.org/2000/svg" xmlns:xlink="http://www.w3.org/1999/xlink" viewBox="0 0 1200 1200"><defs><style>.cls-1{isolation:isolate;}.cls-2{fill:#ecebf2;}.cls-3{fill:#1b4c98;}.cls-4{fill:#f285b6;}.cls-5{fill:#eded9f;}.cls-6{fill:#0f0f12;}.cls-7{fill:#e07ba9;}.cls-8{fill:#231e55;}.cls-9{fill:#181821;}.cls-10{fill:#a9abaa;}.cls-11{fill:#636464;}.cls-12{fill:#faca3b;}.cls-13{fill:#8d5158;}.cls-14{fill:#6b343f;}.cls-15{fill:#cc8535;}.cls-16{fill:#71bb99;}.cls-17{opacity:0.7;mix-blend-mode:soft-light;}.cls-18{fill:url(#linear-gradient);}.cls-19{fill:url(#linear-gradient-2);}.cls-20{fill:url(#linear-gradient-3);}.cls-21{fill:url(#linear-gradient-4);}.cls-22{fill:url(#linear-gradient-5);}.cls-23{fill:url(#linear-gradient-6);}.cls-24{fill:url(#linear-gradient-7);}</style><linearGradient id="linear-gradient" x1="182.44" y1="871.05" x2="930.11" y2="592.26" gradientUnits="userSpaceOnUse"><stop offset="0" stop-color="#c67db3"/><stop offset="1" stop-color="#55bc80"/></linearGradient><linearGradient id="linear-gradient-2" x1="167.44" y1="830.81" x2="915.1" y2="552.01" xlink:href="#linear-gradient"/><linearGradient id="linear-gradient-3" x1="129.08" y1="727.93" x2="876.74" y2="449.14" xlink:href="#linear-gradient"/><linearGradient id="linear-gradient-4" x1="172.16" y1="843.48" x2="919.83" y2="564.69" xlink:href="#linear-gradient"/><linearGradient id="linear-gradient-5" x1="150.26" y1="784.74" x2="897.93" y2="505.94" xlink:href="#linear-gradient"/><linearGradient id="linear-gradient-6" x1="120.33" y1="704.49" x2="868" y2="425.7" xlink:href="#linear-gradient"/><linearGradient id="linear-gradient-7" x1="277.81" y1="1126.81" x2="1025.48" y2="848.02" xlink:href="#linear-gradient"/></defs><g class="cls-1"><g id="Layer_1" data-name="Layer 1"><path class="cls-2" d="M128.93,789.69c-22.79-57.61-9-132.7,43.4-165.71,22-13.84,49.93-20.53,64.83-41.82,33.06-52.56-30.69-147.57-22.66-216C211,250,252,198.31,393.91,188.13s233.52,74.94,265.74,93.75C730.26,323.1,822.13,279.2,901,300.64,971.17,319.7,1020.49,396.19,1008.9,468c-9.45,58.49-53.5,112.47-41.85,170.56,30.9,106,199.69,160.38,60,285.72-73,51.6-168,33.79-252.07,38.61-60.37,3.67-119.25,19.28-178.35,32.12-120.09,32-253.31,27.64-339.43-71.71C209.44,879.05,154.62,854.63,128.93,789.69Z"/><path class="cls-3" d="M768.26,427.23l-31.45,1a36.77,36.77,0,0,0-35.87,37.86L702,497.13a37.16,37.16,0,0,0,38.46,35.57l31.44-1a36.77,36.77,0,0,0,35.87-37.87l-1.09-31.06C806,442.53,788.78,426.6,768.26,427.23Z"/><path class="cls-4" d="M786.55,600.49c-18.61.76-37.19,2-55.77,3.21,1.27-28.77,2.09-57.56,3.3-86.34q21.92-.4,43.84-.91C780.49,544.5,783.42,572.5,786.55,600.49Z"/><path class="cls-4" d="M719.1,546.05l9.64-.3c21.75-.67,59.71-19.27,59-40.76L787,484.8c-.76-21.48-19-38.36-40.75-37.69l-9.64.3a39,39,0,0,0-38,40.11l.71,20.19C700.06,529.2,697.35,546.72,719.1,546.05Z"/><path class="cls-3" d="M743,476.35l-33.51,9.21a20.72,20.72,0,0,1-25.42-14.17h0a20.24,20.24,0,0,1,14.25-25.06l33.51-9.21a20.71,20.71,0,0,1,25.42,14.17h0A20.24,20.24,0,0,1,743,476.35Z"/><path class="cls-3" d="M773.06,482.29l-10.27-2.77a20.41,20.41,0,0,1-14.55-25h0a20.56,20.56,0,0,1,25.25-14.29L783.76,443a20.41,20.41,0,0,1,14.55,25h0A20.56,20.56,0,0,1,773.06,482.29Z"/><path class="cls-4" d="M774.41,499.56c.35,11.11,9.2,17.87,19.5,16.82s19-9.52,18.64-20.62S803.34,477.9,793,478.93,774.05,488.46,774.41,499.56Z"/><path class="cls-4" d="M554.06,741.09l7,12.56,7,12.56,90.25-55.78L695,668.91c11.67-13.85,20.08-26.07,10.92-40.11h0a28.38,28.38,0,0,0-41.38-6.8L633.3,672.19Z"/><path class="cls-4" d="M524.06,774h0a15.12,15.12,0,0,0,19.7,6.45L563.39,771a15,15,0,0,0,6.43-20.84l-1.18-2.11a15.07,15.07,0,0,0-21.12-5.66L529.06,754A15,15,0,0,0,524.06,774Z"/><path class="cls-5" d="M670.05,579.3l-29.12,62.27,58.67,27.49c3.15,1.47,7.1-.32,8.83-4l23.72-55.82c4.18-14.18,2.62-27.43-10.14-33.41l-18.2-8.53A25.33,25.33,0,0,0,670.05,579.3Z"/><path class="cls-5" d="M832.34,752.5H686.56l-8.82-171a16.7,16.7,0,0,1,16.76-16.9l117.2-.66c11.59-.26,27.75,14.62,29.79,29.06Z"/><path class="cls-6" d="M900.56,800.42c15.29-18.52,6.19-46.11,6.19-46.11-2.84-10.71-13.43-19.7-24.45-19.42,0,0-40.54-7.45-47.91-7.45H690.85c-23.87,8.14-113.83,0-113.83,0a20.71,20.71,0,0,0-21.77,19.58l-1.82,34.36A20.69,20.69,0,0,0,573,803.18S885.26,818.93,900.56,800.42Z"/><path class="cls-7" d="M671.62,841.09l-3.51-17.33a5.36,5.36,0,0,0-6.57-4.18l-41.66,9.06,1.85,28.58,44.4-8.17A7,7,0,0,0,671.62,841.09Z"/><path class="cls-8" d="M619.88,828.64l-19.53-2.51-17.76,41.5c23.51,1.06,39.14-10.41,39.14-10.41Z"/><path class="cls-9" d="M875,736.72,649.11,808.3l8.92,51,232.23-50.4c14.57-4.23,24-19,21.06-32.92l-4.57-21.65C903.81,740.37,889.61,732.49,875,736.72Z"/><path class="cls-7" d="M734.34,853.53l3.51-17.33a5.36,5.36,0,0,1,6.57-4.18l41.65,9.06-1.84,28.57-44.4-8.17A6.94,6.94,0,0,1,734.34,853.53Z"/><path class="cls-8" d="M775.14,838.7l19-4.91,23,38.87c-23.18,4.08-40.07-5.19-40.07-5.19Z"/><path class="cls-9" d="M579.15,729.72,767.71,834.5,749.91,871l-208.21-72c-12.82-5.94-17.35-21.61-10.11-35l11.24-20.8C550.07,729.84,566.33,723.79,579.15,729.72Z"/><path class="cls-4" d="M739.94,776l10.55,9.75L761,795.46l68.24-81.23,21.9-50.94c6.74-16.81,10.9-31-2.19-41.51h0a28.38,28.38,0,0,0-41.43,6.5l-13.93,57.44Z"/><path class="cls-4" d="M721.75,816.62h0a15.13,15.13,0,0,0,20.73,0l15.69-15.09a15,15,0,0,0-.41-21.8L756,778a15.08,15.08,0,0,0-21.84,1.24L720.23,796A15,15,0,0,0,721.75,816.62Z"/><path class="cls-5" d="M799.44,586l-8.16,68.25L855.61,662c3.45.41,6.65-2.53,7.13-6.57l5-60.43c-.47-14.78-6.1-26.88-20.08-28.56l-20-2.4A25.33,25.33,0,0,0,799.44,586Z"/><path class="cls-10" d="M268.69,810.7c-.06,4.24-2.53,22.58-8.13,25.92-4.56,2.73-26.06,6.9-46.94,9.1-24.31,2.57-41.9,1.89-44.83-1.72-.24-.3-1-1.21,1.32-3.67,5.35-5.74,19.1-16.42,28.31-22,11.24-6.78,36-8.72,53.12-8.72C260,809.63,266.6,810.1,268.69,810.7Z"/><path class="cls-11" d="M188.11,850.27c-10.06,0-18.94-1-21.65-4.39-1.19-1.47-1.9-4,1.46-7.59,5.59-6,19.39-16.74,29-22.51,18.37-11.09,68.57-9.92,73.55-7.63a1.92,1.92,0,0,1,1.21,1.42c.35,1.54-1.59,24.88-9.53,29.63h0c-5.63,3.36-28.91,7.47-48.16,9.5A258.25,258.25,0,0,1,188.11,850.27Zm63.43-40.64c-17.09,0-41.88,1.94-53.12,8.72-9.2,5.56-23,16.24-28.31,22-2.29,2.46-1.55,3.37-1.31,3.67,2.92,3.61,20.51,4.29,44.82,1.72,20.88-2.2,42.38-6.37,46.94-9.1,5.6-3.34,8.07-21.68,8.13-25.92C266.6,810.1,260,809.63,251.54,809.63Z"/><path class="cls-10" d="M502.28,844c-2.92,3.61-20.52,4.29-44.83,1.72-10.44-1.1-21-2.69-29.59-4.35s-15.06-3.39-17.35-4.75c-5.6-3.34-8.07-21.69-8.13-25.92,6.33-1.8,53.47-2.5,70.27,7.65,9.21,5.56,23,16.24,28.31,22C503.25,842.79,502.52,843.7,502.28,844Z"/><path class="cls-11" d="M483,850.27a254.91,254.91,0,0,1-25.82-1.57c-19.26-2-42.54-6.14-48.17-9.5h0c-7.94-4.75-9.87-28.08-9.52-29.7a1.91,1.91,0,0,1,1.2-1.35c5-2.29,55.18-3.46,73.55,7.63,9.56,5.77,23.37,16.5,29,22.51,3.36,3.61,2.64,6.12,1.45,7.59C501.91,849.23,493,850.27,483,850.27ZM402.38,810.7c.06,4.23,2.53,22.58,8.13,25.92h0c4.57,2.73,26.06,6.9,46.94,9.1,24.31,2.57,41.91,1.89,44.83-1.72.24-.3,1-1.21-1.32-3.67-5.34-5.74-19.1-16.42-28.31-22C455.85,808.2,408.71,808.9,402.38,810.7Z"/><path class="cls-12" d="M260,683.2c-1.51-3.53-1.68-7.48-2.79-11.15s-8.82-8-7.45-8,15,6.15,18.44,13.28c1.6,3.33,2.41,7,4.34,10.18.74,1.2,3.61,4.19,1.64,5.12-1.41.67-4.51-.65-5.81-1.22A16,16,0,0,1,260,683.2Z"/><path class="cls-12" d="M412.36,758.45c.57-3.28-.08-6.65.12-10s4.7-8.2,4.7-8.2c-6,1.45-11.46,8.2-12.91,14.89-.68,3.14-.62,6.42-1.62,9.47-.38,1.16-2.21,4.26-.36,4.65,1.32.28,3.68-1.46,4.66-2.2A13.92,13.92,0,0,0,412.36,758.45Z"/><path class="cls-12" d="M253.94,747.92c-.74-2.13-.84-4.42-1.48-6.58s-2-4.33-4.19-5c1.57-.58,3.3.24,4.67,1.2a20.09,20.09,0,0,1,6.47,7.73c1.19,2.47,3,7.2,1.84,9.89C257.9,754.53,255,750.94,253.94,747.92Z"/><path class="cls-12" d="M355.44,619.26c-.09-2.25-.82-4.43-1-6.67s.44-3.47,2.11-6.15-6.89,9-7.16,12.35c-.21,2.74-.15,7.79,1.88,9.89C354.15,626.86,355.56,622.45,355.44,619.26Z"/><path class="cls-13" d="M426.23,822.19a4.72,4.72,0,0,1-3.46,1.66H365.36l-61.91-2.06h-.05l-51.3,2.07a8.37,8.37,0,0,1-2-.23h0c-7.32-1.7-10.17-13-9.76-23.54v-.18c.16-4.06.33-8.26,1.52-11.56,1.61-4.49,4.62-7.56,8.25-8.4a8.37,8.37,0,0,1,2-.23h53.17l-29.42-8.06.71-.71,24.64,5,4.26,3.72h31.9l47.87,1.66h.06l37.48-1.66c2.21,0,3.35,2.1,5.21,7.13.19.53.4,1.07.61,1.62,1.25,3.28,2.67,7,2.82,11C431.8,809.44,429.72,818.57,426.23,822.19Z"/><path class="cls-14" d="M252.1,823.85a8.37,8.37,0,0,1-2-.23h0l-.34-.09-.34.09.68,2.92a11.8,11.8,0,0,0,5.28-2.82Z"/><path class="cls-14" d="M434.41,799.36c-.17-4.51-1.68-8.47-3-12q-.31-.81-.6-1.59a27.25,27.25,0,0,0-2.89-6.22,6.1,6.1,0,0,0-5.2-2.87l-37.42,1.66-47.87-1.66H306.59l-4-3.5-27-5.53-5.5,5.5L283,776.71H252.1a11.41,11.41,0,0,0-2.66.31c-4.63,1.08-8.42,4.84-10.39,10.31-1.34,3.73-1.51,8.17-1.68,12.45V800c-.68,17.38,6.07,25.18,12.07,26.58a11.58,11.58,0,0,0,2.71.31h0l51.25-2.06,61.9,2.06h57.46a7.67,7.67,0,0,0,5.63-2.58C433.35,819.12,434.73,807.63,434.41,799.36Zm-8.18,22.83a4.72,4.72,0,0,1-3.46,1.66H365.36l-61.91-2.06h-.05l-48,1.94a11.8,11.8,0,0,1-5.28,2.82l-.68-2.92.34-.09c-7.07-2-9.82-13.13-9.42-23.45v-.18c.16-4.06.33-8.26,1.52-11.56,1.56-4.34,4.42-7.36,7.9-8.31,6.9,1.92,10.06,12.55,10.06,21.75s-3.16,19.82-10.06,21.75l.34.09h0a8.37,8.37,0,0,0,2,.23l3.3-.13c5.09-4.61,7.43-13.57,7.44-21.94s-2.39-17.52-7.59-22.07h50l-29.42-8.06.71-.71,24.64,5,4.26,3.72h31.9l47.87,1.66h.06l37.48-1.66c2.21,0,3.35,2.1,5.21,7.13.19.53.4,1.07.61,1.62,1.25,3.28,2.67,7,2.82,11C431.8,809.44,429.72,818.57,426.23,822.19Z"/><path class="cls-14" d="M255.4,823.72a11.8,11.8,0,0,1-5.28,2.82l-.68-2.92.34-.09.34.09h0a8.37,8.37,0,0,0,2,.23Z"/><path class="cls-13" d="M249.48,813.91c-6.11-5.5-9.28-19.06-2.86-26.66,4-4.73,9.35,6.65,9.51,11.24-.8,8.6-6.35,4-5.88-4"/><path class="cls-14" d="M248.48,815c-7-6.28-9.74-20.78-3-28.75a4,4,0,0,1,4.53-1.43c4.18,1.45,7.49,9.79,7.63,13.59v.19c-.52,5.63-3,6-4.07,6-2.92-.22-5.11-4.89-4.79-10.2l3,.18c-.25,4.27,1.34,6.71,2,7,.22-.21.7-1.07.9-3.13-.17-3.46-3.28-10-5.6-10.77-.23-.08-.63-.21-1.26.54-6.06,7.17-2.52,19.86,2.72,24.58Z"/><path class="cls-12" d="M289.48,790.47c-16.93-24.9-20.73-60.25-4.28-85.6s3.79-62.8,1.6-75.42,28.16,31.7,15.57,66.66c7.53-13,11-9.1,15.27-18,1.31-2.77-2.06,22.61-6.17,29.12,15.76-14.05,15.38-38.16,11.95-58.71s16.83-40.3,20.25-43-11.26,47.95,1.07,65.08,16.75,82.23,16.75,82.23-17.82-120.59,28.09-112.37c0,0-21.93,17.13-15.07,37s36.31,64.41,15.07,102.1S309.7,820.21,289.48,790.47Z"/><path class="cls-15" d="M316.53,784.37a1,1,0,0,1-.18-2c5.07-1,9.86-5.47,13.84-13,8.1-15.32,10.7-38.47,7.14-46.68a1,1,0,0,1,1.84-.79c4.46,10.3-.24,35.22-7.21,48.4-4.28,8.09-9.55,12.94-15.24,14Z"/><path class="cls-15" d="M293.4,739.57a1,1,0,0,1-1-.9c-1.21-11.2,5.21-17.94,12-25.07,2.12-2.23,4.32-4.54,6.27-7a1,1,0,0,1,1.41-.16,1,1,0,0,1,.16,1.4c-2,2.53-4.24,4.87-6.39,7.14-6.47,6.79-12.57,13.2-11.46,23.48a1,1,0,0,1-.89,1.1Z"/><path class="cls-15" d="M369.72,775.7a1.12,1.12,0,0,1-.43-.1c-5.86-2.82-7.43-11.53-8.87-22.63a1,1,0,0,1,2-.26c1.32,10.13,2.81,18.71,7.75,21.08a1,1,0,0,1-.43,1.91Z"/><path class="cls-13" d="M435,856h0a10.11,10.11,0,0,1-2.26.26l-59.27-2.38h-.06l-71.52,2.38H235.53a5.67,5.67,0,0,1-4.17-2c-4.07-4.23-6.5-14.84-6.05-26.41.18-4.68,1.82-9,3.28-12.8.24-.64.48-1.26.7-1.87,1.93-5.22,3.31-8.38,6.17-8.39l43.3,1.91h.06l55.31-1.91H371l4.9-4.29,28.65-5.87,1.24,1.24C384.93,802,385,802.51,385.15,804c.2,1.8.21,1.83,24.58,1.34,11.37-.23,22.88-.56,22.95-.56A9.87,9.87,0,0,1,435,805c4.26,1,7.8,4.59,9.69,9.86,1.39,3.85,1.58,8.71,1.76,13.42v.2C447,840.73,443.6,854,435,856Z"/><path class="cls-14" d="M449.48,828.39v-.19c-.19-4.94-.39-10-1.93-14.33-2.25-6.24-6.57-10.53-11.82-11.76a13.13,13.13,0,0,0-3.07-.34h0c-11.75.33-28.81.73-38.4.78,4.42-1.43,10.21-3.19,14.77-4.54l2.42-.71-5.95-5.95-31,6.35-4.64,4.07H334.08l-55.25,1.9-43.3-1.9c-5.22,0-7.17,5.25-9.05,10.34-.22.6-.46,1.21-.7,1.84-1.53,4-3.27,8.58-3.47,13.75-.37,9.51,1.21,22.71,6.88,28.61a8.63,8.63,0,0,0,6.34,2.9H302l71.46-2.38,59.27,2.38a13,13,0,0,0,3-.34C442.55,857.27,450.26,848.33,449.48,828.39ZM435,856h0a10.11,10.11,0,0,1-2.26.26l-59.27-2.38h-.06l-71.52,2.38H235.53a5.67,5.67,0,0,1-4.17-2c-4.07-4.23-6.5-14.84-6.05-26.41.18-4.68,1.82-9,3.28-12.8.24-.64.48-1.26.7-1.87,1.93-5.22,3.31-8.38,6.17-8.39l43.3,1.91h.06l55.31-1.91H371l4.9-4.29,28.65-5.87,1.24,1.24C384.93,802,385,802.51,385.15,804c.2,1.8.21,1.83,24.58,1.34,4.81-.09,9.64-.21,13.62-.31-5,4.61-7.33,13.52-7.33,21.83,0,10.85,3.94,22.71,12.72,24.76l.68-2.92C422.28,847,419,836.2,419,826.85s3.26-20.18,10.4-21.84l0-.15,3.3-.09A9.87,9.87,0,0,1,435,805c4.26,1,7.8,4.59,9.69,9.86,1.39,3.85,1.58,8.71,1.76,13.42v.2C447,840.73,443.6,854,435,856Z"/><path class="cls-13" d="M435.71,844.5c7.06-6.35,10.72-22,3.31-30.8-4.61-5.45-10.8,7.68-11,13,.93,9.93,7.34,4.6,6.79-4.62"/><path class="cls-14" d="M436.55,845.43l-1.67-1.85c6.95-6.25,9.84-21.19,3.19-29.07-.84-1-1.47-.94-2-.76-3.1,1.07-6.62,9.11-6.8,12.9.3,3.11,1.14,4.13,1.5,4.13h0c1-.08,3.09-3.42,2.78-8.64l2.49-.14c.35,5.87-2,11-5.08,11.26-1.07.08-3.62-.38-4.19-6.46v-.16c.14-4.15,3.91-13.67,8.48-15.25a4.14,4.14,0,0,1,4.7,1.51C447.58,821.91,444.45,838.32,436.55,845.43Z"/><path class="cls-10" d="M503.44,859.49c-.09,1.54-7,6.39-32.74,13.74-17.82,5.09-36.16,9-41.46,9.28-9.9.58-26-3.36-27-16.32-.32-4.12,1.36-8.36,4.85-12.26,6.05-6.77,16.8-11.72,26.14-12,27.77-1,65.23-.79,68.66-.13C502.9,842.63,504,848.74,503.44,859.49Z"/><path class="cls-11" d="M427.26,885.57a38.75,38.75,0,0,1-16.63-3.64c-6.91-3.41-10.84-8.78-11.36-15.51-.38-4.95,1.56-10,5.61-14.49,6.55-7.33,18.17-12.69,28.27-13h0c23.39-.81,67.68-1,70.06.14,1.59.79,4.12,4.53,3.22,20.63-.09,1.62-.36,6.58-34.91,16.45-18,5.15-36.65,9.09-42.11,9.4C428.7,885.55,428,885.57,427.26,885.57Zm6-43.69c-9.34.33-20.09,5.28-26.14,12-3.49,3.9-5.16,8.14-4.85,12.26,1,13,17.09,16.9,27,16.32,5.31-.3,23.64-4.19,41.46-9.28,25.7-7.35,32.65-12.2,32.74-13.74.6-10.75-.54-16.86-1.53-17.74-3.43-.66-40.89-.83-68.66.13Zm68.77-.11Z"/><path class="cls-10" d="M305.67,875.18c.12,1.47,7.22,5.19,33.31,8.74,18.09,2.46,36.69,3.69,42,3.25,10-.79,26.2-6.79,27-19.4.26-4-1.5-7.87-5.09-11.14-6.23-5.69-17.17-9-26.62-8-28.08,2.88-65.93,8.18-69.39,9.28C306,858.88,304.89,864.92,305.67,875.18Z"/><path class="cls-11" d="M380.91,890.09c-5.53.44-24.43-.79-42.71-3.28-35.07-4.77-35.43-9.5-35.55-11.06-1.16-15.37,1.34-19.31,2.93-20.3,2.39-1.47,47.15-7.31,70.8-9.74h0c10.21-1,22,2.53,28.78,8.69,4.17,3.8,6.2,8.36,5.9,13.17-.42,6.56-4.3,12.26-11.22,16.5a44.93,44.93,0,0,1-16.76,5.78C382.36,890,381.63,890,380.91,890.09Zm-4.59-41.48c-28.07,2.88-65.93,8.18-69.39,9.28-1,1-2,7-1.25,17.29.11,1.47,7.21,5.19,33.3,8.74,18.09,2.46,36.69,3.69,42.06,3.26,10-.81,26.19-6.8,27-19.42.26-4-1.51-7.85-5.09-11.13-6.23-5.69-17.17-9-26.62-8Zm-69.5,9.32Z"/><path class="cls-10" d="M264.51,860.43c-2.39,13.24-24.13,22.29-39.59,20.13-19.68-2.74-45.28-7.07-59.71-9.81a18.6,18.6,0,0,1-4.8-10.63c0-.4-.09-.71-.13-.94a3.63,3.63,0,0,0,.09-.63c.13-1.33.3-2.61.53-3.81a36.17,36.17,0,0,0,1.23-3.43l.15-.44c.08-.2.42-.89.78-1.62l.19-.38c5.74-2.43,11.65-4.74,17.6-6.87,22.45-3.2,52.62-4.6,59.72-3.77,6.77.79,16.41,4,21.28,10.6A14.45,14.45,0,0,1,264.51,860.43Z"/><path class="cls-11" d="M229.41,883.85a35,35,0,0,1-4.9-.32c-20-2.78-46-7.19-60.35-9.93l-.49-.09-.34-.37c-7.28-3.4-6.71-19.22-3.41-25.26s13.84-6.53,20.06-8.75l.29-.07c23.09-3.31,53.22-4.67,60.65-3.81h0c7.37.86,17.9,4.46,23.34,11.8a17.32,17.32,0,0,1,3.2,13.92C264.85,875.49,244.58,883.85,229.41,883.85Zm-64.2-13.1c14.43,2.74,40,7.07,59.72,9.81,15.45,2.16,37.2-6.89,39.58-20.13a14.48,14.48,0,0,0-2.65-11.6c-4.88-6.56-14.51-9.81-21.29-10.6-7.1-.83-37.26.57-59.72,3.77-5.95,2.13-11.86,4.44-17.6,6.87l-.19.38c-.36.73-.7,1.42-.78,1.62l-.15.44a36.17,36.17,0,0,1-1.23,3.43c-.22,1.2-.4,2.48-.53,3.81a3.63,3.63,0,0,1-.09.63c0,.23.08.54.13.94A18.6,18.6,0,0,0,165.21,870.75Z"/><path class="cls-10" d="M319.17,860.48a75.25,75.25,0,0,1-5,12.47c-2.57,5.08-5.77,9.89-8.88,10.87-5.08,1.61-27,.7-47.78-2-24.25-3.1-41.21-7.82-43.22-12-.17-.34-.67-1.39,2.13-3.26,6.52-4.35,22.37-11.58,32.61-14.86a47.22,47.22,0,0,1,14-1.7C284.46,850,314.58,857.91,319.17,860.48Z"/><path class="cls-11" d="M295,887.63a331.25,331.25,0,0,1-37.86-2.8c-15.51-2-42-6.41-45.54-13.69-.82-1.71-.94-4.32,3.16-7,6.83-4.56,22.73-11.82,33.37-15.23,20.43-6.55,69,6.16,73.33,9.53a1.93,1.93,0,0,1,.85,1.67c0,1.58-7.29,23.84-16.11,26.62h0C304.11,887.34,300.11,887.63,295,887.63ZM263,850a47.22,47.22,0,0,0-14,1.7c-10.24,3.28-26.09,10.51-32.61,14.86-2.8,1.87-2.29,2.92-2.13,3.26,2,4.19,19,8.91,43.22,12,20.83,2.67,42.7,3.58,47.78,2h0c6.21-2,12.84-19.24,13.88-23.34C314.59,857.91,284.46,850,263,850Z"/><path class="cls-16" d="M997.07,882.57a89.26,89.26,0,0,0,26.21-37.18,62.55,62.55,0,0,0-30.93,24.07,38.64,38.64,0,0,0-6.47-24v0a38.63,38.63,0,0,0-6.46,24,62.62,62.62,0,0,0-30.94-24.07,89.44,89.44,0,0,0,26.21,37.18,132.24,132.24,0,0,0-45.34-26.26,64.76,64.76,0,0,0,47.34,32.83h18.39a64.8,64.8,0,0,0,47.35-32.83A132.19,132.19,0,0,0,997.07,882.57Zm-11.19-.75,0,.08a.14.14,0,0,0,0,.07l0-.07Z"/><g class="cls-17"><path class="cls-18" d="M908.86,764.32a60.85,60.85,0,0,0-2.11-10,23.16,23.16,0,0,0-12.43-16.1,22.72,22.72,0,0,0-12-3.32s-40.54-7.45-47.91-7.45h-.61l1.56-27.32,15.84-36.83.69-1.75,3.74.44c3.45.42,6.65-2.52,7.13-6.56l5-60.43c-.47-14.78-6.1-26.88-20.08-28.56l-20-2.4a25.74,25.74,0,0,0-10.32.85,17.22,17.22,0,0,0-5.73-.94l-29.08.16q-1.74-16.65-3.34-33.32A37,37,0,0,0,803,513.29a19.8,19.8,0,0,0,9.58-17.53,17.2,17.2,0,0,0-5.11-12.12l-.73-20.83c-.71-20.28-17.93-36.21-38.45-35.58l-31.45,1a37.08,37.08,0,0,0-29.19,15.57l-9.31,2.56a20.24,20.24,0,0,0-14.25,25.06h0a20.57,20.57,0,0,0,14.51,14.18c0,.65,0,1.3,0,1.95l.71,20.19c.76,21.49-1.95,39,19.8,38.34l9.64-.3q2-.06,4.26-.33l-.69,19-37.81.22a17.16,17.16,0,0,0-3.15.31,25.13,25.13,0,0,0-21.3,14.39l-29.12,62.27,8.84,4.14L633.3,672.19l-63.58,55.28c-10.52-.43-21.35,5.51-26.89,15.77l-1.72,3.18L529.06,754a15,15,0,0,0-5,20h0a15.4,15.4,0,0,0,4.13,4.77,23.38,23.38,0,0,0,13.51,20.28l82.76,28.59-4.58,1-19.53-2.51-17.76,41.5c23.51,1.06,39.14-10.41,39.14-10.41l34.82-6.41,1.48,8.47,35.61-7.73L749.91,871l3.43-7,26.75,4.92a67.83,67.83,0,0,0,37,3.77l-23-38.87-19,4.91-8.58-1.86.61-1.25,123.08-26.71c14.57-4.23,24-19,21.06-32.92ZM658.24,710.43,683,682.5l2.39,46.34c-13.69,2.62-37.69,2.55-59.63,1.7Z"/><path class="cls-19" d="M503.16,838.29c-5.59-6-19.4-16.74-29-22.51-6.85-4.14-18.15-6.57-29.87-7.87a15.34,15.34,0,0,0-8.61-5.8c-.41-.1-.84-.16-1.27-.22,0-.87,0-1.72,0-2.53-.17-4.51-1.68-8.47-3-12q-.31-.81-.6-1.59a27.25,27.25,0,0,0-2.89-6.22,6.1,6.1,0,0,0-5.2-2.87l-32.38,1.44c19.79-37.39-9-81.1-15.81-100.74-6.86-19.87,15.07-37,15.07-37-31.92-5.71-33,50.83-30.75,85.83-2.52-20.09-7-45.83-14.09-55.69-12.33-17.13,2.36-67.82-1.07-65.08S320,628,323.42,648.51c3.37,20.23,3.78,43.9-11.24,58a.48.48,0,0,0-.09-.11s-.1-.05-.14-.08c3.89-7.6,6.95-30.92,5.69-28.26-4.25,8.91-7.74,5-15.27,18,12.59-35-17.76-79.28-15.57-66.66s14.84,50.07-1.6,75.42c-12,18.48-13.21,42.28-6.44,63.46l-3.18-.65-5.5,5.5,11.7,3.21.14.32H252.1a11.41,11.41,0,0,0-2.66.31c-4.63,1.08-8.42,4.84-10.39,10.31-1.34,3.73-1.51,8.17-1.68,12.45V800c0,.65,0,1.26,0,1.89l-1.81-.08c-3.7,0-5.75,2.64-7.3,6-12.25,1.26-24.21,3.72-31.36,8-9.56,5.77-23.36,16.5-29,22.51-1.87,2-2.48,3.68-2.44,5a11.06,11.06,0,0,0-5.56,4.57c-3.3,6-3.87,21.86,3.41,25.26l.34.37.49.09c14.36,2.74,40.39,7.15,60.35,9.93a35,35,0,0,0,4.9.32,50.29,50.29,0,0,0,11.73-1.47c5.71,1,11.35,1.85,16,2.45a331.25,331.25,0,0,0,37.86,2.8c5.12,0,9.12-.29,11.2-1s4.17-2.48,6-4.86c5.23,1.56,13.34,3.27,26,5,18.28,2.49,37.18,3.72,42.71,3.28.72-.06,1.45-.14,2.17-.24a44.93,44.93,0,0,0,16.76-5.78,27.91,27.91,0,0,0,6.19-5,24.87,24.87,0,0,0,4.6,2.9,38.75,38.75,0,0,0,16.63,3.64c.72,0,1.44,0,2.15-.06,5.46-.31,24.11-4.25,42.11-9.4,34.55-9.87,34.82-14.83,34.91-16.45.48-8.64,0-13.72-.84-16.69A7.73,7.73,0,0,0,503.16,838.29ZM160.37,859.81c0-.11,0-.23,0-.33C160.34,859.58,160.36,859.7,160.37,859.81Zm-.07-.72q0-.26.06-.45Q160.34,858.84,160.3,859.09Zm85.35-76.68c.21-.19.4-.38.61-.55C246.05,782,245.86,782.22,245.65,782.41Zm1.13-.92c.21-.15.42-.3.64-.44C247.2,781.19,247,781.34,246.78,781.49Zm1.21-.74c.22-.11.44-.23.66-.32C248.43,780.52,248.21,780.64,248,780.75Zm-6.8,98.57h0Zm256.05-42.6a187.91,187.91,0,0,0-24.59-18.37,33.79,33.79,0,0,0-5.42-2.56,33,33,0,0,1,5.42,2.56A187,187,0,0,1,497.24,836.72Zm-30.1-21h0ZM249.78,780h0l-.52.16Zm-4.6,2.82c-.19.19-.36.41-.54.63C244.82,783.26,245,783,245.18,782.85Zm-1.87,2.46c-.15.25-.29.53-.43.8C243,785.84,243.16,785.56,243.31,785.31Zm.88-1.31c-.16.22-.32.46-.47.7C243.87,784.46,244,784.22,244.19,784Zm-1.66,2.76c-.23.5-.45,1-.65,1.58C242.08,787.79,242.3,787.26,242.53,786.76Zm-2.17,13.32c0,.63,0,1.27,0,1.9h0C240.32,801.35,240.34,800.71,240.36,800.08Zm-41.94,18.27c6.41-3.87,17.22-6.16,28.5-7.42h0c-11.28,1.25-22.09,3.54-28.5,7.41a190.61,190.61,0,0,0-21.88,16A188.25,188.25,0,0,1,198.42,818.35Zm-35.36,30.9.19-.38q2.22-.95,4.48-1.86h0c-1.5.61-3,1.23-4.48,1.86l-.19.38c-.36.73-.7,1.42-.78,1.62l-.11.33c.06-.2.11-.33.11-.33C162.36,850.67,162.7,850,163.06,849.25Zm-1.52,3.82c-.22.64-.4,1.12-.56,1.49C161.14,854.2,161.32,853.72,161.54,853.07Zm63.39,27.49c-6.22-.86-13-1.89-19.87-3,6.85,1.08,13.65,2.11,19.86,3a37.18,37.18,0,0,0,8.13.17h0A37.15,37.15,0,0,1,224.93,880.56Zm22.56-.15h0q4.75.76,10,1.44c10.95,1.4,22.19,2.32,31.13,2.64-8.94-.32-20.18-1.23-31.13-2.64C254,881.41,250.67,880.92,247.49,880.41Zm54,4a18.73,18.73,0,0,0,3.79-.59,5.18,5.18,0,0,0,.65-.26,5.87,5.87,0,0,1-.65.26A18.15,18.15,0,0,1,301.5,884.41ZM381,887.18c-4.45.36-18-.42-32.75-2.1,14.79,1.67,28.3,2.46,32.74,2.09a42.05,42.05,0,0,0,10.36-2.25A42.59,42.59,0,0,1,381,887.18Zm48.2-4.67a37.88,37.88,0,0,1-10.23-.87,37.88,37.88,0,0,0,10.23.87c4.38-.25,17.64-2.94,32.16-6.74C446.88,879.57,433.62,882.26,429.24,882.51Z"/><path class="cls-20" d="M257.23,672.05c1.11,3.67,1.28,7.62,2.79,11.15a16,16,0,0,0,8.37,8.25c1.3.57,4.4,1.89,5.81,1.22,2-.93-.9-3.92-1.64-5.12-1.93-3.15-2.74-6.85-4.34-10.18-3.41-7.13-17.07-13.28-18.44-13.28S256.12,668.37,257.23,672.05Z"/><path class="cls-21" d="M402.29,769.29c1.32.28,3.68-1.46,4.66-2.2a13.92,13.92,0,0,0,5.41-8.64c.57-3.28-.08-6.65.12-10s4.7-8.2,4.7-8.2c-6,1.45-11.46,8.2-12.91,14.89-.68,3.14-.62,6.42-1.62,9.47C402.27,765.8,400.44,768.9,402.29,769.29Z"/><path class="cls-22" d="M252.46,741.34c.64,2.16.74,4.45,1.48,6.58,1,3,4,6.61,7.31,7.26,1.13-2.69-.65-7.42-1.84-9.89a20.09,20.09,0,0,0-6.47-7.73c-1.37-1-3.1-1.78-4.67-1.2C250.46,737,251.83,739.18,252.46,741.34Z"/><path class="cls-23" d="M355.44,619.26c-.09-2.25-.82-4.43-1-6.67s.44-3.47,2.11-6.15-6.89,9-7.16,12.35c-.21,2.74-.15,7.79,1.88,9.89C354.15,626.86,355.56,622.45,355.44,619.26Z"/><path class="cls-24" d="M997.07,882.57a89.26,89.26,0,0,0,26.21-37.18,62.55,62.55,0,0,0-30.93,24.07,38.64,38.64,0,0,0-6.47-24v0a38.63,38.63,0,0,0-6.46,24,62.62,62.62,0,0,0-30.94-24.07,89.44,89.44,0,0,0,26.21,37.18,132.24,132.24,0,0,0-45.34-26.26,64.76,64.76,0,0,0,47.34,32.83h18.39a64.8,64.8,0,0,0,47.35-32.83A132.19,132.19,0,0,0,997.07,882.57Zm-11.19-.6,0-.07,0-.08,0,.08A.14.14,0,0,0,985.88,882Z"/></g></g></g></svg>