<?xml version="1.0" encoding="utf-8"?>
<!-- Generator: Adobe Illustrator 18.0.0, SVG Export Plug-In . SVG Version: 6.00 Build 0)  -->
<!DOCTYPE svg PUBLIC "-//W3C//DTD SVG 1.1//EN" "http://www.w3.org/Graphics/SVG/1.1/DTD/svg11.dtd">
<svg version="1.1" xmlns="http://www.w3.org/2000/svg" xmlns:xlink="http://www.w3.org/1999/xlink" x="0px" y="0px" width="595.3px"
	 height="595.3px" viewBox="0 0 595.3 595.3" enable-background="new 0 0 595.3 595.3" xml:space="preserve">
<g id="Layer_1">
	<path fill="#3A154F" d="M567.4,255.7c-12.3-13.6-28.6-28.2-29.2-47.9c-0.4-12.3,6.1-23.8,11.2-34.6c5.1-11,9.6-22.5,8.7-34.9
		c-1.9-25.5-25.1-42.8-47.4-50.6c-26.8-9.4-56.5-8-81.8-21.9C418,59.7,409.3,51,404.9,39.4c-4.4-11.7-7.2-24-19.2-30.2
		c-10.6-5.4-23.8-3.3-34.3,1.2c-12.5,5.4-22.8,15-35.5,20c-12.6,4.9-26.5,2.8-39.4,0.3c-13-2.5-26-5.7-39.3-5.3
		c-21.5,0.7-37.4,13.7-49.9,30c-12,15.6-20.6,33.7-33.9,48.3c-6.6,7.2-14.4,12.8-23.6,15.9c-12.7,4.2-26.9,4-38.3,11.8
		c-8.3,5.6-14,16.4-13,26.5c1.2,11.5,10.9,16.1,21.2,17.7c4,0.6,9.8,0.7,12.2,4.6c3.5,5.8-7.9,11-11.7,11.8
		c-6.2,1.5-12.6,1.6-18.7,3.5c-5.8,1.8-10.3,5.6-13.7,10.5c-6.2,8.9-5.3,21.6-5.5,31.9c-0.1,5.6-0.4,11-1.8,16.4
		c-1.7,6.4-5.8,12.1-10.1,17.2c-8.5,10.1-18.6,18.4-25.7,29.7c-6.6,10.6-10.3,24.6-4.6,36.4c5.5,11.5,18,18,20.7,30.9
		c2.8,13.7-6.6,28.4-12,40.3c-5.2,11.5-9,24.1-6.6,36.8c2.3,12.5,12.8,20,23.9,24.3c11.3,4.4,23.6,5.6,32.4,14.9
		c4.3,4.6,4.3,10.1,1.8,15.6c-2.8,6.3-5.8,11.8-5.6,18.9c0.5,12.7,10.7,22.9,21.6,27.8c13.3,5.9,28.8,6,43.1,7.4
		c57.9,5.6,117.3,9.9,174.4-3.7c7.8-0.7,15.5-1.6,23.3-2.6c16.1-2.1,32.1-4.6,48-7.5c11.7-2.2,24.2-5.5,32.1-15.1
		c7.9-9.6,7.3-23,16.5-31.9c7.6-7.4,19-10.2,29.1-12.2c11-2.1,22.2-2.4,33.2-4.3c10.7-1.9,21.4-5.6,30.6-11.5
		c8.5-5.5,15.2-13.6,17.5-23.5c2.9-12.9-4.4-24.6-4.3-37.3c0.1-18.6,15.2-34.4,26.3-47.8c12.2-14.7,24.7-30.3,26.2-50.1
		C593.7,286.7,580.2,269.8,567.4,255.7z"/>
	<g>
		<path fill="#EAEAEA" d="M391.7,292.7c-2.9,1.9-4.5,5.1-6.1,8.1c2.7-3,5.4-5.9,8.1-8.9C393,292.1,392.3,292.3,391.7,292.7z"/>
		<path fill="#EAEAEA" d="M400.9,293.1c-6.6,6.1-13.1,12.6-19.9,18.3c-0.3,0.3-0.7-0.1-0.4-0.4c5.6-6.5,11.8-12.6,17.8-18.8
			c-0.5-0.1-1-0.2-1.4-0.2c-0.1,0.1-0.1,0.2-0.2,0.3c-4.3,3.9-8.5,7.8-12.6,11.7c-1.5,2.9-3,5.7-4.5,8.6c0.7,0.7,1.2,1.4,1.6,2.2
			c1.9-2,4.2-3.7,6.1-5.5c2.1-2,4.2-4,6.2-6c3.2-3.3,6.4-6.7,9.4-10.2c-0.5-0.1-1.1-0.2-1.6-0.3C401.1,292.8,401,292.9,400.9,293.1z
			"/>
		<path fill="#EAEAEA" d="M406.8,92.2c-33.3-10.6-69.3-9.2-102,3.2c-15.1,5.7-29.6,13.6-42.2,23.7c-12.6,10.7-23,23.8-29.9,39
			c-14.5,31.8-11.9,70.2,3.4,101.3c16,32.4,45,56.3,79.2,67.5c33,10.7,68.9,10.2,101.1-3c30-12.2,56.7-34.6,70.6-64.2
			c14.8-31.5,13.2-68.9-1.8-100C469.6,127.2,441.1,103.2,406.8,92.2z M252.5,170.9c-0.8,2.3-2.2,4.2-4.6,5.3c-2.8,1.2-6.8,1.3-9,3.6
			c-4.6,5.1-4.2,13.4-1.5,19.4c5.1-1.7,11.4,1.8,13.7,6.3c0.2,0.4-0.2,0.8-0.6,0.6c-2-1.2-4.5-2.2-6.9-2.6c-2.2-0.4-4.3,0.2-6.5,0
			c-0.3,0-0.5-0.1-0.8-0.2c-0.8,0.1-1.7-0.2-2.1-1c-3.8-6.5-4.8-15.1-1.3-22c1.7-3.4,4.4-6,8.2-6.8c3.4-0.7,8.3-0.1,10.7-2.9
			C252.1,170.3,252.6,170.6,252.5,170.9z M236.6,191c-0.4-1.3,0-3.2,0.3-4.5c0.3-1.4,0.8-2.8,1.3-4.2c0.2-0.5,0.5-0.7,0.9-0.9
			c0.7-0.8,2.4-0.7,3.1,0.3c3.5,5,1.2,11.2-2.3,15.3c-0.2,0.2-0.6,0-0.5-0.3c0.3-1.1,0.5-2.2,0.5-3.2
			C238.5,193.6,237.2,192.7,236.6,191z M433.5,299.7c-0.8,2.2-2.3,3.3-4.2,4.4c1,0.6,2,1.3,3,1.7c2.3,0.8,0,4-1.5,2
			c-0.9-1.2-2.4-2.2-3.5-3.2c-0.4-0.3-0.3-1,0.2-1.2c1.1-0.5,2.6-1.1,3.4-2c1.1-2.8,0.6-4.4-1.3-4.7c-2.2-0.6-4.4-1.3-6.5-1.9
			c-4.1-1.2-8.2-2.2-12.3-3.4c-1.4,1-3,1.7-4.6,1.9c-3.9,4.3-8,8.4-12.3,12.3c-3.8,3.4-7.8,7.8-12.3,10.4c1.3,3.7-0.3,7.8-4.7,9.9
			c-0.8,0.4-1.4-0.7-0.7-1.2c3.5-2.3,3.5-7.5,0.2-10c-0.8-0.6-1.2-1.6-0.7-2.5c2.3-4.2,4.8-8.3,7.2-12.5c1.5-2.7,3-6.1,5.5-8.2
			c2.8-2.3,5.8-2.9,9.4-2.5c3.7,0.4,8.3,2.2,11.5-0.7c1.2-1.1,2.9,0,4.2,0.4c2.2,0.7,4.3,1.4,6.5,2.2c3.5,1.3,8.2,1.8,11.5,3.7
			C433,295.5,434.3,297.6,433.5,299.7z M435.6,139.3c-3.8-3.7-6-7.8-7.7-12.8c-0.2-0.7,0.7-0.9,1.1-0.4c1.2,1.5,2.5,3.1,3.9,4.5
			c0.2-0.4,0.5-0.9,0.8-1.3c0.5-0.6,1.8-1,2.6-0.7c5.6,2.3,10.7,5.9,14.7,10.5c1.4,1.6,2.8,3.3,2.1,5.6c-0.5,1.9-2.4,2.6-4.2,2.7
			c-2.4,0-5.3-1.9-7.2-3.2C439.6,142.7,437.5,141.1,435.6,139.3z M466.2,234.9c0.6,0,1.4,0.5,1.7,1c3,6.9,3.3,15.5-1,22
			c-1.8,2.8-4.3,5.2-7.7,5.8c-3.6,0.6-9.4-0.9-12.3,1.8c-0.3,0.3-0.7-0.1-0.5-0.4c1-2.1,2.3-3.5,4.5-4.4c2.9-1.2,6.8-0.6,9.4-2.5
			c5.9-4.1,6.2-13.1,4.3-19.5c-2.5,0.5-5.7-0.6-7.7-1.8c-2.6-1.5-4.2-3.4-5.2-6.2c-0.1-0.4,0.3-0.7,0.7-0.5c1.9,1.4,4.4,2.8,6.7,3.5
			c2.2,0.6,4.4,0.3,6.6,0.8C465.8,234.7,466,234.8,466.2,234.9z M464.4,246.9c0.5,2.7-1.2,6.3-2.5,8.5c-0.4,0.6-0.8,0.9-1.3,1
			c-0.8,0.6-2.1,0.6-2.7-0.5c-3.1-5.4-0.1-11.4,4-15.1c0.3-0.2,0.6,0.1,0.5,0.4c-0.4,1-0.7,2.1-0.9,3.1
			C462.8,244.2,464,245.2,464.4,246.9z M462.2,147c0.6,0.7,0.8,1.7,0.1,2.7c-2.7,3.7-4.1,8.9-2,13.4c0.2,0.4-0.2,0.9-0.6,0.6
			c-5.3-3.8-6.5-11.6-1.8-16.5c0,0,0,0,0-0.1c-2.2-6.7-6.8-12.7-12.4-17c-5.5-4.3-11.7-6.4-18.4-8.1c-0.3-0.1-0.5-0.2-0.7-0.3
			c-4.8,2.3-12.8,4.5-17,0.2c-0.2-0.2-0.1-0.6,0.2-0.7c2.5-0.8,5.2-0.4,7.8-0.9c2.6-0.5,5-1.2,7.3-2.4c0.9-0.5,1.8-0.3,2.4,0.3
			c0.2-0.1,0.4-0.1,0.6-0.1c16.1-0.1,29.7,13.6,34.4,28C462.3,146.3,462.3,146.7,462.2,147z"/>
		<g>
			<path fill="#BFBFC2" d="M481.7,148.6c-4.9-8.5-11.1-15.8-17.9-22.5c-3.1-3.9-6.5-7.4-10.8-9.9c-6.2-5.3-12.6-10.4-18.8-15.6
				c-0.2-0.2-0.4,0.1-0.3,0.3c3,3.8,6.1,7.6,9.1,11.4c0.2,0.2,0.4,0.5,0.6,0.8c-4.2-0.4-8.3,0.5-12.2,2.2c-0.7,0.3-8.6,4-7,5.5
				c1.3,1.1,3.5,0.7,5.4,0.2c-0.1,0.2-0.1,0.5-0.2,0.7c-1.3,1.2-2.1,2.8-2.2,5.1c-0.2,4.9,2.3,9,5.6,12.4
				c6.2,6.4,15.1,9.7,23.8,11.2c-0.4,1.5-0.7,3-0.7,4.5c0,4.4,1.6,7.1,3.6,10.7c0.6,1,1.9,0.7,2.3-0.3c1-2.7,3.2-5,4.5-7.6
				c0.6-1.3,1.3-2.7,2.1-3.9c3.7,7.1,6.6,14.6,8.7,22.4c-0.4,0.4-0.8,0.8-1.2,1.1c-2.3,1.7-3.7,1.2-6.2,0.8
				c-3.8-0.7-6.9,1.6-7.2,5.5c-0.3,3.3,0.5,6.4,1.7,9.4c0.7,1.7,1.9,4.2,1.6,5.7c0,0.1,0,0.3-0.1,0.4c-1.8,1-2.8,2.8-3.2,4.7
				c-1,3.9,1.1,7.9,4.3,10c4.9,3.2,10.8,1.9,14.3-2.3c-0.4,12.5-3,24.5-7.4,35.7c-1.1-3.2-2.6-6.4-3.8-9.6c-0.1-0.3-0.3-0.5-0.5-0.6
				c-1.9-3-6.2-4.2-9.7-1.1c-6,5.2-11.2,12-8.7,20.3c0.7,2.3,2.1,3.9,3.9,4.9c-3.6,1-7,2.2-9,5.1c-0.5,0.7-0.1,1.6,0.5,2.1
				c4,2.8,9.6,3.2,14.7,2.3c-6.3,8.9-13.9,17-22.7,24c-1.7,1.4-3.4,2.6-5.2,3.9c-0.3-1.3-1-2.5-1.9-3.4c-2.6-2.6-6-2.5-8.8-0.8
				c-1.9-1.3-4.1-1.7-6.2-1.2c0,0-0.1-0.1-0.1-0.1c-1.2-1.2-3.3-2.8-5-3.1c-3.4-0.6-6.5-0.4-9.3,1.7c-0.2,0.2-0.5,0.4-0.7,0.6
				c-2.5-1.7-5.7-2.6-8.7-1.6c-7.3,2.4-9.4,9-12,15.5c-1.4,3.5-2.8,6.6-3,10.4c0,0.4,0,0.9,0,1.3c-10.8,1-21.7,0.7-32.3-0.7
				c4.5-2.1,7.4-6.6,7.9-11.6c0.6-5.9-2.5-11.3-6.3-15.5c-5.9-6.5-15.8-9.1-22.6-12.4c-1.8-0.8-3.5-1.8-5.1-2.9
				c-0.3-0.2-0.4-0.3-0.6-0.4c-0.1-0.1-0.2-0.3-0.7-0.7c0.1,0.1-1.6-1.7-1.3-1.3c-2.3-3.1-1.7-5.7-2.5-10.3
				c-2.3-12.2-16.5-15.7-25.9-9.2c-4.2,3-7.3,7.2-10.4,11.2c-3.3,4.3-6,8.8-7.1,14.2c-0.7,3.1-0.8,6.3-0.2,9.4
				c-2.8-1.6-5.4-3.3-8-5.4c-6.7-5.4-12.2-13-16.9-20.2c-7.6-11.6-14.4-24.9-18-38.3c-1.9-7-4.1-13.9-4.4-21.1
				c-0.3-7.3,0.4-14.6,1.8-21.7c0.3-1.7-2.3-2.5-2.7-0.7c-1.6,8.4-2.1,17.1-1.9,25.6c0.1,4.2-0.2,8.4-0.1,12.6
				c0.1,4.5,1.5,9,2.2,13.4c3,17.7,12.2,33.9,23.2,47.7c5.6,7,12,13.4,17.8,20.3c5.9,7,14.7,12.5,22.7,16.8
				c16.6,8.9,34.8,14.5,53.4,17.1c20.7,2.9,41.8,2.4,62.2-2.5c18.1-4.3,34.6-13,49.1-24.4c29.3-23,46.4-58.6,47.1-95.7
				C498.4,189.3,492.6,167.6,481.7,148.6z M465.9,199.2C465.7,200.3,465.8,199.5,465.9,199.2L465.9,199.2z M292.3,299.8
				c0.2,0.2,0.3,0.5,0.5,0.7c-0.1,0-0.2-0.1-0.3-0.1C292.4,300.2,292.3,300,292.3,299.8z M299.4,266.7c-0.4,0.1-0.6,0.2-0.9,0
				C298.6,266.6,298.3,266.9,299.4,266.7z M423.6,295.1c-0.1-0.1-0.2-0.2-0.3-0.2C423.4,294.9,423.5,295,423.6,295.1z M422.4,294.7
				c-0.2,0.2-0.5,0.3-0.7,0.5C422,295,422.2,294.8,422.4,294.7z M397.5,305.2C398.2,304,398.2,304.7,397.5,305.2L397.5,305.2z"/>
			<path fill="#BFBFC2" d="M236.7,210.1c4.8-1.1,9.7,0,14.5-0.2c0.7,0,1.3-0.7,1.1-1.4c-1.7-6.3-7.9-8.4-13.9-8.5
				c-3.7-7.7-8.8-19.7,1.8-23.4c1.4-0.5,1.2-2.6-0.4-2.6c-6.4-0.2-10.4,4.4-12.9,9.8c-3.8,8,0.1,16.9,4,24
				C232.1,209.9,234.6,210.7,236.7,210.1z"/>
			<path fill="#BFBFC2" d="M242.7,176c0.2,0,0.2-0.3,0-0.3C242.5,175.7,242.5,176,242.7,176z"/>
			<path fill="#BFBFC2" d="M281.6,104.7c1.1,0.1,2.2,0.5,3.3,0.9c-0.4,5.8,3.9,10.9,8.6,14.5c7.2,5.5,17.6,7.8,26.5,6.3
				c8.5-1.4,15-10.2,13.2-18.7c-0.8-4-3.4-7.3-6.9-9.3c-2.1-1.2-4.6-1.5-6.9-1.5c-1.1,0-2.3,0.3-3.3,0.4c0,0-0.1,0-0.1,0
				c-3.5-3.2-9.1-1.6-11.5,2.1c-2.2,3.4-5.9-0.5-8.6-1.6c-2.7-1.1-5.2,0-6.8,2c-0.6,0-1.1,0.2-1.7,0.4c-1.7,0.8-3.9,1.7-5.8,1.9
				C280,102.3,280,104.5,281.6,104.7z M315.4,97.4C315.1,97.4,315.1,97.4,315.4,97.4L315.4,97.4z"/>
			<path fill="#BFBFC2" d="M378.4,277.7c9.5-3.4,17.1-9.9,27.6-9.2c4.2,0.3,9,0,12.2-3.1c3.2-3.1,3.7-7.7,6.7-10.9
				c1.9-2,4.5-3.4,6.7-5.1c2.7-2,4.9-4.2,7-6.8c3.8-5,6.1-11,7.8-17c3.5-12.2,8.5-30.2-0.9-41c-4.5-5.1-10.5-6.9-16.8-4.3
				c-5.8,2.4-6.9,9.8-6.6,15.3c0.2,4,1,7.7,1.1,11.6c-1.5,3.2-3.7,6.1-6.5,8.6c-2,1.8-4.3,3-6.7,3.9c-1,0.2-2,0.5-2.9,1
				c-4.5,1.4-9.3,2.3-13.4,4.6c-7.7,4.3-8.2,14.4-16,18.4c-3.5,1.8-7.8,2.4-11.5,3.5c-4,1.2-7.7,3.1-10.9,5.8
				c-6.7,5.4-6.7,14.5-1.4,20.7C359.9,280.9,370.4,280.6,378.4,277.7z"/>
			<path fill="#BFBFC2" d="M287.5,191.9c0,2-3,4.4-4.1,5.9c-3.5,4.6-1.3,10.8,2.3,14.5c3.1,3.2,7.5,4.1,11.9,4.2
				c0.1,0.2,0.2,0.4,0.3,0.6c1.2,2.6,5.1,2.8,6.9,0.9c1.7-1.8,1.5,0.6,0.9,1.8c-1.1,2.1-2.2,3.9-2.5,6.3c-0.6,4.6,2.6,8.1,6.9,9.3
				c4.5,1.3,9.1-1.4,11.7-5c3-4.1,3.7-9.2,6.6-13.3c3.2-4.5,5.6-8.4,5.1-14.1c-0.5-5.5-3.3-10.5-6.1-15c-4.8-7.7-9.8-15.2-16.7-21
				c1.9-8-3.7-16.9-12.2-18c-11.7-1.6-20.4,8.6-20.3,19.7c0,5.8,2.7,11,6,15.6C285.7,186.5,287.4,188.9,287.5,191.9z M316.9,188.2
				C316.9,188.2,316.9,188.2,316.9,188.2C316.9,188.2,316.9,188.2,316.9,188.2C316.9,188.2,316.9,188.2,316.9,188.2z"/>
			<path fill="#BFBFC2" d="M231.2,160c0.3-7.8,11.3-2.5,15.5-2c4.9,0.7,9.8-0.7,13.1-4.5c2.7-3.1,3.8-7.1,4.7-11.1
				c0.7-3,1-6.6,3.5-8.7c3.3-2.9,1.6-8.8-2.6-9.8c-4.9-1.2-9.3,0.5-12.6,3.7c-3.1-2-8.2-1.3-8.9,3c-0.8,4.8-3,9.1-7.1,12
				c-2.4,1.7-3.8,5.2-2.3,7.8c-3.9,2-7,5.3-6,10C228.9,161.9,231.1,161.5,231.2,160z M243,143.3C242.9,143.3,243,143.3,243,143.3
				L243,143.3z"/>
			<path fill="#BFBFC2" d="M358.9,86.2c7.2-1.5,7.7,7.2,8.9,11.8c0.6,2.1,1.1,4.3,1.2,6.5c0.2,2.2-0.5,2.9-2.3,4.1
				c-5.5,3.8-6.2,9.1-5.3,15.3c0.8,5.6,0,11.4-2.3,16.5c-1.6,3.5-0.4,7.9,3.7,9c5.1,1.4,10.5,1.9,15.7,1.1c5.4-0.7,12.2-2.1,14.2-8
				c1.7-5.3-1.4-10.5-6.1-13c-1.4-0.7-3.3-1-4.9-1.6c0-0.1,0-0.2,0-0.2c0.8-1.2,1.5-2.7,2-4.1c1.3-3.8,0.8-8.5,2.8-12
				c0.8-1.5,2.9-2.6,4-3.9c1.9-2.2,2.7-4.5,3-7.4c0.4-4.3-3.1-7.7-6.3-9.9c-1.1-0.7-2.2-1.3-3.3-1.9c-0.8-1.5-1.9-2.9-3.1-4.2
				c-2.9-3.1-8.1-1.9-10,1.4c-3.6-2.9-8.1-4.1-13-2C356.4,84.5,357.5,86.5,358.9,86.2z"/>
		</g>
		<path fill="#3A154F" d="M369.9,78.8C342.2,77,312,82.9,287.3,96c-18.7,8.7-35.5,21.7-48,38.2c-20.9,27.5-27,62.4-20.4,95.9
			c6.9,34.9,28,65.4,57.3,85.3c29.2,19.9,66.1,28.8,101.3,25.3c32.5-3.3,63.7-17.6,87.4-40c24.2-22.8,38.8-54,39.1-87.3
			c0.3-34.6-14.4-69-38.7-93.5C440.1,94.8,405.1,81,369.9,78.8z M487,259.7c-13.9,29.6-40.6,52-70.6,64.2
			c-32.2,13.2-68.1,13.7-101.1,3C281,315.7,252,291.8,236,259.4c-15.3-31.1-17.9-69.4-3.4-101.3c7-15.3,17.4-28.3,29.9-39
			c12.6-10,27.1-17.9,42.2-23.7c32.7-12.4,68.7-13.8,102-3.2c34.3,10.9,62.8,35,78.4,67.4C500.2,190.8,501.8,228.2,487,259.7z"/>
		<path fill="#3A154F" d="M251.9,170.6c-2.4,2.8-7.4,2.2-10.7,2.9c-3.8,0.8-6.4,3.4-8.2,6.8c-3.5,6.9-2.5,15.5,1.3,22
			c0.4,0.8,1.3,1.1,2.1,1c0.2,0.1,0.5,0.2,0.8,0.2c2.2,0.2,4.3-0.4,6.5,0c2.3,0.4,4.8,1.4,6.9,2.6c0.4,0.2,0.8-0.2,0.6-0.6
			c-2.3-4.5-8.7-8-13.7-6.3c-2.7-6-3.1-14.3,1.5-19.4c2.1-2.3,6.2-2.4,9-3.6c2.3-1,3.8-2.9,4.6-5.3
			C252.6,170.6,252.1,170.3,251.9,170.6z"/>
		<path fill="#3A154F" d="M239.9,196.9c3.6-4.1,5.9-10.3,2.3-15.3c-0.7-1-2.3-1.1-3.1-0.3c-0.4,0.2-0.7,0.4-0.9,0.9
			c-0.6,1.4-1,2.7-1.3,4.2c-0.3,1.3-0.7,3.2-0.3,4.5c0.6,1.7,1.9,2.7,3.3,2.4c-0.1,1.1-0.2,2.2-0.5,3.2
			C239.3,196.9,239.7,197.2,239.9,196.9z"/>
		<path fill="#3A154F" d="M452.3,230.4c-0.3-0.2-0.8,0.2-0.7,0.5c1,2.8,2.6,4.7,5.2,6.2c2,1.2,5.2,2.2,7.7,1.8
			c1.9,6.4,1.6,15.4-4.3,19.5c-2.6,1.9-6.5,1.2-9.4,2.5c-2.2,0.9-3.5,2.3-4.5,4.4c-0.2,0.3,0.2,0.7,0.5,0.4
			c2.8-2.7,8.7-1.2,12.3-1.8c3.4-0.5,5.9-3,7.7-5.8c4.3-6.5,4-15.1,1-22c-0.2-0.6-1.1-1-1.7-1c-0.2-0.1-0.4-0.2-0.6-0.2
			c-2.2-0.5-4.4-0.2-6.6-0.8C456.6,233.2,454.2,231.8,452.3,230.4z"/>
		<path fill="#3A154F" d="M461.9,240.9c-4.1,3.7-7.1,9.7-4,15.1c0.6,1.1,1.9,1.1,2.7,0.5c0.5-0.1,1-0.4,1.3-1c1.3-2.2,3-5.8,2.5-8.5
			c-0.3-1.7-1.5-2.7-3-2.6c0.2-1,0.5-2.1,0.9-3.1C462.5,240.9,462.1,240.6,461.9,240.9z"/>
		<path fill="#3A154F" d="M427.7,117.9c-0.2,0-0.4,0-0.6,0.1c-0.6-0.5-1.5-0.7-2.4-0.3c-2.3,1.2-4.7,1.9-7.3,2.4
			c-2.6,0.5-5.3,0.1-7.8,0.9c-0.3,0.1-0.4,0.4-0.2,0.7c4.3,4.2,12.2,2.1,17-0.2c0.2,0.1,0.4,0.3,0.7,0.3c6.7,1.8,12.8,3.8,18.4,8.1
			c5.5,4.4,10.2,10.3,12.4,17c0,0,0,0,0,0.1c-4.7,4.9-3.6,12.7,1.8,16.5c0.4,0.3,0.8-0.2,0.6-0.6c-2.1-4.5-0.7-9.6,2-13.4
			c0.7-1,0.5-2-0.1-2.7c0.1-0.3,0.1-0.7-0.1-1.1C457.4,131.5,443.9,117.7,427.7,117.9z"/>
		<path fill="#3A154F" d="M453.1,144.6c0.6-2.3-0.7-4-2.1-5.6c-4-4.6-9.2-8.1-14.7-10.5c-0.8-0.3-2,0-2.6,0.7
			c-0.4,0.4-0.6,0.9-0.8,1.3c-1.4-1.5-2.7-3-3.9-4.5c-0.4-0.5-1.3-0.2-1.1,0.4c1.6,5.1,3.8,9.1,7.7,12.8c1.9,1.8,4,3.4,6.2,4.8
			c1.9,1.3,4.8,3.2,7.2,3.2C450.7,147.3,452.6,146.5,453.1,144.6z"/>
		<path fill="#3A154F" d="M431.3,294.5c-3.2-1.9-7.9-2.4-11.5-3.7c-2.1-0.8-4.3-1.5-6.5-2.2c-1.2-0.4-3-1.4-4.2-0.4
			c-3.2,2.9-7.8,1.1-11.5,0.7c-3.6-0.4-6.6,0.1-9.4,2.5c-2.5,2-4,5.4-5.5,8.2c-2.3,4.2-4.9,8.3-7.2,12.5c-0.5,0.9-0.2,1.9,0.7,2.5
			c3.4,2.4,3.4,7.7-0.2,10c-0.7,0.5-0.1,1.5,0.7,1.2c4.4-2.1,6-6.2,4.7-9.9c4.5-2.6,8.5-6.9,12.3-10.4c4.3-3.9,8.4-8,12.3-12.3
			c1.7-0.2,3.3-0.8,4.6-1.9c4.1,1.2,8.2,2.2,12.3,3.4c2.2,0.6,4.4,1.3,6.5,1.9c1.9,0.3,2.3,1.9,1.3,4.7c-0.8,0.9-2.3,1.5-3.4,2
			c-0.4,0.2-0.5,0.9-0.2,1.2c1.1,1,2.6,2,3.5,3.2c1.5,2,3.8-1.2,1.5-2c-1-0.4-2-1-3-1.7c1.9-1,3.4-2.2,4.2-4.4
			C434.3,297.6,433,295.5,431.3,294.5z M391.7,292.7c0.6-0.4,1.3-0.6,2-0.8c-2.7,3-5.4,6-8.1,8.9
			C387.2,297.8,388.8,294.6,391.7,292.7z M393.4,303.2c-2,2.1-4.1,4.1-6.2,6c-2,1.9-4.3,3.6-6.1,5.5c-0.4-0.8-0.9-1.5-1.6-2.2
			c1.5-2.9,3-5.7,4.5-8.6c4.2-4,8.4-7.9,12.6-11.7c0.1-0.1,0.2-0.2,0.2-0.3c0.5,0.1,1,0.1,1.4,0.2c-5.9,6.2-12.2,12.3-17.8,18.8
			c-0.3,0.3,0.1,0.7,0.4,0.4c6.9-5.8,13.3-12.2,19.9-18.3c0.1-0.1,0.2-0.3,0.3-0.4c0.5,0.1,1.1,0.2,1.6,0.3
			C399.7,296.4,396.6,299.8,393.4,303.2z"/>
	</g>
	<g>
		<path fill="#A2E6D3" d="M348.2,479.4c1.9-0.8,3.8-1.4,5.8-1.9c3.8-1.1,7.9-1.9,11.4-3.8c4-2.1,7.8-4.7,11.5-7.3
			c3.8-2.6,7.7-5,11.5-7.7c6.5-4.7,11.7-10.9,16.1-17.5c2.4-3.7,4.6-7.5,6.5-11.6c1.2-2.7,2.4-5.4,3.7-8c-0.5-1-1.1-2.1-1.7-3.1
			c-3-4.9-7.6-8.8-12.6-11.6c-10.2-5.8-22.5-7.1-33.9-4.5c-11.1,2.6-20.6,9.6-26.9,19c-6.2,9.2-8.6,20.5-6.9,31.4
			C334.3,463.1,340.1,472.9,348.2,479.4z"/>
		<path fill="#A2E6D3" d="M400,468.4c-0.1,0.1-0.1,0.1-0.2,0.2c-8.7,7.8-18.5,14-28.6,19.7c4.9,0.3,9.8-0.2,14.5-1.5
			c10.1-1.5,19-8.1,24.8-16.4c4.5-6.5,7-14.3,7.9-22.2C413,455.5,406.9,462.4,400,468.4z"/>
		<g>
			<path fill="#95C9CF" d="M358.6,469.1c9.9-3.6,18.8-9.4,26.5-16.5c7.7-7.1,14.1-15.7,18.7-25.1c2.3-4.7,4.4-9.7,4.3-14.9
				c-1.7-1.7-3.6-3.1-5.6-4.4c1.6,6.1-2.6,14.3-5.2,19.3c-4,7.7-9.4,14.6-15.7,20.7c-6.3,6.1-13.6,10.9-21.3,14.8
				c-4.5,2.3-9.4,4.5-14.5,4.9c-2.9,0.2-6.3-0.7-9-2.5c1,1.9,2.1,3.7,3.3,5.4C345.8,472.5,353.4,471,358.6,469.1z"/>
			<path fill="#95C9CF" d="M354,477.5c3.8-1.1,7.9-1.9,11.4-3.8c4-2.1,7.8-4.7,11.5-7.3c3.8-2.6,7.7-5,11.5-7.7
				c6.5-4.7,11.7-10.9,16.1-17.5c2.4-3.7,4.6-7.5,6.5-11.6c1.2-2.7,2.4-5.4,3.7-7.9c0-0.1,0-0.1,0-0.2c-0.5-1-1-2-1.6-3
				c-0.4-0.7-0.8-1.3-1.3-1.9c-0.6,7.5-3.9,14.7-7.9,21c-5.4,8.4-12.4,16-19.8,22.5c-7.3,6.4-15.6,11.8-24.8,15
				c-4,1.4-8.2,2.4-12.5,2.9c0.5,0.5,1,0.9,1.6,1.3C350.1,478.6,352,478,354,477.5z"/>
			<path fill="#95C9CF" d="M390,424.8c-5.9,11.2-13.9,21.6-23.5,29.9c-0.2,0.2,0.1,0.5,0.3,0.4c11.4-7.6,22.1-17.5,28.7-29.7
				c3.2-6,4.8-12.6,3.4-19.3c-2.3-1.2-4.6-2.1-7.1-2.9c0.5,1.1,1,2.2,1.3,3.4C395,412.8,392.9,419.2,390,424.8z"/>
			<path fill="#95C9CF" d="M352,476.1c8.9-1.3,17.1-6.2,22.6-13.3c0.1-0.2-0.1-0.3-0.3-0.2c-6.7,5.2-14.3,8.3-22.7,9.6
				c-3.5,0.5-7,0.5-10.5-0.1c1.2,1.6,2.5,3,3.9,4.4C347.3,476.6,349.7,476.4,352,476.1z"/>
			<path fill="#95C9CF" d="M351,464.3c4.1-1.4,7.2-4.1,10.8-6.5c0.2-0.1,0.1-0.5-0.2-0.4c-6.3,2.6-14.4,5.1-21,2.8
				c-2.9-1-5.3-3.4-7.5-5.5c0.6,2.8,1.5,5.5,2.6,8.2c1.1,0.7,2.3,1.3,3.7,1.8C343,466,347.3,465.5,351,464.3z"/>
		</g>
		<path fill="#FFC8C9" d="M430.4,403.3c-1.6-6.1-6.5-11-12.7-12.2c-6.2-1.2-12.3,1-18,3.3c-3.9,1.6-7.8,3.5-11.4,5.7
			c1.1,0.2,2.2,0.4,3.3,0.6c2.9,0.6,5.9,1.6,8.7,3c1.3-0.5,2.6-1,3.9-1.5c3.9-1.4,10.6-3.9,14.4-0.8c4.3,3.4,3.3,9.7,1.9,14.3
			c-5.8,20.1-20.6,37.6-36.9,49.9c-6.6,5-13.7,9.4-21.1,13.2c-3.4,1.7-7.5,3.7-10.5,5c-4.2,1.8-8.8,4-13.4,4.3c-0.5,0-1,0-1.6,0
			c-0.3,0-0.5,0-0.5,0c-0.3-0.1-0.6-0.1-1-0.2c0.1,0-1.5-0.5-1.1-0.3c-1.4-0.6-2.2-1.3-2.6-2.2c-1.3-3.3,0.9-8.3,2.1-11.8
			c0.4-1.2,0.8-2.3,1.3-3.4c-1.6-3-2.8-6.3-3.6-9.5c-0.3-1.2-0.6-2.4-0.8-3.6c-3.9,6-7,12.5-9.3,19.2c-2.2,6.4-1.5,13.8,3.7,18.5
			c5.1,4.6,12.1,5.2,18.6,3.8c5.9-1.2,11.6-4.1,17.1-6.6c4.9-2.3,9.7-4.9,14.4-7.7c9.5-5.7,18.4-12.6,26.3-20.3
			c7.8-7.6,14.6-16.4,19.9-26c2.7-4.9,5-10,6.8-15.2C430.6,416.3,432.1,409.7,430.4,403.3z"/>
	</g>
	<g>
		<path fill="#A2E6D3" d="M209.5,137.9c1.1-0.5,2.3-0.8,3.5-1.2c2.3-0.7,4.7-1.2,6.9-2.3c2.4-1.3,4.7-2.8,6.9-4.4
			c2.3-1.6,4.7-3,6.9-4.6c3.9-2.8,7.1-6.5,9.7-10.6c1.5-2.3,2.8-4.5,3.9-7c0.7-1.6,1.4-3.3,2.2-4.8c-0.3-0.6-0.6-1.2-1-1.8
			c-1.8-3-4.6-5.3-7.6-7c-6.1-3.5-13.6-4.3-20.4-2.7c-6.7,1.5-12.4,5.8-16.2,11.4c-3.7,5.5-5.2,12.4-4.2,18.9
			C201.1,128,204.6,133.9,209.5,137.9z"/>
		<path fill="#A2E6D3" d="M240.8,131.2c0,0-0.1,0.1-0.1,0.1c-5.3,4.7-11.2,8.4-17.2,11.9c2.9,0.2,5.9-0.1,8.7-0.9
			c6.1-0.9,11.5-4.9,15-9.9c2.7-3.9,4.2-8.6,4.8-13.4C248.6,123.5,244.9,127.6,240.8,131.2z"/>
		<g>
			<path fill="#95C9CF" d="M215.8,131.7c6-2.2,11.3-5.7,16-9.9c4.7-4.3,8.5-9.5,11.3-15.1c1.4-2.8,2.7-5.8,2.6-9
				c-1-1-2.2-1.9-3.4-2.7c0.9,3.7-1.6,8.6-3.2,11.6c-2.4,4.7-5.7,8.8-9.5,12.5c-3.8,3.7-8.2,6.6-12.9,8.9c-2.7,1.4-5.7,2.7-8.7,2.9
				c-1.8,0.1-3.8-0.4-5.4-1.5c0.6,1.1,1.2,2.2,2,3.3C208.1,133.7,212.6,132.8,215.8,131.7z"/>
			<path fill="#95C9CF" d="M213,136.7c2.3-0.7,4.7-1.2,6.9-2.3c2.4-1.3,4.7-2.8,6.9-4.4c2.3-1.6,4.7-3,6.9-4.6
				c3.9-2.8,7.1-6.5,9.7-10.6c1.5-2.3,2.8-4.5,3.9-7c0.7-1.6,1.4-3.2,2.2-4.8c0,0,0-0.1,0-0.1c-0.3-0.6-0.6-1.2-1-1.8
				c-0.2-0.4-0.5-0.8-0.8-1.1c-0.4,4.5-2.3,8.9-4.8,12.7c-3.2,5-7.5,9.6-12,13.6c-4.4,3.9-9.4,7.1-15,9.1c-2.4,0.9-5,1.4-7.5,1.7
				c0.3,0.3,0.6,0.5,0.9,0.8C210.6,137.4,211.8,137.1,213,136.7z"/>
			<path fill="#95C9CF" d="M234.7,104.9c-3.6,6.8-8.4,13-14.2,18c-0.1,0.1,0,0.3,0.2,0.2c6.9-4.6,13.3-10.5,17.3-17.9
				c1.9-3.6,2.9-7.6,2.1-11.7c-1.4-0.7-2.8-1.3-4.3-1.7c0.3,0.7,0.6,1.3,0.8,2C237.7,97.7,236.4,101.6,234.7,104.9z"/>
			<path fill="#95C9CF" d="M211.8,135.9c5.4-0.8,10.3-3.7,13.6-8c0.1-0.1-0.1-0.2-0.2-0.1c-4,3.2-8.6,5-13.7,5.8
				c-2.1,0.3-4.3,0.3-6.4-0.1c0.7,0.9,1.5,1.8,2.3,2.7C209,136.2,210.4,136.1,211.8,135.9z"/>
			<path fill="#95C9CF" d="M211.2,128.8c2.5-0.8,4.4-2.5,6.5-3.9c0.1-0.1,0-0.3-0.1-0.2c-3.8,1.6-8.7,3.1-12.7,1.7
				c-1.8-0.6-3.2-2-4.5-3.3c0.3,1.7,0.9,3.3,1.6,4.9c0.7,0.4,1.4,0.8,2.2,1.1C206.4,129.8,209,129.5,211.2,128.8z"/>
		</g>
		<path fill="#FFC8C9" d="M259.1,92c-1-3.7-3.9-6.6-7.7-7.3c-3.7-0.7-7.4,0.6-10.9,2c-2.3,1-4.7,2.1-6.9,3.4c0.7,0.1,1.3,0.2,2,0.4
			c1.8,0.4,3.6,1,5.2,1.8c0.8-0.3,1.6-0.6,2.4-0.9c2.4-0.8,6.4-2.4,8.7-0.5c2.6,2.1,2,5.9,1.2,8.6c-3.5,12.1-12.4,22.6-22.3,30.1
			c-4,3-8.3,5.6-12.7,7.9c-2,1.1-4.5,2.2-6.3,3c-2.5,1.1-5.3,2.4-8.1,2.6c-0.3,0-0.6,0-0.9,0c-0.2,0-0.3,0-0.3,0
			c-0.2,0-0.4-0.1-0.6-0.1c0,0-0.9-0.3-0.7-0.2c-0.8-0.4-1.3-0.8-1.5-1.3c-0.8-2,0.6-5,1.3-7.1c0.2-0.7,0.5-1.4,0.8-2.1
			c-1-1.8-1.7-3.8-2.2-5.7c-0.2-0.7-0.3-1.4-0.5-2.1c-2.4,3.6-4.2,7.5-5.6,11.6c-1.3,3.8-0.9,8.3,2.2,11.1c3.1,2.8,7.3,3.1,11.2,2.3
			c3.6-0.7,7-2.5,10.3-4c3-1.4,5.9-3,8.7-4.7c5.7-3.5,11.1-7.6,15.9-12.3c4.7-4.6,8.8-9.9,12-15.7c1.6-2.9,3-6,4.1-9.2
			C259.2,99.8,260.1,95.9,259.1,92z"/>
	</g>
	<g>
		<g>
			<g>
				<path fill="#EAEAEA" d="M220.9,168c1.1,0.1,2.2,0.3,3.3,0.6c0.2-1.5,0.8-2.9,1.7-4c-2.5-0.5-5-0.9-7.5-1.1
					c-0.7,0-1.5-0.1-2.2-0.1c-0.3,0.5-0.5,1.1-0.6,1.7c-0.2,0.9-0.1,1.8,0.2,2.7C217.6,167.7,219.3,167.8,220.9,168z"/>
				<path fill="#EAEAEA" d="M213.7,168c-0.1-1.2-0.1-2.5,0.5-3.5c0.2-0.3,0.4-0.7,0.6-1.1c-3.1,0-6.3,0.4-9.3,1.2
					c-0.4,1.9,0,3.8,1.5,5.1C209.1,168.9,211.4,168.3,213.7,168z"/>
				<path fill="#EAEAEA" d="M198.2,211c-2.9,0.9-6.2,0.4-8.9-1c-0.1,0.7-0.1,1.3-0.2,2c-0.4,2.1-0.9,4-1.6,6c2,1.7,4.4,2.9,7.1,3.3
					C196.3,218,197.7,214.6,198.2,211z"/>
				<path fill="#EAEAEA" d="M198.8,174.8c1.8-1.7,3.9-3.1,6.2-4.2c-1.1-1.6-1.6-3.7-1.1-5.5c-3.3,1-6.3,2.6-9,4.9
					c-0.3,0.3-0.6,0.5-0.9,0.8C194.9,172.7,196.7,174.1,198.8,174.8z"/>
				<path fill="#EAEAEA" d="M186.4,192.1c0.6,3,1.4,5.9,2,8.8c2.6,0.9,5.5,0.6,8.1-0.4c-0.9-2.5-2-4.9-2.7-7.4
					C191.3,194,188.6,193.6,186.4,192.1z"/>
				<path fill="#EAEAEA" d="M189.3,208.8c3,1,6.1,0.6,9-0.5c-0.1-2-0.5-3.9-1.1-5.7c-2.8,1.3-5.8,1.2-8.5-0.1
					C189.1,204.5,189.4,206.6,189.3,208.8z"/>
				<path fill="#EAEAEA" d="M190.5,180c1.5,0.7,2.7,0.7,4.1,0.7c0.7-1.6,1.6-3,2.7-4.3c-2.1-0.9-3.6-2.6-4.4-4.7
					c-1.9,1.9-3.5,4-4.8,6.3C188.8,178.9,189.6,179.5,190.5,180z"/>
				<path fill="#EAEAEA" d="M179.9,249.5c1.9-0.4,3.2-1.2,4.7-2.2c-0.1-2.1,0.1-4.1,0.5-6.2c-2.9,0.2-5.5-1.2-7-3.5
					c-1.5,3.7-2.4,7.6-2.2,11.6C177.2,249.5,178.5,249.8,179.9,249.5z"/>
				<path fill="#EAEAEA" d="M185.5,239.2C185.5,239.2,185.5,239.2,185.5,239.2c0.6-2.4,1.6-4.7,2.7-6.9c0.1-0.2,0.2-0.3,0.2-0.5
					c-2.5-0.1-4.7-1.7-5.7-3.9c-0.6,1.1-1.2,2.2-1.7,3.3c-0.9,1.7-1.7,3.4-2.5,5.2C180.2,238.5,182.8,239.4,185.5,239.2z"/>
				<path fill="#EAEAEA" d="M188,257.6c-1.3-1.8-2.3-3.8-2.8-6c-0.2-0.7-0.3-1.4-0.4-2c-2.4,1.7-6.1,2.6-8.8,1.7
					c0.1,0.6,0.2,1.1,0.3,1.7c0.8,3.2,2.2,6.1,4,8.6C183.4,261.3,186,260,188,257.6z"/>
				<path fill="#EAEAEA" d="M239.5,168.9c-3.7-1.5-7.4-2.9-11.3-3.9c-1.1,1.1-1.9,2.4-1.9,3.9c3.4,0.9,6.8,2.2,10,3.7
					C237,171.2,238.1,169.8,239.5,168.9z"/>
				<path fill="#EAEAEA" d="M186.1,190.2c2,1.5,4.8,1.9,7.4,1.2c-0.2-1.1-0.4-2.3-0.3-3.5c0-1.8,0.3-3.6,0.8-5.2
					c-2.4,0.1-4.8-1.6-6.3-3.7c-1.3,2.8-2,5.8-1.8,9C185.9,188.7,186,189.5,186.1,190.2z"/>
				<path fill="#EAEAEA" d="M189.3,230.3C189.3,230.3,189.3,230.3,189.3,230.3c1.3-2.3,2.7-4.6,4.1-7c-2.6-0.6-4.9-2.1-6.4-4.2
					c-1,2.6-2.3,5.1-3.6,7.6C184.4,229,186.8,230.5,189.3,230.3z"/>
				<path fill="#FD818F" d="M326.8,283c1.9,3.7,3.5,7.6,5,11.5c1.4-1.4,2.7-2.7,4.1-4.1C334.3,286,330.9,284.3,326.8,283z"/>
				<path fill="#FFE9CB" d="M361.6,286.5c6.1-7.2,9.6-16,11.2-25.3c0.9-5.4,1.3-11,1.2-16.5c0-1.4,0-2.9,0-4.6
					c-7.5,7.2-20.7,5.1-25.2-4.8c-12.2,6.3-28,3.7-37.7-6c-2.6,4.9-7,8.4-12.7,9.6c-5.7,1.2-11.1-0.8-15-4.7c-1.7,2.4-3.2,5-4.4,7.7
					c-2.9,6.8-4,14.3-4.4,21.6c-0.2,4.4-0.5,8.8-0.7,13.2c0.5,2.8,1,5.6,1.4,8.4c7.8,5,16.3,8.9,25.2,11.6c1.6,0.5,3.1,0.9,4.7,1.3
					c0.2-0.1,0.5-0.1,0.7-0.1C325.4,301.7,347.5,303.1,361.6,286.5z M334.4,271.2c1.9-0.9,3.8-1.8,5.7-2.6c-2.1-2.8-2.9-6.2-2.1-9.7
					c0.2-1,2-0.8,1.8,0.2c-0.4,3.5,0.7,6.7,3.3,9c0.6,0.5,0.5,1.7-0.3,2.1c-2.4,1.2-4.7,2.4-7.1,3.6
					C334.1,274.6,332.7,272.1,334.4,271.2z M346,285c-4.5,4.5-9.1,9.1-13.6,13.6c-0.9,0.9-2.3,0.4-2.7-0.7
					c-2.1-5.8-4.7-11.4-7.7-16.8c-0.8-1.5,0.7-2.8,1.9-2.6c2.6-0.6,6,1.2,8.5,1.7c4.1,0.9,8.3,1.6,12.5,2
					C346.2,282.3,347,283.9,346,285z"/>
				<path fill="#DE8194" d="M308.3,224.7c0.7-1.9,2.9-2.1,4.1-0.5c8.3,11.1,25,13.4,36.5,6c1.2-0.8,2.9,0,3.2,1.3
					c2.7,9.8,14.9,11.2,20.2,3.4c-0.8-0.4-1.6-0.7-2.4-1c-6.2-2.5-12.6-4.4-19-6c-6.9-1.6-14-2.9-21-4c-7-1.1-14.1-2.5-21.2-2.5
					c-7,0-14.1,1.6-19.5,6.3c-1.4,1.3-2.8,2.6-4,4.1C293.3,236.2,304.6,234.1,308.3,224.7z"/>
				<path fill="#59C1D9" d="M370.3,280.9c3.3-2.8,6.5-5.5,9.9-8.2c1.2-3.3,2.2-6.8,3.1-10.2c-3.1,4.8-6.6,9.2-10.6,13.4
					C372,277.6,371.2,279.3,370.3,280.9z"/>
				<path fill="#EAEAEA" d="M194,262.4c-1.8-0.7-3.4-1.9-4.7-3.3c-1.6,2.4-4.5,4.1-7.4,4.3c1.6,1.9,3.5,3.5,5.7,4.9
					C189.7,266.3,191.8,264.3,194,262.4z"/>
				<path fill="#59C1D9" d="M366.8,286.3c-2.5,3.3-5.4,6.2-8.5,8.5c6.5-3.8,12.5-8.3,18.3-13.1c1-2.3,1.9-4.6,2.8-6.9
					c-3.8,3.5-7.8,6.8-11.7,10.2C367.4,285.5,367.1,285.9,366.8,286.3z"/>
				<path fill="#59C1D9" d="M374.1,272.1c3.5-3.8,6.8-7.9,9.8-12.2c1-4.3,1.7-8.7,2.1-13.1c-3.1,6.8-6.9,13.4-10.4,20
					C375.2,268.6,374.7,270.4,374.1,272.1z"/>
				<path fill="#EAEAEA" d="M297.1,305.6c12.9,3.7,26.4,5.2,39.9,4.1c6.9-0.5,13.6-1.6,20.3-3.3c4.7-1.2,9.7-3.7,14.7-4.4
					c0,0,0,0,0-0.1c1.2-1.4,0.7-3.5-0.5-4.9c-44.2,20-98.3,4.3-127-34c-0.8-0.4-1.7-0.7-2.5-0.9c-1.8-0.2-3.3,1.2-3.8,2.9
					c0.2,0.2,0.5,0.4,0.7,0.6C253.6,284.6,274,299,297.1,305.6z"/>
				<path fill="#EAEAEA" d="M245,232.4c-0.5,4.6-0.6,9.3-0.3,13.9c0.2,3.9,0.9,7.8,0.8,11.7c0.6,0.1,1.2,0.4,1.6,1
					c6.3,8.4,13.8,15.9,22.3,22.1c-0.6-3.2-0.8-6.4-0.6-9.6c-0.4-3.5-0.5-7.1-0.4-10.6c0.2-7.7,1.6-15.4,4.8-22.4
					c5.7-12.6,16.4-22.3,30.6-23.6c8.2-0.7,16.3,0.7,24.4,2c7.8,1.2,15.6,2.5,23.3,4.3c7.5,1.8,14.9,4,22.1,7
					c4.2,1.8,8.6,3.8,12.6,6.4c-0.5-7.9-2.3-15.6-5.7-23c-7.1-15.8-19.6-29-35.3-36.4c-16.3-7.6-35.3-8.4-52.2-2.7
					c-17.3,5.8-31.8,17.8-40.1,34.1C248.7,214.6,245.9,223.5,245,232.4z"/>
				<path fill="#EAEAEA" d="M242.7,175.7c1.1,0.5,2.2,1.1,3.2,1.6c0.3-1.6,1.2-3.2,2.6-4.3c-1.6-0.8-3.3-1.6-4.9-2.4
					c-0.5-0.2-1-0.5-1.6-0.7c-0.9,0.4-1.7,0.8-2.3,1.5c-0.6,0.7-1,1.4-1.2,2.1C239.9,174.4,241.3,175.1,242.7,175.7z"/>
				<path fill="#EAEAEA" d="M260.8,183.7c1.2-1.1,2.4-2.2,3.6-3.3c-3-0.9-5.8-2.2-8.7-3.5c-1,1.4-1.5,3.1-0.9,4.8
					C256.8,182.4,258.9,182.9,260.8,183.7z"/>
				<path fill="#59C1D9" d="M377.4,244.7c0.7-1.9,1.4-3.9,2.3-5.7c-1.1-0.6-2.1-1.3-3.2-1.9C377,239.6,377.3,242.1,377.4,244.7z"/>
				<path fill="#EAEAEA" d="M252.7,180.7c0-1.7,0.6-3.4,1.9-4.4c-1.6-0.8-3.1-1.6-4.7-2.4c-1.3,1.1-1.9,2.7-2,4.5
					C249.5,179.2,251.1,180,252.7,180.7z"/>
				<path fill="#59C1D9" d="M377.2,257c-0.2,1.7-0.4,3.4-0.7,5.1c3.1-5.8,6.1-11.7,9.6-17.2c0-0.7,0.1-1.4,0.1-2.1
					c-0.7-0.4-1.4-0.8-2.2-1.3C381.9,246.8,379.6,251.9,377.2,257z"/>
				<path fill="#59C1D9" d="M383.7,241.4c-1.1-0.7-2.3-1.4-3.4-2.1c-0.7,2.9-1.8,5.8-2.7,8.6c0,1.9,0,3.7-0.1,5.5
					C379.5,249.4,381.6,245.4,383.7,241.4z"/>
				<path fill="#EAEAEA" d="M214.8,266.2c3.7,3.4,7.8,6.2,10.9,10.1c4.6-0.3,9.2-0.6,13.9-1c-2.6-3.2-6-5.6-6.9-10
					c-0.3-1.5,0.1-3.1,1-4.3c-2.4-0.4-4.8-1-7.1-1.4c-5.6-1.2-11.2-2.1-16.7,0.1c-8.7,3.6-14.2,11.6-21.7,16.7
					c10.6,0.6,21.3,0.6,31.9,0.1c-2.1-3.2-3.7-6.7-5.7-10.1C214.1,266.3,214.5,266,214.8,266.2z"/>
				<path fill="#7BDAEF" d="M357.5,312.1c-6.7,1.7-13.6,2.8-20.5,3.3c-13.9,0.9-28-0.4-41.3-4.4c-18.9-5.6-36.1-15.8-50.1-29.5
					c-16,1.1-31.8,2.6-47.9,2.1c-1.5,0-3-0.1-4.5-0.2c1.3,4.6,1.8,9.4,1.8,14.3c0.8,9.3-1.1,19-5,27.4c5.6-0.4,11.2-0.9,16.8-1.6
					c5.7-0.8,11.4-1.4,17.1-2.1c2.9-0.4,5.8-0.8,8.7-1.3c2.7-0.4,5.3-0.3,8-0.9c0.3-0.1,0.4,0.4,0.1,0.4c-3,0.9-5.7,2.6-8.7,3.6
					c-3,1-5.9,1.9-8.9,2.8c-4.5,1.2-9,2.3-13.6,3.1c-14.2,9.7-29.7,17.8-45.7,24c4.4,8.2,8.4,16.4,13,24.5c2.5,4.5,5.2,8.9,7.9,13.3
					c2,3.1,4.8,6.5,6.1,10.1c5.4-2.4,10.7-5,15.8-8c1.3-0.7,3.2-0.4,3.9,1c2.4,4.9,6.8,8.1,12.1,9.4c0.8,0.2,0.8,1.3,0,1.6
					c-6,1.7-12-0.9-15.5-5.7c-2.2,1.2-4.5,2.4-6.8,3.6c8.5,11.4,17.2,22.6,25.9,33.8c9.1-4.7,17.8-10,26-16
					c14.3-10.4,27.4-22.7,38.6-36.4c11.3-13.8,20.3-29,29.4-44.3c0.2-0.3,0.6-0.1,0.5,0.2c-1.2,4.1-2.6,8.2-4.3,12.2
					c11.7-0.9,23.3-1.7,35-2.4c6-0.4,12-0.8,18.1-1.2c0.8-3.3,2-6.5,2.7-9.8c0.8-3.7,1.3-7.5,1.4-11.3c0.2-6.7-0.5-13.4-2.3-19.9
					C367.1,309.9,361.8,311,357.5,312.1z M234.6,362.1c-0.3,1.7-1.4,3.7-3.1,4.4c-1.8,0.8-3.8,0.7-5.4-0.6c-1.5-1.2-2.6-3.3-2-5.2
					c0.3-0.9,0.9-1.8,1.8-2.3c1.5-1.6,4-2.2,6.3-1C234,358.4,235,360,234.6,362.1z M246.5,371.7c-0.3,1.7-1.4,3.7-3.1,4.4
					c-1.8,0.8-3.8,0.7-5.4-0.6c-1.5-1.2-2.6-3.3-2-5.2c0.3-0.9,0.9-1.8,1.8-2.3c1.5-1.6,4-2.2,6.3-1
					C246,368,246.9,369.6,246.5,371.7z M261.7,379.5c-0.3,1.7-1.4,3.7-3.1,4.4c-1.8,0.8-3.8,0.7-5.4-0.6c-1.5-1.2-2.6-3.3-2-5.2
					c0.3-0.9,0.9-1.8,1.8-2.3c1.5-1.6,4-2.2,6.3-1C261.1,375.7,262,377.4,261.7,379.5z M287.2,353.4c-2.8,7.5-8.4,14.4-14.9,19.1
					c-0.3,0.4-0.8,0.7-1.4,0.8c-0.1,0-0.1,0-0.2,0c0,0,0,0-0.1,0c-0.3,0-0.6-0.1-0.8-0.2c-12-5.3-25.4-11-33.7-21.6
					c-0.6-0.8-0.6-1.8,0.3-2.4c0.5-0.3,1-0.6,1.5-0.9c1.7-2,4-3.9,5.7-5.8c2.6-2.9,4.8-6,7.1-9.1c0.5-0.7,1.3-0.9,1.9-0.8
					c0.3-0.1,0.6-0.1,0.9,0.1c5.6,2.7,10.5,6.9,15.8,10.1c5.4,3.3,10.9,6.2,16.5,8.9c0.1,0,0.2,0.1,0.2,0.1
					C286.8,351.9,287.5,352.6,287.2,353.4z"/>
				<path fill="#EAEAEA" d="M177.9,325.6c1.8,0,3.7-0.1,5.5-0.2c2.3-4.7,4-9.7,5.1-14.9c1.5-9,0.5-18.3-1.7-27.5
					c-1.8-0.1-3.6-0.2-5.4-0.4C188.3,295.8,185.5,313.4,177.9,325.6z"/>
				<path fill="#FD818F" d="M257.4,376.8c-1.6-0.4-3.1,0.5-3.9,1.8c-0.3,2.1,2.2,4.2,4.1,2.9C259.3,380.3,259.9,377.4,257.4,376.8z"
					/>
				<path fill="#FFFFFF" d="M253.4,335.9c-2.1,3.3-4.7,6.3-7.4,9c-1.8,1.8-4.1,4.1-6.6,5.4c0,0-0.1,0.1-0.1,0.1
					c8.9,8.5,19.5,13.8,30.7,18.7c4.7-4.6,9-9.4,13.1-14.5c-5.7-2.8-11.4-5.9-16.8-9.3C262,342.5,257.1,339.6,253.4,335.9z"/>
				<path fill="#FD818F" d="M242.3,369c-1.6-0.4-3.1,0.5-3.9,1.8c-0.3,2.1,2.2,4.2,4.1,2.9C244.2,372.5,244.8,369.6,242.3,369z"/>
				<path fill="#FD818F" d="M230.4,359.4c-1.6-0.4-3.1,0.5-3.9,1.8c-0.3,2.1,2.2,4.2,4.1,2.9C232.3,363,232.9,360.1,230.4,359.4z"/>
				<path fill="#EAEAEA" d="M392.9,302.2c-0.3,0-0.5,0-0.8,0.1c-2.5,0.2-5,0.4-7.5,0.6c1.3,2.6,1.7,6.1,2.1,8.6
					c0.7,4.3,1.2,8.6,1.2,12.9c0,7.6-1,15.9-3.8,23.1c2.7-0.2,5.3-0.5,8-0.8c0.5-3,1.4-5.9,1.9-8.9c0.7-4.1,1-8.2,1.1-12.4
					C395.3,317.7,394.5,309.8,392.9,302.2z"/>
				<path fill="#EAEAEA" d="M408.4,301c-1.9,0.1-3.8,0.3-5.7,0.4c3.2,6.6,3.6,15.6,3.5,22.7c-0.1,7.2-0.9,14.4-2.9,21.3
					c2.3-0.3,4.6-0.6,6.9-0.9c0-3.7,1.3-7.6,1.6-11.2c0.3-4.1,0.3-8.3,0-12.4C411.4,314,410.2,307.6,408.4,301z"/>
				<path fill="#59C1D9" d="M363.3,295.7c0.1,0,0.1-0.1,0.2-0.1c2.9-1.4,5.6-3,8.5-4.4c1.2-2.3,2.4-4.7,3.6-7.1
					c-5.5,5.2-11.8,9.6-18.4,13.3C359.1,296.9,361.2,296.3,363.3,295.7z"/>
				<path fill="#7BDAEF" d="M426.2,299.8c-4.5,0.2-9,0.5-13.5,0.8c2.8,6.4,4.5,13.5,5.1,20.2c0.4,4.5,0.5,9.1,0.1,13.7
					c-0.3,2.8-0.4,6.2-1.2,9.2c1.3-0.2,2.7-0.4,4-0.6c9.6-1.4,20.5-3.6,27.1-11.4c5.3-6.2,6-15.1,1.8-22.2
					C444.5,301,435.5,299.4,426.2,299.8z M436.2,315.4c-3.8,2.1-7.9,1.9-11.6-0.4c-0.5-0.3-0.4-1.1,0.2-1.2c2.7-0.8,13-2.4,9.1-7.5
					c-3.6-4.7-9.3-1.6-13.2,0.8c-1.2,0.7-2.2-1.1-1.1-1.9c5.4-3.6,16.1-8,19.5,0.7C440.6,309.3,439.5,313.6,436.2,315.4z"/>
				<path fill="#EAEAEA" d="M403.3,311.4c-0.4-3.3-1.2-6.6-1.4-9.9c-2.5,0.2-5,0.4-7.6,0.6c2.5,7.6,3.9,15.3,3.8,23.4
					c-0.1,4.4-0.4,8.8-1.2,13.2c-0.4,2.5-0.9,5.3-1.7,7.8c1.7-0.2,3.5-0.4,5.2-0.6c2.1-7.5,3.6-15.1,3.6-22.9
					C404,319,403.8,315.2,403.3,311.4z"/>
				<path fill="#EAEAEA" d="M191.9,406.8c4,6.2,6.9,13.2,10.8,19.4c3.5,5.6,7.5,10.9,11.5,16.1c3.1-1.3,6.1-2.8,9.2-4.3
					c-9.2-10.6-17.4-22.4-24.4-34.6C196.7,404.6,194.3,405.7,191.9,406.8z"/>
				<path fill="#EAEAEA" d="M384,309.6c-0.4-2.1-1.3-4.4-1.6-6.6c-2,0.2-3.9,0.3-5.9,0.4c-0.1,0.1-0.2,0.2-0.3,0.3c0,0,0,0.1,0,0.1
					c2.5,8,3.8,16.5,3.2,24.9c-0.4,6.2-1.2,13.4-3.8,19.4c1.8-0.2,3.7-0.3,5.5-0.5c2.2-8.2,4.2-16,4.1-24.7
					C385.3,318.5,384.8,314.1,384,309.6z"/>
				<path fill="#EAEAEA" d="M191.3,407c-2.8,1.2-5.7,2.4-8.5,3.5c6.6,12,12.4,24.5,17.1,37.3c1.9-0.6,3.8-1.3,5.7-2
					c2.1-0.8,4.1-1.6,6.1-2.4c-4.1-5-7.8-10.5-11-16C197.1,421.1,193,414.2,191.3,407z"/>
				<path fill="#EAEAEA" d="M175.7,406.9c4.5-1.5,9-3.2,13.4-5.1c-2.8-2.5-4.9-6.4-6.8-9.5c-2.7-4.4-5.4-8.8-7.9-13.3
					c-4.5-8.2-8.7-16.6-11.8-25.4c-2.5,0.9-5,1.8-7.5,2.7c2.4,8.5,5.1,17,8.3,25.3C166.9,390.4,171.3,398.5,175.7,406.9z"/>
				<path fill="#EAEAEA" d="M164.8,288.9c-0.3-2.4-0.5-4.8-1.1-7.2c-0.1-0.3-0.2-0.6-0.2-0.9c-2.7-0.4-5.5-0.8-8.2-1.3
					c3.1,5.3,3.8,11.7,3.1,17.8c-1.1,9.6-4.6,19.1-10.8,26.6c2.2,0.3,4.5,0.5,6.8,0.8c5.2-6.6,8.6-14.9,9.9-23.2
					C165,297.4,165.3,293.1,164.8,288.9z"/>
				<path fill="#7BDAEF" d="M151.2,283.3c-1.1-2.2-2.6-3.9-4.4-5.3c-5.7-1-11.4-1.7-17.1-1.5c-8.5,0.3-18.6,3.3-22.9,11.5
					c-4.3,8.2-0.6,18.1,6,24c7.5,6.7,17.6,9.2,27.2,10.8c0.2,0,0.4,0.1,0.5,0.1c6-6.5,10.2-14.2,11.7-23
					C153.1,294.7,153.6,288.1,151.2,283.3z"/>
				<path fill="#EAEAEA" d="M156.3,400.4c0.6,3.8,1.3,7.7,1.5,11.5c5.3-1.2,10.6-2.6,15.7-4.3c-4.7-7.6-8.5-16-11.7-24.3
					c-3.4-8.6-6-17.6-7.6-26.7c-1.8,0.6-3.6,1.2-5.4,1.8c-0.6,0.2-1.1,0.3-1.7,0.5c3.1,8.5,4.9,17.9,6.6,26.7
					C154.7,390.5,155.6,395.4,156.3,400.4z"/>
				<path fill="#BFBFC2" d="M170.9,332.1c-4.5-0.1-8.9-0.3-13.4-0.6c0.8,5.4,4,10.6,7.6,14.8c10.6-4.3,20.9-9.5,30.7-15.3
					C187.6,331.8,179.3,332.2,170.9,332.1z"/>
				<path fill="#EAEAEA" d="M169.4,325.6c1.4,0,2.8,0,4.2,0.1c0.5,0,1,0,1.4,0c4.4-6.5,7.2-14.2,7.8-22.1c0.5-7.4-0.9-14.1-2.9-21
					c-2.3-0.2-4.5-0.4-6.8-0.6C180.1,295.2,178.2,313.5,169.4,325.6z"/>
				<path fill="#EAEAEA" d="M174.7,304.2c0.7-7.8-0.5-15.1-3-22.3c-1.9-0.2-3.7-0.4-5.6-0.7c0.9,2.5,1.1,5.8,1.3,7.7
					c0.4,4.4,0.3,8.9-0.4,13.3c-1.5,8.5-5,16-10.4,22.7c3.3,0.3,6.6,0.5,9.9,0.6C170.8,319.1,174,312.1,174.7,304.2z"/>
				<path fill="#EAEAEA" d="M175.5,413c6.2,11.8,10.5,25.1,12.9,38.2c3.2-0.9,6.3-1.8,9.4-2.8c-4.9-12.7-10.2-25.3-16-37.7
					C179.7,411.6,177.6,412.3,175.5,413z"/>
				<path fill="#7BDAEF" d="M157.9,417.7c-7.1,1.5-14.4,2-21.5,3.4c0,0.2-0.1,0.4-0.1,0.7c-3.8,10.9-4.2,23-0.1,33.9
					c3.4,9.3,13.8,24.9,23.5,12.7c2.7-3.4,5.1-7.1,8.7-9.5c3.5-2.4,7.5-4,11.6-5.1c1.9-0.5,3.8-1.1,5.7-1.6
					c-2.8-13.2-6.6-25.9-11.2-38.7C169.1,415.1,163.5,416.5,157.9,417.7z"/>
				<path fill="#EAEAEA" d="M148.1,413.7c2.5-0.4,4.9-0.9,7.4-1.4c-0.9-4.1-1.3-8.5-1.9-12.6c-0.8-5-1.7-9.9-2.6-14.8
					c-1.6-8.5-4-17-5.5-25.6c-1.4,0.4-2.8,0.8-4.1,1.2c2.4,8.5,3.6,17.5,4.8,26.2C147.3,395.5,148.2,404.7,148.1,413.7z"/>
				<path fill="#7BDAEF" d="M143.1,386.7c-0.9-8.6-2.5-17.1-3.7-25.7c-6.6,1.7-13.3,3.2-20.1,4.3c-5,0.8-10.1,1.5-15.2,2
					c-4.2,0.4-10.1,0.4-13.4,3.5c-3.6,3.4-4.5,8.4-4.7,13.2c-0.2,5.3-0.1,10.8,0.7,16.1c0.8,5.6,2.1,11.1,3.9,16.4
					c1.4,4,3.1,8.3,6.2,11.4c8.3,8.1,15.1-2.3,22-6.6c7.9-4.9,17.1-5.7,26.1-7C144.4,405,144.1,395.9,143.1,386.7z"/>
			</g>
			<g>
				<path fill="#59C1D9" d="M383.3,262.5c-3.1,4.8-6.6,9.2-10.6,13.4c-0.7,1.7-1.5,3.4-2.4,5c3.3-2.8,6.5-5.5,9.9-8.2
					C381.4,269.4,382.4,266,383.3,262.5z"/>
				<path fill="#59C1D9" d="M379.4,274.8c-3.8,3.5-7.8,6.8-11.7,10.2c-0.3,0.4-0.6,0.9-1,1.3c-2.5,3.3-5.4,6.2-8.5,8.5
					c6.5-3.8,12.5-8.3,18.3-13.1C377.6,279.5,378.5,277.1,379.4,274.8z"/>
				<path fill="#59C1D9" d="M386,246.9c-3.1,6.8-6.9,13.4-10.4,20c-0.4,1.8-0.9,3.5-1.5,5.3c3.5-3.8,6.8-7.9,9.8-12.2
					C384.9,255.6,385.6,251.2,386,246.9z"/>
				<path fill="#59C1D9" d="M377.4,244.7c0.7-1.9,1.4-3.9,2.3-5.7c-1.1-0.6-2.1-1.3-3.2-1.9C377,239.6,377.3,242.1,377.4,244.7z"/>
				<path fill="#59C1D9" d="M386.2,242.9c-0.7-0.4-1.4-0.8-2.2-1.3c-2.2,5.2-4.5,10.3-6.9,15.4c-0.2,1.7-0.4,3.4-0.7,5.1
					c3.1-5.8,6.1-11.7,9.6-17.2C386.2,244.3,386.2,243.6,386.2,242.9z"/>
				<path fill="#59C1D9" d="M383.7,241.4c-1.1-0.7-2.3-1.4-3.4-2.1c-0.7,2.9-1.8,5.8-2.7,8.6c0,1.9,0,3.7-0.1,5.5
					C379.5,249.4,381.6,245.4,383.7,241.4z"/>
				<path fill="#FD818F" d="M257.4,376.8c-1.6-0.4-3.1,0.5-3.9,1.8c-0.3,2.1,2.2,4.2,4.1,2.9C259.3,380.3,259.9,377.4,257.4,376.8z"
					/>
				<path fill="#FD818F" d="M242.3,369c-1.6-0.4-3.1,0.5-3.9,1.8c-0.3,2.1,2.2,4.2,4.1,2.9C244.2,372.5,244.8,369.6,242.3,369z"/>
				<path fill="#FD818F" d="M230.4,359.4c-1.6-0.4-3.1,0.5-3.9,1.8c-0.3,2.1,2.2,4.2,4.1,2.9C232.3,363,232.9,360.1,230.4,359.4z"/>
				<path fill="#59C1D9" d="M363.3,295.7c0.1,0,0.1-0.1,0.2-0.1c2.9-1.4,5.6-3,8.5-4.4c1.2-2.3,2.4-4.7,3.6-7.1
					c-5.5,5.2-11.8,9.6-18.4,13.3C359.1,296.9,361.2,296.3,363.3,295.7z"/>
				<path fill="#62ACC7" d="M206.8,323.5c5.7-0.8,11.4-1.4,17.1-2.1c2.9-0.4,5.8-0.8,8.7-1.3c2.7-0.4,5.3-0.3,8-0.9
					c0.3-0.1,0.4,0.4,0.1,0.4c-3,0.9-5.7,2.6-8.7,3.6c-3,1-5.9,1.9-8.9,2.8c-4.5,1.2-9,2.3-13.6,3.1c-14.2,9.7-29.7,17.8-45.7,24
					c1,1.9,2,3.8,3,5.8c4-1.3,8-2.8,11.9-4.4c11.4-4.8,23.1-10.9,32.9-18.8c14.5-2.3,29.5-8.8,39-19.5c0.4-0.5,0.6-1,0.5-1.5
					c1.3-0.7,2.5-1.5,3.8-2.2c0.7-0.4,0.2-1.5-0.5-1.3c-7.2,2-14.7,2.3-22,3.7c-7.4,1.4-14.9,2.3-22.4,2.8
					c-5.8,0.4-11.5,0.5-17.3,0.5c-0.8,2.4-1.7,4.8-2.7,7.1C195.6,324.8,201.2,324.2,206.8,323.5z"/>
				<path fill="#BFBFC2" d="M183.4,325.5c1.2-2.4,2.2-5,3.1-7.5c-1.6,0-3.1-0.1-4.7-0.2c-1.1,2.8-2.4,5.4-3.9,7.8
					C179.7,325.6,181.6,325.5,183.4,325.5z"/>
				<path fill="#BFBFC2" d="M164.9,359.5c-0.8-2-1.6-3.9-2.3-5.9c-2.5,0.9-5,1.8-7.5,2.7c0.5,1.8,1,3.6,1.6,5.4
					c0.2-0.1,0.5-0.1,0.7-0.2C160,360.9,162.5,360.2,164.9,359.5z"/>
				<path fill="#BFBFC2" d="M154.4,324.7c2-2.6,3.8-5.4,5.2-8.4c-2.2-0.2-4.4-0.4-6.7-0.6c-1.5,2.9-3.3,5.7-5.3,8.2
					C149.9,324.2,152.2,324.5,154.4,324.7z"/>
				<path fill="#62ACC7" d="M106.8,288c-4.3,8.2-0.6,18.1,6,24c7.5,6.7,17.6,9.2,27.2,10.8c0.2,0,0.4,0.1,0.5,0.1
					c2.2-2.4,4.2-5,5.9-7.8c-1.3-0.1-2.7-0.3-4-0.4c-7.4-0.8-14.7-2.1-21.4-5.5c-9.9-5.1-17.5-19.6-8.2-27.8
					C110.4,283.1,108.3,285.2,106.8,288z"/>
				<path fill="#BFBFC2" d="M154.2,356.6c-1.8,0.6-3.6,1.2-5.4,1.8c-0.6,0.2-1.1,0.3-1.7,0.5c0.6,1.5,1.1,3.1,1.5,4.7
					c2.3-0.4,4.6-1,6.7-1.5C154.9,360.2,154.5,358.4,154.2,356.6z"/>
				<path fill="#BFBFC2" d="M173.6,325.7c0.5,0,1,0,1.4,0c1.7-2.5,3.2-5.2,4.3-8c-1.8-0.1-3.6-0.2-5.4-0.3c-1.2,2.9-2.7,5.7-4.6,8.2
					C170.8,325.6,172.2,325.7,173.6,325.7z"/>
				<path fill="#BFBFC2" d="M166.4,325.5c1.8-2.7,3.4-5.4,4.7-8.3c-2.1-0.1-4.1-0.3-6.2-0.4c-1-0.1-1.9-0.2-2.9-0.2
					c-1.5,2.9-3.4,5.7-5.5,8.4C159.8,325.2,163.1,325.4,166.4,325.5z"/>
				<path fill="#BFBFC2" d="M145.5,359.3c-1.4,0.4-2.8,0.8-4.1,1.2c0.3,1.2,0.6,2.4,0.9,3.7c1.3,0,2.7-0.1,4.1-0.3
					C146,362.3,145.7,360.8,145.5,359.3z"/>
				<path fill="#62ACC7" d="M136.6,363.4c1,0.3,2.1,0.5,3.3,0.6c-0.2-1-0.3-2-0.4-3c-1.4,0.4-2.8,0.7-4.2,1.1
					C135.4,362.6,135.9,363.1,136.6,363.4z"/>
				<path fill="#62ACC7" d="M229.3,402.2c0.2-0.2-0.1-0.5-0.3-0.6c-1.9,0-3.7,0-5.5-0.1c-5.3-1.5-10.2-5.6-12.9-10.2
					c-0.9-1.5-3-2.6-4.8-2c-6,2.1-12,4.1-18,6c1.2,1.8,2.4,3.7,3.1,5.7c5.4-2.4,10.7-5,15.8-8c1.3-0.7,3.2-0.4,3.9,1
					c2.4,4.9,6.8,8.1,12.1,9.4c0.8,0.2,0.8,1.3,0,1.6c-6,1.7-12-0.9-15.5-5.7c-2.2,1.2-4.5,2.4-6.8,3.6c1.3,1.8,2.7,3.5,4,5.3
					c1.4-0.6,2.6-1.2,3.6-2.1C214.9,409.5,224.9,408.5,229.3,402.2z"/>
				<path fill="#62ACC7" d="M334.8,342c-4.6,0.3-9.8,0.5-14.6,1.3c2.5-5.2,4.7-10.6,6.6-16c0.1-0.2-0.2-0.2-0.3-0.1
					c-4.5,6.1-8.9,12.2-13.4,18.3c-0.6,0.5-1.1,1.1-1.3,1.8c-9.1,12.3-18.5,24.4-29,35.6c-16.1,17.5-34.7,32.5-55.6,43.8
					c-2,1.1-4.1,2.2-6.2,3.2c1.7,2.2,3.4,4.5,5.2,6.7c9.1-4.7,17.8-10,26-16c14.3-10.4,27.4-22.7,38.6-36.4
					c11.3-13.8,20.3-29,29.4-44.3c0.2-0.3,0.6-0.1,0.5,0.2c-1.2,4.1-2.6,8.2-4.3,12.2c11.7-0.9,23.3-1.7,35-2.4
					c6-0.4,12-0.8,18.1-1.2c0.7-3,1.8-5.9,2.5-8.9c-5.3,0.3-10.5,0.6-15.8,0.9C349.1,341.2,341.9,341.5,334.8,342z"/>
				<path fill="#BFBFC2" d="M384.2,347.5c2.7-0.2,5.3-0.5,8-0.8c0.5-2.7,1.3-5.4,1.8-8.1c-2.4,0.1-4.8,0.2-7.2,0.4
					C386.1,341.9,385.3,344.8,384.2,347.5z"/>
				<path fill="#BFBFC2" d="M403.4,345.5c2.3-0.3,4.6-0.6,6.9-0.9c0-2.2,0.4-4.4,0.9-6.7c-2.1,0.1-4.1,0.1-6.1,0.2
					C404.7,340.6,404.1,343.1,403.4,345.5z"/>
				<path fill="#62ACC7" d="M434.2,333c-5,2.6-10.7,3.9-16.6,4.5c-0.2,2.1-0.4,4.3-1,6.3c1.3-0.2,2.7-0.4,4-0.6
					c9.6-1.4,20.5-3.6,27.1-11.4c5.3-6.2,6-15.1,1.8-22.2c-0.1-0.2-0.3-0.4-0.4-0.6C449.4,319.5,443.6,328.1,434.2,333z"/>
				<path fill="#BFBFC2" d="M396.9,338.4c0,0.1,0,0.1,0,0.2c-0.4,2.5-0.9,5.3-1.7,7.8c1.7-0.2,3.5-0.4,5.2-0.6
					c0.7-2.5,1.3-5,1.9-7.6c-1.7,0-3.3,0.1-4.9,0.2C397.2,338.4,397,338.4,396.9,338.4z"/>
				<path fill="#BFBFC2" d="M199,403.5c-2.3,1.1-4.7,2.2-7.1,3.3c1.1,1.7,2.1,3.5,3.1,5.4c2.4-1,4.8-2,7.2-3.1
					C201.2,407.2,200,405.3,199,403.5z"/>
				<path fill="#BFBFC2" d="M214.2,442.3c3.1-1.3,6.1-2.8,9.2-4.3c-1.9-2.2-3.7-4.4-5.5-6.6c-2.9,1.4-5.9,2.7-8.9,3.9
					C210.7,437.7,212.5,440,214.2,442.3z"/>
				<path fill="#BFBFC2" d="M375.7,348.2c1.8-0.2,3.7-0.3,5.5-0.5c0.8-2.9,1.5-5.8,2.2-8.6c-1.7,0.1-3.4,0.2-5.1,0.3
					C377.7,342.5,376.9,345.5,375.7,348.2z"/>
				<path fill="#BFBFC2" d="M191.3,407c-2.8,1.2-5.7,2.4-8.5,3.5c1,1.7,1.9,3.5,2.8,5.3c2.6-0.9,5.1-1.8,7.6-2.8
					C192.4,411,191.8,409,191.3,407z"/>
				<path fill="#BFBFC2" d="M199.9,447.8c1.9-0.6,3.8-1.3,5.7-2c2.1-0.8,4.1-1.6,6.1-2.4c-1.8-2.2-3.6-4.6-5.2-7
					c-3.2,1.3-6.4,2.4-9.6,3.5C197.9,442.6,198.9,445.2,199.9,447.8z"/>
				<path fill="#BFBFC2" d="M175.7,406.9c4.5-1.5,9-3.2,13.4-5.1c-1.7-1.5-3.1-3.5-4.4-5.5c-4.2,1.3-8.5,2.5-12.8,3.6
					C173.2,402.2,174.5,404.5,175.7,406.9z"/>
				<path fill="#BFBFC2" d="M156.8,403.6c0.4,2.7,0.9,5.5,1,8.3c5.3-1.2,10.6-2.6,15.7-4.3c-1.4-2.3-2.8-4.7-4.1-7.1
					c-2.6,0.7-5.3,1.4-7.9,2C160,402.8,158.4,403.2,156.8,403.6z"/>
				<path fill="#BFBFC2" d="M188.4,451.3c3.2-0.9,6.3-1.8,9.4-2.8c-1-2.6-2-5.2-3.1-7.8c-2.7,0.9-5.4,1.6-8.1,2.5
					C187.3,445.8,187.9,448.6,188.4,451.3z"/>
				<path fill="#BFBFC2" d="M181.8,410.8c-2.1,0.8-4.2,1.5-6.3,2.2c0.9,1.7,1.7,3.4,2.6,5.2c2.1-0.6,4.2-1.3,6.3-2
					C183.5,414.4,182.7,412.6,181.8,410.8z"/>
				<path fill="#62ACC7" d="M155.8,463.3c-4.7,3-8.7-3.4-10.4-6.9c-4.7-9.2-4.5-20.3-1.7-30.1c4-0.6,8-1.6,11.8-2.3
					c6.5-1.3,12.9-3,19.3-4.8c0.6-0.2,1.1-0.3,1.7-0.5c-0.6-1.8-1.2-3.6-1.9-5.4c-5.5,1.7-11,3.2-16.6,4.4c-7.1,1.5-14.4,2-21.5,3.4
					c0,0.2-0.1,0.4-0.1,0.7c-3.8,10.9-4.2,23-0.1,33.9c3.4,9.3,13.8,24.9,23.5,12.7c2.7-3.4,5.1-7.1,8.7-9.5c3.5-2.4,7.5-4,11.6-5.1
					c1.9-0.5,3.8-1.1,5.7-1.6c-0.6-2.7-1.2-5.4-1.8-8c-6.6,2.1-13.1,4.7-18.2,9.6C162.3,456.8,159.7,460.9,155.8,463.3z"/>
				<path fill="#BFBFC2" d="M148.1,413.7c2.5-0.4,4.9-0.9,7.4-1.4c-0.6-2.7-0.9-5.4-1.3-8.2c-2.1,0.5-4.2,1-6.3,1.4
					C148.1,408.3,148.2,411,148.1,413.7z"/>
				<path fill="#62ACC7" d="M86.1,384c-0.2,5.3-0.1,10.8,0.7,16.1c0.8,5.6,2.1,11.1,3.9,16.4c1.4,4,3.1,8.3,6.2,11.4
					c8.3,8.1,15.1-2.3,22-6.6c7.9-4.9,17.1-5.7,26.1-7c-0.2-2.6-0.3-5.2-0.5-7.9c-1.6,0.3-3.1,0.7-4.7,1c-7.1,1.4-14.1,2.5-20.5,6
					c-4.8,2.6-10,10.1-16.1,8.8c-5.1-1.1-6.3-11.7-7.1-15.6c-1.6-7.6-2.5-15.4-2.4-23.2c0.1-4.6,0.9-12,4.7-15.5
					c-2.8,0.4-5.6,1.1-7.6,2.9C87.2,374.2,86.3,379.2,86.1,384z"/>
				<path fill="#62ACC7" d="M386.1,234.7c-3.1-2-6.5-3.7-9.8-5.2c0,0.3,0,0.6,0,0.9c-0.1,3.1,2.8,4.7,5.4,4.5c0.3,4,7.5,3.9,7.3-0.7
					c-0.1-3.8-1.4-7.6-3.2-10.9c-0.3-18.5-10.7-38.2-28-45.3c-0.3-0.1-0.4,0.3-0.3,0.5c3.5,4.3,6.7,8.5,9.5,13
					c5.5,6,10,12.8,13.4,20.2C383.8,219,385.6,226.8,386.1,234.7z"/>
				<path fill="#BFBFC2" d="M376.3,229.5c3.3,1.5,6.7,3.2,9.8,5.2c-0.5-7.9-2.3-15.6-5.7-23c-3.4-7.4-7.9-14.3-13.4-20.2
					c2,3.4,3.8,7,5.3,10.9C375.7,211.2,376.6,220.1,376.3,229.5z"/>
				<path fill="#62ACC7" d="M339.3,264.8c0.2,1.3,0.9,2.8,1.9,4c-2.6,1.2-5,2.5-7,4.8c0.4,0.3,1,0.5,1.6,0.2
					c2.4-1.1,4.7-2.4,7.1-3.6c0.7-0.4,0.9-1.5,0.3-2.1c-2.4-2.1-3.5-5-3.4-8.1C339.3,261.6,339,263.1,339.3,264.8z"/>
				<path fill="#F7D1B1" d="M343.2,268.1c0.6,0.5,0.5,1.7-0.3,2.1c-2.4,1.2-4.7,2.4-7.1,3.6c-0.6,0.3-1.2,0.1-1.6-0.2
					c-0.1,0.1-0.1,0.1-0.2,0.2c-0.1,0.1-0.1,0.4,0.1,0.4c3.7,0.5,7-0.4,10.4-1.6c1.2-0.4,1.7-1.5,1.6-2.5c0.5-0.7,0.7-1.6,0.2-2.4
					c-1.7-2.7-4.3-5.5-4.7-8.8c-0.1-0.8-1.1-0.9-1.3-0.2c-0.2,0.4-0.3,0.9-0.5,1.3C339.6,263.1,340.8,266,343.2,268.1z"/>
				<path fill="#BFBFC2" d="M215.9,167.8c1.7-0.1,3.4-0.1,5.1,0.1c1.1,0.1,2.2,0.3,3.3,0.6c0.1-0.9,0.4-1.7,0.8-2.5
					c-2.9-0.6-5.8-1-8.8-1c-0.2,0-0.4,0-0.6,0c0,0,0,0.1,0,0.1C215.5,166,215.6,166.9,215.9,167.8z"/>
				<path fill="#BFBFC2" d="M213.7,168c-0.1-1-0.1-2,0.2-3c-2.9,0.2-5.8,0.7-8.6,1.7c0.2,1.1,0.7,2.1,1.6,2.9
					C209.1,168.9,211.4,168.3,213.7,168z"/>
				<path fill="#BFBFC2" d="M198.2,211c-1.8,0.5-3.6,0.6-5.4,0.2c-0.2,3-1.2,5.9-2.4,8.8c1.3,0.6,2.6,1.1,4.1,1.3
					C196.3,218,197.7,214.6,198.2,211z"/>
				<path fill="#BFBFC2" d="M205,170.6c-0.7-0.9-1.1-2-1.2-3.1c-3.1,1.3-5.9,3.1-8.2,5.4c0.9,0.9,2,1.6,3.3,2
					C200.6,173.1,202.7,171.7,205,170.6z"/>
				<path fill="#BFBFC2" d="M196.6,200.6c-0.9-2.5-2-4.9-2.7-7.4c-1.7,0.6-3.5,0.5-5.2,0c0.6,2.8,1.6,5.5,2.5,8.3
					C193,201.6,194.9,201.3,196.6,200.6z"/>
				<path fill="#BFBFC2" d="M197.3,202.6c-1.8,0.8-3.6,1.1-5.5,0.8c0.6,2,1,3.9,1,6c1.9,0,3.7-0.4,5.5-1.1
					C198.3,206.3,197.8,204.4,197.3,202.6z"/>
				<path fill="#BFBFC2" d="M194.7,180.7c0.7-1.6,1.6-3,2.7-4.3c-1.2-0.5-2.2-1.3-3-2.3c-1.6,1.7-2.9,3.7-3.9,5.8
					c0.1,0,0.1,0.1,0.2,0.1C192,180.7,193.2,180.7,194.7,180.7z"/>
				<path fill="#BFBFC2" d="M185.1,241.2c-1.3,0.1-2.6-0.2-3.8-0.7c-0.7,2.9-1,5.9-0.7,8.9c1.5-0.4,2.7-1.2,4-2
					C184.5,245.2,184.7,243.2,185.1,241.2z"/>
				<path fill="#BFBFC2" d="M185.5,239.2C185.5,239.2,185.5,239.2,185.5,239.2c0.6-2.4,1.6-4.7,2.7-6.9c0.1-0.2,0.2-0.3,0.2-0.5
					c-1.3-0.1-2.5-0.5-3.5-1.2c-0.5,1-1,2.1-1.4,3.1c-0.7,1.6-1.3,3.3-1.8,5C182.9,239.2,184.2,239.3,185.5,239.2z"/>
				<path fill="#BFBFC2" d="M188,257.6c-1.3-1.8-2.3-3.8-2.8-6c-0.2-0.7-0.3-1.4-0.4-2c-1.1,0.8-2.5,1.4-4,1.8c0.2,1,0.4,2,0.7,3
					c0.7,2.2,1.8,4.2,3.1,6C185.9,259.7,187,258.8,188,257.6z"/>
				<path fill="#BFBFC2" d="M236.4,172.7c0.4-1,1-1.9,1.8-2.7c-3.6-1.4-7.3-2.7-11.1-3.6c-0.5,0.8-0.7,1.6-0.7,2.5
					C229.8,169.9,233.1,171.2,236.4,172.7z"/>
				<path fill="#BFBFC2" d="M193.4,191.3c-0.2-1.1-0.4-2.3-0.3-3.5c0-1.8,0.3-3.6,0.8-5.2c-1.5,0.1-2.9-0.5-4.1-1.4
					c-0.8,1.9-1.3,4-1.5,6.2c-0.1,1.3-0.1,2.7,0.1,3.9C190,191.8,191.8,191.9,193.4,191.3z"/>
				<path fill="#BFBFC2" d="M189.3,230.3c1.3-2.3,2.7-4.6,4-7c-1.4-0.3-2.6-0.9-3.8-1.7c-1.2,2.6-2.6,5.2-3.9,7.7
					C186.7,230,188,230.4,189.3,230.3C189.3,230.3,189.3,230.3,189.3,230.3z"/>
				<path fill="#BFBFC2" d="M189.3,259.1c-0.8,1.2-1.9,2.2-3.1,2.9c1.4,1.3,2.9,2.4,4.7,3.2c1-1,2.1-1.9,3.1-2.8
					C192.2,261.7,190.6,260.5,189.3,259.1z"/>
				<path fill="#BFBFC2" d="M238.5,173.7c1.4,0.7,2.8,1.3,4.1,2c1.1,0.5,2.2,1.1,3.2,1.6c0.2-1.3,0.9-2.5,1.8-3.5
					c-2.4-0.9-4.7-1.8-7-2.8c-0.1,0-0.2-0.1-0.3-0.1c-0.2,0.2-0.5,0.4-0.7,0.6C239.1,172.3,238.7,173,238.5,173.7z"/>
				<path fill="#BFBFC2" d="M255.8,176.8c-1,1.4-1.5,3.1-0.9,4.8c1.3,0.5,2.7,0.9,4.1,1.4c1.1-0.2,2.3-0.4,3.4-0.8
					c0.7-0.6,1.4-1.3,2.1-1.9C261.5,179.5,258.6,178.2,255.8,176.8z"/>
				<path fill="#BFBFC2" d="M252.7,180.7c0-1.7,0.6-3.4,1.9-4.4c-0.2-0.1-0.5-0.3-0.7-0.4c-0.1,0-0.2-0.1-0.3-0.1
					c-1.4-0.4-2.8-0.9-4.2-1.3c-0.9,1.1-1.3,2.4-1.4,4C249.5,179.2,251.1,180,252.7,180.7z"/>
				<path fill="#BFBFC2" d="M199.7,266.4c-3.9,3.4-7.5,7.2-11.6,10.1c4,0.2,8,0.3,11.9,0.4C195.9,274.3,197.3,270,199.7,266.4z"/>
				<path fill="#62ACC7" d="M348.8,230.2c-2.2,1.4-4.5,2.5-7,3.2c4.3,1,8.6,2.1,12.9,3.1c-1.2-1.3-2.2-2.9-2.7-5
					C351.7,230.2,350,229.4,348.8,230.2z"/>
				<path fill="#62ACC7" d="M312.3,224.2c-1.2-1.6-3.3-1.4-4.1,0.5c-0.6,1.5-1.4,2.8-2.3,3.9c0.4-0.1,0.8-0.3,1.1-0.4
					c2.7-0.9,5.4-1,8.1-0.8C314.2,226.4,313.2,225.3,312.3,224.2z"/>
				<path fill="#62ACC7" d="M329.3,295.2c-0.2-0.1-0.5-0.1-0.7-0.2c0.4,0.9,0.7,1.9,1.1,2.8c0.4,1.1,1.8,1.6,2.7,0.7
					c0.9-0.9,1.8-1.8,2.8-2.8c-0.9,0.3-1.9,0.5-2.9,0.6C331.3,296,330.4,295.5,329.3,295.2z"/>
				<path fill="#F7D1B1" d="M361.6,286.5c6.1-7.2,9.6-16,11.2-25.3c0.9-5.4,1.3-11,1.2-16.5c0-1.4,0-2.9,0-4.6
					c-1.5,1.5-3.3,2.5-5.1,3.3c-0.1,0.4-0.3,0.9-0.4,1.3c-0.9,3.3-1.4,6.7-2,10c-1.4,7.2-3.3,14.3-6.7,20.9
					c-4.9,9.5-14.2,17.5-24.7,20.2c-0.9,0.9-1.8,1.8-2.8,2.8c-0.9,0.9-2.3,0.4-2.7-0.7c-0.3-0.9-0.7-1.9-1.1-2.8
					c-2.2-0.4-4.8-0.2-7-0.3c-5.1-0.3-10.2-1.3-15.2-2.5c-8.2-2-15.3-5.6-22.2-10c-0.1-0.8-0.2-1.6-0.3-2.3
					c-0.8-5.2-1.3-10.3-1-15.6c0.6-9.1,4.1-18.2,9.8-25.3c-3.5-0.6-6.7-2.3-9.3-4.9c-1.7,2.4-3.2,5-4.4,7.7
					c-2.9,6.8-4,14.3-4.4,21.6c-0.2,4.4-0.5,8.8-0.7,13.2c0.5,2.8,1,5.6,1.4,8.4c7.8,5,16.3,8.9,25.2,11.6c1.6,0.5,3.1,0.9,4.7,1.3
					c0.2-0.1,0.5-0.1,0.7-0.1C325.4,301.7,347.5,303.1,361.6,286.5z"/>
				<path fill="#BC7085" d="M308.3,224.7c0.7-1.9,2.9-2.1,4.1-0.5c0.9,1.2,1.9,2.3,2.9,3.2c3.7,0.3,7.4,1.4,11,2.2
					c5.2,1.2,10.4,2.5,15.6,3.7c2.5-0.7,4.8-1.8,7-3.2c1.2-0.8,2.9,0,3.2,1.3c0.6,2,1.5,3.7,2.7,5c4,0.9,7.9,1.9,11.9,2.8
					c2.2-0.8,4.2-2.2,5.6-4.3c-0.8-0.4-1.6-0.7-2.4-1c-6.2-2.5-12.6-4.4-19-6c-6.9-1.6-14-2.9-21-4c-7-1.1-14.1-2.5-21.2-2.5
					c-7,0-14.1,1.6-19.5,6.3c-1.4,1.3-2.8,2.6-4,4.1c3.8,2.1,8.4,2.7,12.6,1.8c2.4-2.1,5.2-3.8,8.2-5
					C306.9,227.5,307.7,226.2,308.3,224.7z"/>
				<path fill="#BFBFC2" d="M297.1,305.6c4.5,1.3,9.1,2.3,13.8,3.1c0.1-0.1,0.2-0.2,0.4-0.3c0.1,0.1,0.1,0.1,0.2,0.2
					c0,0.1-0.1,0.1-0.1,0.2c8.5,1.3,17.1,1.7,25.6,1c6.9-0.5,13.6-1.6,20.3-3.3c4.7-1.2,9.7-3.7,14.7-4.4c0,0,0,0,0-0.1
					c1.2-1.4,0.7-3.5-0.5-4.9c-19.8,8.9-41.5,10.7-62.1,6.6c-2.1,1.1-5.1,1.1-7,0.7c-3.5-0.7-7-2.1-10.4-3.3
					c-7.3-2.6-14.4-6.1-21.1-10c-6.2-3.6-11.9-8-17.8-12c-4.2-2.8-7.7-6.2-11.2-9.7C256.4,286.5,275.6,299.5,297.1,305.6z"/>
				<path fill="#BFBFC2" d="M244.7,246.3c0.2,3.9,0.9,7.8,0.8,11.7c0.6,0.1,1.2,0.4,1.6,1c6.3,8.4,13.8,15.9,22.3,22.1
					c-0.6-3.2-0.8-6.4-0.6-9.6c-0.2-1.5-0.3-3-0.3-4.5c-2.1-0.6-4.4-1-6.5-2c-3.5-1.9-6.3-5.1-8.4-8.5c-5.1-8.2-7.1-18.5-8.1-28
					c-0.2,1.3-0.4,2.7-0.5,4C244.5,237,244.4,241.7,244.7,246.3z"/>
				<path fill="#BFBFC2" d="M216.7,270.9c-0.6,0-1.2,0.1-1.7,0.3c-2.6,0.7-6.5,3-7.8,5.8c4.3,0,8.6-0.1,12.9-0.3
					C218.8,274.8,217.7,272.9,216.7,270.9z"/>
				<path fill="#BFBFC2" d="M226.7,266.3c0.1,1.3,0.5,2.6,1.1,3.8c-2.3,0-4.7,0.2-7,0.4c-0.3,0-0.5,0.1-0.8,0.1
					c2.1,1.7,4,3.5,5.7,5.7c4.6-0.3,9.2-0.6,13.9-1c-2.6-3.2-6-5.6-6.9-10c-0.3-1.5,0.1-3.1,1-4.3c-1.8-0.3-3.6-0.7-5.3-1.1
					C227.1,261.8,226.4,264.1,226.7,266.3z"/>
				<path fill="#62ACC7" d="M241,283.9c2.6,11.2,16,19,25.5,23.5c12.7,5.9,26.7,9.9,40.4,12.5c14,2.7,28.6,3.4,42.7,0.6
					c6.7-1.3,13.1-3.6,19.3-6.5c1.1-0.5,2.3-1.1,3.4-1.7c-0.3-1.5-0.6-3.1-1-4.6c-4.3,2.2-9.6,3.3-13.8,4.4
					c-6.7,1.7-13.6,2.8-20.5,3.3c-13.9,0.9-28-0.4-41.3-4.4c-18.9-5.6-36.1-15.8-50.1-29.5c-1.5,0.1-3,0.2-4.5,0.3
					C240.9,282.4,240.8,283.1,241,283.9z"/>
				<path fill="#BFBFC2" d="M392.9,302.2c-0.3,0-0.5,0-0.8,0.1c-2.5,0.2-5,0.4-7.5,0.6c0.4,0.9,0.8,1.9,1,2.9
					c2.6-0.2,5.2-0.4,7.8-0.7C393.3,304.1,393.1,303.2,392.9,302.2z"/>
				<path fill="#BFBFC2" d="M409,303.4c-0.2-0.8-0.4-1.6-0.6-2.4c-1.9,0.1-3.8,0.3-5.7,0.4c0.4,0.8,0.8,1.7,1.1,2.6
					c0.6-0.1,1.2-0.1,1.8-0.2C406.8,303.7,407.9,303.6,409,303.4z"/>
				<path fill="#62ACC7" d="M413.5,302.7c2-0.4,4-0.8,6-1.3c1.9-0.5,3.7-1.1,5.5-1.5c-4.1,0.2-8.2,0.5-12.3,0.8
					C412.9,301.4,413.2,302,413.5,302.7z"/>
				<path fill="#BFBFC2" d="M401.9,301.5c-2.5,0.2-5,0.4-7.6,0.6c0.3,0.9,0.6,1.9,0.9,2.8c2.3-0.2,4.7-0.5,7-0.7
					C402.1,303.3,401.9,302.4,401.9,301.5z"/>
				<path fill="#BFBFC2" d="M379.8,306.2c1.1-0.1,2.2-0.1,3.2-0.2c-0.3-1-0.5-2-0.6-2.9c-2,0.2-3.9,0.3-5.9,0.4
					c-0.1,0.1-0.2,0.2-0.3,0.3c0,0,0,0.1,0,0.1c0.5,1.5,0.9,3.1,1.3,4.7C378.4,307.8,379.1,307,379.8,306.2z"/>
			</g>
			<g>
				<path fill="#3A154F" d="M323.4,241.5c-4.1-1.1-7.4,2.9-8.2,6.5c-0.9,3.8,0.9,8.3,4.9,9.3c4.1,1.1,7.4-2.9,8.2-6.5
					C329,246.9,327.5,242.5,323.4,241.5z"/>
				<path fill="#FCFCFC" d="M326.8,246.4c0-1-0.6-1.8-1.4-2.3c-0.9-0.6-2-0.4-2.8,0c-0.5,0.3-0.8,0.9-1,1.4
					c-0.2,0.5-0.1,0.9-0.1,1.4c0.1,0.6,0.3,1.1,0.7,1.5c0.6,0.7,1.8,0.8,2.7,0.5C326,248.6,326.7,247.5,326.8,246.4z"/>
				<path fill="#FCFCFC" d="M319.6,246.7c-0.7-0.2-1.3,0.1-1.8,0.6c-0.8,0.8-0.7,2.3,0.2,3c0.7,0.5,1.6,0.6,2.2-0.1
					c0,0,0.1-0.1,0.1-0.1c0.1-0.1,0.2-0.2,0.3-0.3c0.4-0.6,0.5-1.1,0.3-1.8C320.8,247.3,320.2,246.9,319.6,246.7z M318.1,248.4
					C318,248.5,317.9,248.5,318.1,248.4L318.1,248.4z M318.7,248.1C318.7,248.1,318.7,248.1,318.7,248.1
					C318.9,248.1,318.9,248.1,318.7,248.1z"/>
				<path fill="#FCFCFC" d="M322.5,250.5c-0.1,0.7,0.3,1.4,1,1.5c0.7,0.1,1.4-0.3,1.5-1s-0.3-1.4-1-1.5
					C323.3,249.3,322.6,249.8,322.5,250.5z"/>
			</g>
			<g>
				<path fill="#3A154F" d="M356.5,246.9c-4.1-1.1-7.4,2.9-8.2,6.5c-0.9,3.8,0.9,8.3,4.9,9.3c4.1,1.1,7.4-2.9,8.2-6.5
					C362.1,252.3,360.6,247.9,356.5,246.9z"/>
				<path fill="#FCFCFC" d="M359.8,251.8c0-1-0.6-1.8-1.4-2.3c-0.9-0.6-2-0.4-2.8,0c-0.5,0.3-0.8,0.9-1,1.4
					c-0.2,0.5-0.1,0.9-0.1,1.4c0.1,0.6,0.3,1.1,0.7,1.5c0.6,0.7,1.8,0.8,2.7,0.5C359.1,254,359.8,252.9,359.8,251.8z"/>
				<path fill="#FCFCFC" d="M352.7,252.1c-0.7-0.2-1.3,0.1-1.8,0.6c-0.8,0.8-0.7,2.3,0.2,3c0.7,0.5,1.6,0.6,2.2-0.1
					c0,0,0.1-0.1,0.1-0.1c0.1-0.1,0.2-0.2,0.3-0.3c0.4-0.6,0.5-1.1,0.3-1.8C353.9,252.7,353.3,252.2,352.7,252.1z M351.2,253.7
					C351.1,253.8,351,253.9,351.2,253.7L351.2,253.7z M351.8,253.5C351.8,253.5,351.8,253.5,351.8,253.5
					C352,253.4,352,253.4,351.8,253.5z"/>
				<path fill="#FCFCFC" d="M355.6,255.8c-0.1,0.7,0.3,1.4,1,1.5c0.7,0.1,1.4-0.3,1.5-1c0.1-0.7-0.3-1.4-1-1.5
					C356.4,254.7,355.7,255.2,355.6,255.8z"/>
			</g>
			<g>
				<path fill="#FFFFFF" d="M287.6,178.5c-9.6,2.2-18.8,10.4-25,17.7c-6.5,7.6-10.2,17.5-11.5,27.3c-0.4,3,4,3.1,4.9,0.7
					c3.2-8.5,8.1-15.6,14.1-22.3c2.8-3.1,5.9-5.8,9.3-8.2c3.8-2.6,8-4.1,12-6.4C296.1,184.5,292.8,177.3,287.6,178.5z"/>
				<path fill="#FFFFFF" d="M314.6,173.1c-4.7,0.5-9.8,1.5-14.1,3.5c-3.9,1.8-1.6,7.3,2,7.5c2.3,0.1,4.5-0.3,6.8-0.7
					c2.2-0.4,4.4-0.6,6.5-1.3C320.6,180.7,320,172.6,314.6,173.1z"/>
				<path fill="#FFFFFF" d="M221.2,260.2c-3.9-0.7-7.2-0.8-11,0.4c-3.6,1.1-5.7,3.6-7.9,6.5c-1.1,1.5,0.9,3.1,2.3,2.3
					c2.3-1.2,4.9-1.7,7.3-2.5c2.6-0.9,5.8-1.4,8.6-1.2C223.6,266,224.3,260.8,221.2,260.2z"/>
				<path fill="#FFFFFF" d="M138.7,279.6c-5.3-1.9-10.4-1.9-15.7,0.1c-4.8,1.8-10.5,5.6-10.3,11.3c0,1.7,1.7,3.2,3.4,2.6
					c3.5-1.1,6-3.8,9.3-5.4c3.3-1.6,7.8-1.9,11.3-1C141.6,288.4,143.4,281.3,138.7,279.6z"/>
				<path fill="#FFFFFF" d="M122.7,367.4c-3.6-0.5-7.6,0.4-11.2,0.8c-3.6,0.4-7.2,0.8-10.7,1.6c-2.5,0.6-3.6,3.7-2.4,5.8
					c0.9,1.5,2.1,2.8,3.3,4.1c0.8,0.9,2.2,0.3,2.5-0.7c0.2-0.5,0.4-1,0.6-1.5c2.7-0.1,5.5-0.4,8.2-0.6c3.5-0.3,7.3-0.3,10.7-1.4
					C128.4,373.8,127.2,368,122.7,367.4z"/>
			</g>
		</g>
		<path fill="#3A154F" d="M427.4,293.5c-11.3,0.3-22.6,1.5-33.9,2.4c-5.2,0.4-10.5,0.8-15.7,1.2c-0.1-0.4-0.2-0.8-0.4-1.1
			c0,0,0,0,0-0.1c9.8-17.8,16.3-37.6,15.9-58c-0.4-18-7.3-35-18.8-48.8c-11-13.2-26.6-22.6-43.5-26c-17.5-3.6-35.9-0.6-51.8,7.4
			c-3.8,1.9-7.3,4.1-10.7,6.6c-7.6-5.5-16.9-9.5-25.4-13.2c-8.6-3.8-17.7-6.3-27.1-6.6c-16.1-0.5-33.9,9.5-36.1,26.7
			c-1.1,9.1,4.1,17.3,3.2,26.3c-0.8,8.5-6.9,16.2-10.3,23.9c-3.2,7.3-4.1,14.8-1.8,22.4c1.9,6.4,6.3,12.6,12.1,16.2
			c-0.9,0.9-1.8,1.9-2.7,2.8c-0.1,0.1-0.2,0.3-0.3,0.4c-2.8-0.2-5.6-0.5-8.4-0.8c-11.4-1.2-22.5-3.7-33.9-5
			c-9.5-1.1-19.2-0.1-27.5,4.9c-7.2,4.3-11.8,11.5-12.3,19.9c-0.5,8.6,4.5,17,10.7,22.5c7.5,6.6,17.5,9.5,27.1,11.3
			c5.2,1,10.4,1.7,15.6,2.2c-0.5,4,0,8,1.6,11.8c0.9,2.1,2.3,4.6,4.1,6.6c-17.8,6.5-36.3,10.8-55.5,12.5
			c-8.9,0.8-16.2,3.2-19.8,12.1c-3.5,8.7-2,20-0.6,29c2,13.3,10.4,42.1,29.5,31.7c3.3-1.8,6-4.6,8.8-6.9c3.1-2.5,6.7-4,10.5-5.1
			c-5.8,16.3-2.8,36.4,8.6,49.6c5.4,6.2,14.6,9.6,21.6,3.8c3.1-2.5,5.2-5.9,7.7-9c3.2-3.9,7.7-5.8,12.3-7.3
			c8.5-2.7,17.2-4.7,25.6-7.8c8.2-3,16.1-6.6,23.8-10.7c15.5-8.1,29.8-18.4,42.8-30.2c16.5-15,32.1-33.6,41.7-54.3
			c23,0.8,45.9-0.8,68.8-2.9c11.5-1.1,23-2.4,34.5-3.9c9.8-1.3,19.7-2.8,28.2-8.2c14.2-9.1,16.6-27.6,5.5-40.2
			C445.3,294.7,436,293.3,427.4,293.5z M376.6,281.7c-5.8,4.9-11.8,9.3-18.3,13.1c3.1-2.4,6-5.2,8.5-8.5c0.3-0.4,0.6-0.9,1-1.3
			c3.9-3.4,7.8-6.7,11.7-10.2C378.5,277.1,377.6,279.5,376.6,281.7z M214.3,266.6c2,3.4,3.6,6.9,5.7,10.1
			c-10.6,0.4-21.3,0.4-31.9-0.1c7.5-5.2,13-13.2,21.7-16.7c5.5-2.3,11.1-1.3,16.7-0.1c2.2,0.5,4.6,1.1,7.1,1.4
			c-0.9,1.2-1.3,2.8-1,4.3c0.9,4.3,4.4,6.8,6.9,10c-4.6,0.4-9.2,0.7-13.9,1c-3.1-4-7.2-6.7-10.9-10.1
			C214.5,266,214.1,266.3,214.3,266.6z M238.9,265.7c-0.2-0.3-0.5-0.5-0.7-0.6c0.5-1.7,2-3,3.8-2.9c0.9,0.2,1.7,0.5,2.5,0.9
			c28.7,38.3,82.8,53.9,127,34c1.1,1.4,1.7,3.4,0.5,4.9c0,0,0,0,0,0.1c-4.9,0.7-9.9,3.2-14.7,4.4c-6.7,1.7-13.4,2.8-20.3,3.3
			c-13.4,1-26.9-0.4-39.9-4.1C274,299,253.6,284.6,238.9,265.7z M306,297.9c-0.3-0.1-0.5,0-0.7,0.1c-1.6-0.4-3.2-0.8-4.7-1.3
			c-8.9-2.6-17.4-6.6-25.2-11.6c-0.4-2.8-0.9-5.6-1.4-8.4c0.2-4.4,0.5-8.8,0.7-13.2c0.4-7.4,1.5-14.8,4.4-21.6
			c1.2-2.7,2.6-5.3,4.4-7.7c3.9,3.9,9.3,5.9,15,4.7c5.8-1.2,10.1-4.7,12.7-9.6c9.7,9.7,25.5,12.3,37.7,6c4.6,9.9,17.8,12.1,25.2,4.8
			c0,1.6,0,3.2,0,4.6c0,5.5-0.3,11.1-1.2,16.5c-1.6,9.2-5.1,18.1-11.2,25.3C347.5,303.1,325.4,301.7,306,297.9z M285.2,231.8
			c1.2-1.4,2.6-2.8,4-4.1c5.4-4.7,12.5-6.3,19.5-6.3c7.1,0,14.2,1.4,21.2,2.5c7,1.1,14.1,2.4,21,4c6.5,1.5,12.9,3.5,19,6
			c0.8,0.3,1.6,0.7,2.4,1c-5.3,7.7-17.5,6.4-20.2-3.4c-0.4-1.3-2-2.1-3.2-1.3c-11.5,7.4-28.2,5.1-36.5-6c-1.2-1.6-3.3-1.4-4.1,0.5
			C304.6,234.1,293.3,236.2,285.2,231.8z M380.2,272.7c-3.3,2.7-6.6,5.4-9.9,8.2c0.9-1.6,1.7-3.3,2.4-5c4-4.1,7.5-8.6,10.6-13.4
			C382.4,266,381.4,269.4,380.2,272.7z M383.9,260c-3,4.2-6.3,8.3-9.8,12.2c0.6-1.7,1.1-3.5,1.5-5.3c3.5-6.6,7.3-13.2,10.4-20
			C385.6,251.2,384.9,255.6,383.9,260z M377.4,244.7c-0.2-2.6-0.5-5.1-1-7.6c1.1,0.6,2.2,1.2,3.2,1.9
			C378.9,240.8,378.1,242.7,377.4,244.7z M380.3,239.3c1.1,0.7,2.3,1.4,3.4,2.1c-2.2,4-4.2,8-6.3,12.1c0.1-1.8,0.1-3.7,0.1-5.5
			C378.5,245.1,379.6,242.2,380.3,239.3z M386.1,245c-3.5,5.5-6.5,11.4-9.6,17.2c0.3-1.7,0.5-3.4,0.7-5.1c2.4-5.1,4.7-10.2,6.9-15.4
			c0.7,0.4,1.4,0.9,2.2,1.3C386.2,243.6,386.2,244.3,386.1,245z M292.9,172.5c17-5.7,36-4.9,52.2,2.7c15.7,7.4,28.1,20.7,35.3,36.4
			c3.4,7.4,5.1,15.2,5.7,23c-4-2.6-8.4-4.6-12.6-6.4c-7.1-3.1-14.5-5.3-22.1-7c-7.7-1.8-15.5-3.1-23.3-4.3c-8.1-1.3-16.2-2.7-24.4-2
			c-14.1,1.2-24.9,11-30.6,23.6c-3.2,7-4.5,14.8-4.8,22.4c-0.1,3.5,0.1,7.1,0.4,10.6c-0.2,3.2-0.1,6.4,0.6,9.6
			c-8.4-6.2-16-13.7-22.3-22.1c-0.4-0.6-1-0.9-1.6-1c0.1-3.9-0.6-7.7-0.8-11.7c-0.3-4.6-0.2-9.3,0.3-13.9c0.9-8.9,3.7-17.8,7.8-25.8
			C261,190.3,275.6,178.3,292.9,172.5z M255.8,176.8c2.8,1.4,5.7,2.6,8.7,3.5c-1.2,1.1-2.4,2.2-3.6,3.3c-2-0.8-4.1-1.3-6-2.1
			C254.3,179.9,254.7,178.2,255.8,176.8z M249.9,173.9c1.5,0.8,3.1,1.6,4.7,2.4c-1.3,1.1-1.9,2.8-1.9,4.4c-1.6-0.7-3.2-1.5-4.8-2.3
			C248,176.6,248.6,175,249.9,173.9z M242,170c0.5,0.2,1,0.5,1.6,0.7c1.6,0.7,3.3,1.6,4.9,2.4c-1.3,1.1-2.3,2.6-2.6,4.3
			c-1.1-0.5-2.2-1.1-3.2-1.6c-1.4-0.7-2.7-1.4-4.1-2c0.2-0.8,0.6-1.4,1.2-2.1C240.4,170.8,241.2,170.4,242,170z M228.2,165.1
			c3.8,1,7.6,2.4,11.3,3.9c-1.4,0.9-2.5,2.2-3.1,3.8c-3.3-1.5-6.6-2.8-10-3.7C226.3,167.5,227.1,166.2,228.2,165.1z M245.1,184.1
			c3.1,1.5,7.2,3.5,11.2,4.5c-5.1,6-9.3,12.9-12.4,20.2c-3.5,8.2-5.4,16.8-6.1,25.7c-0.5,6.6-0.5,14.6,2,21.1
			c-1.8-0.4-3.7-0.6-5.5-1c-3.2-0.7-6.3-1.6-9.5-2.2c-5.7-1.1-11.3-1.2-16.7,0.8c-3.3,1.2-6.3,3-9.1,5.1c-0.2-0.1-0.4-0.2-0.7-0.3
			c-5.2-1.5-7.6-6.8-7.8-11.8c-0.3-7,4.4-13.7,7.8-19.5c3.1-5.5,5.7-11.3,6.1-17.7c0.5-6.6-3.3-12.4-4.8-18.6
			c-1.4-5.9,2.4-10.9,7.1-13.8c5.9-3.6,13.1-2.8,19.5-0.9C232.8,177.6,238.8,181.2,245.1,184.1z M188.4,201c-0.6-2.9-1.5-5.9-2-8.8
			c2.2,1.4,4.9,1.9,7.5,1c0.7,2.5,1.8,5,2.7,7.4C194,201.6,191.1,201.8,188.4,201z M197.3,202.6c0.6,1.8,1,3.7,1.1,5.7
			c-2.9,1.1-5.9,1.5-9,0.5c0-2.2-0.2-4.3-0.6-6.4C191.4,203.7,194.5,203.9,197.3,202.6z M189,212c0.1-0.7,0.2-1.4,0.2-2
			c2.8,1.4,6,1.8,8.9,1c-0.5,3.6-1.9,7-3.7,10.3c-2.7-0.4-5.1-1.6-7.1-3.3C188.1,216.1,188.7,214.1,189,212z M215.7,165.1
			c0.1-0.6,0.4-1.2,0.6-1.7c0.7,0,1.5,0,2.2,0.1c2.5,0.1,5,0.5,7.5,1.1c-0.9,1.1-1.5,2.5-1.7,4c-1.1-0.2-2.2-0.4-3.3-0.6
			c-1.7-0.2-3.4-0.2-5.1-0.1C215.6,166.9,215.5,166,215.7,165.1z M205.5,164.6c3-0.8,6.2-1.1,9.3-1.2c-0.2,0.4-0.4,0.7-0.6,1.1
			c-0.5,1.1-0.6,2.4-0.5,3.5c-2.3,0.3-4.6,0.9-6.7,1.7C205.5,168.4,205.1,166.5,205.5,164.6z M194.9,169.9c2.7-2.3,5.8-3.8,9-4.9
			c-0.5,1.8-0.1,3.9,1.1,5.5c-2.3,1.1-4.4,2.5-6.2,4.2c-2.1-0.6-3.9-2.1-4.8-4.1C194.3,170.4,194.6,170.2,194.9,169.9z M193,171.7
			c0.7,2.1,2.3,3.8,4.4,4.7c-1.1,1.3-2,2.7-2.7,4.3c-1.5,0-2.7,0-4.1-0.7c-1-0.5-1.8-1.2-2.4-2C189.4,175.7,191.1,173.6,193,171.7z
			 M187.6,179c1.4,2.1,3.8,3.7,6.3,3.7c-0.5,1.6-0.8,3.3-0.8,5.2c0,1.2,0.1,2.4,0.3,3.5c-2.5,0.8-5.3,0.4-7.4-1.2
			c-0.1-0.7-0.2-1.5-0.2-2.2C185.6,184.8,186.3,181.8,187.6,179z M187,219.1c1.5,2.1,3.8,3.6,6.4,4.2c-1.4,2.4-2.8,4.7-4,7
			c0,0,0,0,0,0c-2.5,0.2-4.9-1.3-5.9-3.5C184.7,224.2,185.9,221.7,187,219.1z M181,231.3c0.6-1.1,1.2-2.2,1.7-3.3
			c1,2.2,3.2,3.7,5.7,3.9c-0.1,0.2-0.2,0.3-0.2,0.5c-1.1,2.2-2.1,4.5-2.7,6.9c0,0,0,0,0,0c-2.7,0.2-5.4-0.7-7-2.8
			C179.3,234.7,180.1,233,181,231.3z M178,237.6c1.6,2.3,4.2,3.7,7,3.5c-0.4,2-0.6,4.1-0.5,6.2c-1.5,1-2.8,1.8-4.7,2.2
			c-1.5,0.3-2.8,0-4.1-0.2C175.6,245.3,176.5,241.4,178,237.6z M176.4,252.9c-0.1-0.6-0.3-1.1-0.3-1.7c2.7,0.9,6.4,0,8.8-1.7
			c0.1,0.7,0.2,1.4,0.4,2c0.5,2.2,1.5,4.2,2.8,6c-2,2.5-4.6,3.7-7.6,4C178.6,259,177.2,256.2,176.4,252.9z M181.9,263.4
			c2.9-0.2,5.8-1.9,7.4-4.3c1.3,1.4,2.9,2.5,4.7,3.3c-2.2,1.9-4.3,3.9-6.4,6C185.4,266.9,183.5,265.3,181.9,263.4z M186.8,283.1
			c2.2,9.2,3.1,18.5,1.7,27.5c-1,5.2-2.8,10.1-5.1,14.9c-1.8,0.1-3.7,0.1-5.5,0.2c7.6-12.2,10.4-29.9,3.5-42.9
			C183.2,282.9,185,283,186.8,283.1z M195.9,330.9c-9.9,5.9-20.2,11-30.7,15.3c-3.7-4.2-6.8-9.4-7.6-14.8c4.5,0.3,8.9,0.5,13.4,0.6
			C179.3,332.2,187.6,331.8,195.9,330.9z M179.9,282.6c2,6.9,3.4,13.6,2.9,21c-0.5,7.9-3.4,15.5-7.8,22.1c-0.5,0-1,0-1.4,0
			c-1.4,0-2.8,0-4.2-0.1c8.8-12.1,10.6-30.4,3.7-43.6C175.4,282.2,177.7,282.4,179.9,282.6z M140,322.8c-9.6-1.6-19.8-4.1-27.2-10.8
			c-6.6-5.9-10.3-15.7-6-24c4.3-8.2,14.4-11.2,22.9-11.5c5.7-0.2,11.4,0.5,17.1,1.5c1.8,1.5,3.3,3.2,4.4,5.3
			c2.4,4.8,1.9,11.4,1.1,16.5c-1.4,8.9-5.7,16.5-11.7,23C140.4,322.8,140.2,322.8,140,322.8z M147.7,323.9c6.1-7.5,9.7-17,10.8-26.6
			c0.7-6-0.1-12.5-3.1-17.8c2.7,0.5,5.5,1,8.2,1.3c0.1,0.3,0.1,0.5,0.2,0.9c0.6,2.4,0.8,4.8,1.1,7.2c0.4,4.2,0.2,8.5-0.5,12.6
			c-1.3,8.3-4.8,16.5-9.9,23.2C152.2,324.5,149.9,324.2,147.7,323.9z M156.6,324.9c5.4-6.6,8.9-14.1,10.4-22.7
			c0.8-4.4,0.8-8.9,0.4-13.3c-0.2-2-0.4-5.2-1.3-7.7c1.9,0.2,3.7,0.5,5.6,0.7c2.6,7.2,3.7,14.5,3,22.3c-0.7,8-3.8,14.9-8.2,21.3
			C163.1,325.4,159.8,325.2,156.6,324.9z M162.6,353.6c3.1,8.8,7.3,17.3,11.8,25.4c2.5,4.5,5.1,8.9,7.9,13.3c1.9,3.1,4,7,6.8,9.5
			c-4.4,1.9-8.9,3.6-13.4,5.1c-4.4-8.3-8.8-16.5-12.3-25.3c-3.3-8.3-5.9-16.7-8.3-25.3C157.7,355.4,160.2,354.5,162.6,353.6z
			 M148.8,358.3c1.8-0.6,3.6-1.1,5.4-1.8c1.6,9.1,4.2,18.1,7.6,26.7c3.2,8.3,7,16.7,11.7,24.3c-5.2,1.7-10.4,3.1-15.7,4.3
			c-0.2-3.8-0.9-7.7-1.5-11.5c-0.8-5-1.6-9.9-2.6-14.8c-1.8-8.8-3.5-18.2-6.6-26.7C147.6,358.6,148.2,358.5,148.8,358.3z
			 M145.5,359.3c1.5,8.6,3.9,17,5.5,25.6c0.9,4.9,1.8,9.9,2.6,14.8c0.7,4.2,1,8.5,1.9,12.6c-2.4,0.5-4.9,1-7.4,1.4
			c0.1-9-0.9-18.2-2-27.1c-1.1-8.7-2.4-17.7-4.8-26.2C142.7,360.1,144.1,359.7,145.5,359.3z M118.9,421.2c-7,4.3-13.7,14.7-22,6.6
			c-3.1-3-4.8-7.4-6.2-11.4c-1.9-5.3-3.1-10.8-3.9-16.4c-0.8-5.3-0.9-10.7-0.7-16.1c0.2-4.8,1.1-9.8,4.7-13.2
			c3.3-3.1,9.2-3.1,13.4-3.5c5.1-0.5,10.1-1.2,15.2-2c6.8-1.1,13.5-2.6,20.1-4.3c1.2,8.6,2.8,17.1,3.7,25.7c1,9.2,1.3,18.4,1.9,27.5
			C136,415.5,126.9,416.4,118.9,421.2z M180,453.6c-4.1,1.2-8.1,2.7-11.6,5.1c-3.7,2.5-6,6.1-8.7,9.5c-9.7,12.3-20.1-3.4-23.5-12.7
			c-4-10.9-3.6-23,0.1-33.9c0.1-0.2,0.1-0.5,0.1-0.7c7.1-1.4,14.4-1.9,21.5-3.4c5.6-1.2,11.2-2.6,16.6-4.4
			c4.5,12.7,8.4,25.5,11.2,38.7C183.8,452.5,181.9,453.1,180,453.6z M188.4,451.3c-2.4-13.1-6.7-26.4-12.9-38.2
			c2.1-0.7,4.2-1.4,6.3-2.2c5.8,12.4,11.1,24.9,16,37.7C194.7,449.5,191.6,450.4,188.4,451.3z M205.6,445.8c-1.9,0.7-3.8,1.4-5.7,2
			c-4.7-12.9-10.5-25.3-17.1-37.3c2.9-1.1,5.7-2.2,8.5-3.5c1.7,7.2,5.8,14.1,9.4,20.3c3.2,5.5,6.8,11.1,11,16
			C209.7,444.2,207.6,445.1,205.6,445.8z M214.2,442.3c-4-5.3-7.9-10.5-11.5-16.1c-3.9-6.3-6.8-13.2-10.8-19.4
			c2.4-1,4.7-2.1,7.1-3.3c7,12.2,15.2,24,24.4,34.6C220.4,439.6,217.3,441,214.2,442.3z M373.6,327.6c-0.1,3.8-0.6,7.6-1.4,11.3
			c-0.7,3.3-1.9,6.5-2.7,9.8c-6,0.5-12,0.9-18.1,1.2c-11.7,0.7-23.4,1.5-35,2.4c1.7-4,3.1-8,4.3-12.2c0.1-0.3-0.3-0.5-0.5-0.2
			c-9.1,15.3-18.1,30.5-29.4,44.3c-11.2,13.7-24.3,26-38.6,36.4c-8.2,6-17,11.4-26,16c-8.6-11.3-17.4-22.4-25.9-33.8
			c2.3-1.1,4.5-2.3,6.8-3.6c3.5,4.8,9.6,7.5,15.5,5.7c0.8-0.2,0.8-1.4,0-1.6c-5.3-1.3-9.7-4.5-12.1-9.4c-0.7-1.4-2.6-1.7-3.9-1
			c-5.1,2.9-10.4,5.6-15.8,8c-1.3-3.6-4.1-7-6.1-10.1c-2.8-4.3-5.4-8.8-7.9-13.3c-4.5-8.1-8.6-16.3-13-24.5
			c16.1-6.2,31.6-14.2,45.7-24c4.6-0.8,9.1-1.9,13.6-3.1c3-0.8,6-1.8,8.9-2.8c3-1,5.7-2.6,8.7-3.6c0.3-0.1,0.2-0.5-0.1-0.4
			c-2.7,0.7-5.3,0.5-8,0.9c-2.9,0.5-5.8,0.9-8.7,1.3c-5.7,0.8-11.4,1.4-17.1,2.1c-5.6,0.7-11.2,1.3-16.8,1.6
			c3.9-8.4,5.8-18.1,5-27.4c0-4.9-0.6-9.8-1.8-14.3c1.5,0.1,3,0.1,4.5,0.2c16.1,0.5,31.9-1,47.9-2.1c14,13.7,31.2,23.9,50.1,29.5
			c13.3,4,27.5,5.3,41.3,4.4c6.9-0.5,13.8-1.6,20.5-3.3c4.2-1.1,9.5-2.2,13.8-4.4C373,314.2,373.8,320.8,373.6,327.6z M371.9,291.2
			c-2.9,1.4-5.6,3-8.5,4.4c-0.1,0-0.1,0.1-0.2,0.1c-2.1,0.6-4.1,1.2-6.2,1.8c6.7-3.7,12.9-8.1,18.4-13.3
			C374.4,286.5,373.2,288.9,371.9,291.2z M381.2,347.7c-1.8,0.2-3.7,0.3-5.5,0.5c2.6-6,3.4-13.2,3.8-19.4c0.6-8.4-0.7-16.9-3.2-24.9
			c0,0,0-0.1,0-0.1c0.1-0.1,0.2-0.2,0.3-0.3c2-0.2,3.9-0.3,5.9-0.4c0.2,2.2,1.2,4.5,1.6,6.6c0.9,4.5,1.3,8.9,1.4,13.5
			C385.4,331.7,383.4,339.5,381.2,347.7z M392.1,346.7c-2.7,0.3-5.3,0.5-8,0.8c2.9-7.2,3.8-15.5,3.8-23.1c0-4.3-0.5-8.7-1.2-12.9
			c-0.4-2.5-0.9-6-2.1-8.6c2.5-0.2,5-0.4,7.5-0.6c0.3,0,0.5,0,0.8-0.1c1.6,7.6,2.4,15.5,2.3,23.3c-0.1,4.2-0.5,8.3-1.1,12.4
			C393.6,340.8,392.6,343.7,392.1,346.7z M395.1,346.4c0.9-2.5,1.3-5.2,1.7-7.8c0.8-4.3,1.1-8.8,1.2-13.2c0.1-8-1.2-15.8-3.8-23.4
			c2.5-0.2,5-0.4,7.6-0.6c0.2,3.3,1,6.6,1.4,9.9c0.5,3.8,0.7,7.6,0.6,11.5c0,7.8-1.6,15.4-3.6,22.9
			C398.6,346,396.9,346.2,395.1,346.4z M411.9,333.4c-0.2,3.7-1.6,7.6-1.6,11.2c-2.3,0.3-4.6,0.6-6.9,0.9c2-6.9,2.8-14.1,2.9-21.3
			c0.1-7.1-0.3-16.1-3.5-22.7c1.9-0.1,3.8-0.3,5.7-0.4c1.7,6.6,3,13,3.5,19.9C412.2,325.1,412.2,329.2,411.9,333.4z M447.8,331.8
			c-6.6,7.8-17.5,10-27.1,11.4c-1.3,0.2-2.7,0.4-4,0.6c0.8-3,0.9-6.3,1.2-9.2c0.4-4.6,0.4-9.1-0.1-13.7c-0.6-6.7-2.4-13.9-5.1-20.2
			c4.5-0.3,9-0.6,13.5-0.8c9.4-0.5,18.4,1.2,23.4,9.8C453.8,316.7,453,325.6,447.8,331.8z"/>
		<path fill="#3A154F" d="M419.7,305.3c-1.2,0.8-0.1,2.6,1.1,1.9c3.9-2.5,9.6-5.5,13.2-0.8c3.8,5-6.4,6.7-9.1,7.5
			c-0.6,0.2-0.7,0.9-0.2,1.2c3.7,2.2,7.8,2.5,11.6,0.4c3.3-1.8,4.3-6.1,3-9.4C435.8,297.4,425.1,301.7,419.7,305.3z"/>
		<path fill="#3A154F" d="M286.1,351.7c-0.1,0-0.1-0.1-0.2-0.1c-5.7-2.7-11.2-5.7-16.5-8.9c-5.3-3.2-10.2-7.4-15.8-10.1
			c-0.3-0.2-0.6-0.2-0.9-0.1c-0.7-0.1-1.4,0.1-1.9,0.8c-2.3,3.1-4.5,6.2-7.1,9.1c-1.7,1.9-4,3.7-5.7,5.8c-0.5,0.3-1,0.6-1.5,0.9
			c-0.9,0.6-0.9,1.6-0.3,2.4c8.3,10.6,21.7,16.4,33.7,21.6c0.3,0.1,0.5,0.2,0.8,0.2c0,0,0,0,0.1,0c0.1,0,0.1,0,0.2,0
			c0.6-0.1,1.1-0.4,1.4-0.8c6.5-4.7,12.1-11.6,14.9-19.1C287.5,352.6,286.8,351.9,286.1,351.7z M270,369.1
			c-11.2-4.9-21.8-10.2-30.7-18.7c0,0,0.1-0.1,0.1-0.1c2.5-1.4,4.8-3.6,6.6-5.4c2.8-2.7,5.3-5.7,7.4-9c3.7,3.8,8.5,6.6,12.9,9.4
			c5.4,3.4,11,6.5,16.8,9.3C279,359.7,274.7,364.4,270,369.1z"/>
		<path fill="#3A154F" d="M232.2,357.4c-2.2-1.2-4.8-0.6-6.3,1c-0.8,0.6-1.5,1.4-1.8,2.3c-0.6,1.9,0.5,4,2,5.2
			c1.6,1.3,3.5,1.4,5.4,0.6c1.7-0.7,2.8-2.7,3.1-4.4C235,360,234,358.4,232.2,357.4z M230.6,364.1c-1.9,1.3-4.4-0.8-4.1-2.9
			c0.8-1.3,2.3-2.2,3.9-1.8C232.9,360.1,232.3,363,230.6,364.1z"/>
		<path fill="#3A154F" d="M244.1,367c-2.2-1.2-4.8-0.6-6.3,1c-0.8,0.6-1.5,1.4-1.8,2.3c-0.6,1.9,0.5,4,2,5.2
			c1.6,1.3,3.5,1.4,5.4,0.6c1.7-0.7,2.8-2.7,3.1-4.4C246.9,369.6,246,368,244.1,367z M242.5,373.7c-1.9,1.3-4.4-0.8-4.1-2.9
			c0.8-1.3,2.3-2.2,3.9-1.8C244.8,369.6,244.2,372.5,242.5,373.7z"/>
		<path fill="#3A154F" d="M259.2,374.7c-2.2-1.2-4.8-0.6-6.3,1c-0.8,0.6-1.5,1.4-1.8,2.3c-0.6,1.9,0.5,4,2,5.2
			c1.6,1.3,3.5,1.4,5.4,0.6c1.7-0.7,2.8-2.7,3.1-4.4C262,377.4,261.1,375.7,259.2,374.7z M257.6,381.5c-1.9,1.3-4.4-0.8-4.1-2.9
			c0.8-1.3,2.3-2.2,3.9-1.8C259.9,377.4,259.3,380.3,257.6,381.5z"/>
		<path fill="#3A154F" d="M335.8,273.8c2.4-1.1,4.7-2.4,7.1-3.6c0.7-0.4,0.9-1.5,0.3-2.1c-2.6-2.3-3.8-5.6-3.3-9
			c0.1-1-1.6-1.3-1.8-0.2c-0.8,3.6,0,7,2.1,9.7c-1.9,0.9-3.8,1.7-5.7,2.6C332.7,272.1,334.1,274.6,335.8,273.8z"/>
		<path fill="#3A154F" d="M344.9,282.2c-4.2-0.4-8.4-1-12.5-2c-2.5-0.6-5.9-2.3-8.5-1.7c-1.2-0.3-2.7,1.1-1.9,2.6
			c3,5.4,5.6,11,7.7,16.8c0.4,1.1,1.8,1.6,2.7,0.7c4.5-4.5,9.1-9.1,13.6-13.6C347,283.9,346.2,282.3,344.9,282.2z M331.8,294.5
			c-1.5-3.9-3.2-7.7-5-11.5c4.1,1.3,7.5,3,9.1,7.4C334.6,291.8,333.2,293.1,331.8,294.5z"/>
	</g>
	<g>
		<path fill="#FFFFFF" d="M451.9,389.3c-1.5-0.9-3.2-1.3-4.9-1.3c-0.7-0.1-1.3-0.1-2-0.2c-0.9,0.1-1.8,0.2-2.7,0.4
			c-1.7,0.5-3.2,1.3-4.4,2.6c-1.9,1.9-2.9,4.4-2.9,7s1.1,5.2,2.9,7c0.7,0.5,1.3,1,2,1.6c1.6,0.9,3.2,1.4,5,1.4
			c0.7-0.1,1.3-0.1,2-0.2c0.9-0.1,1.7-0.2,2.6-0.3c1.7-0.5,3.1-1.3,4.3-2.5c1.8-1.8,2.9-4.3,2.9-6.9s-1-5.1-2.9-6.9
			C453.3,390.3,452.6,389.8,451.9,389.3z"/>
		<path fill="#FFFFFF" d="M471,404.7c-0.7,0-1.3,0.1-2,0.1c-1.3,0.1-2.5,0.5-3.4,1.4c-0.9,0.9-1.4,2.2-1.4,3.4
			c0,1.3,0.5,2.5,1.4,3.4c1,1,2.1,1.3,3.4,1.4c0.7,0,1.3,0.1,2,0.1c2.7,0.2,5-2.4,5-5S473.7,404.6,471,404.7z"/>
		<path fill="#FFFFFF" d="M479,384.3c-4.4,0-4.4,6.8,0,6.8S483.4,384.3,479,384.3z"/>
		<path fill="#FFFFFF" d="M527,353.7c-5.2,0-5.2,8,0,8S532.2,353.7,527,353.7z"/>
		<path fill="#FFFFFF" d="M491,339.6c-5.3,0-5.3,8.2,0,8.2S496.3,339.6,491,339.6z"/>
		<path fill="#FFFFFF" d="M513,340.1c-4.7,0-4.7,7.3,0,7.3S517.7,340.1,513,340.1z"/>
		<path fill="#FFFFFF" d="M331.3,464.8c-1.7-2.9-4.9-4.8-8.3-4.8s-6.6,1.8-8.3,4.8c-1.4,2.4-1.7,5.3-0.8,7.9
			c0.1,0.5,0.2,0.9,0.3,1.4c0.4,1.6,1.2,2.9,2.4,4.1c1.7,1.7,4.1,2.7,6.5,2.7c1.7,0,3.2-0.4,4.6-1.3c2-1.1,3.8-3.2,4.2-5.5
			c0.1-0.5,0.2-0.9,0.3-1.4C333,470.2,332.7,467.2,331.3,464.8z"/>
		<path fill="#FFFFFF" d="M333,447.9c-4.9,0-4.9,7.6,0,7.6S337.9,447.9,333,447.9z"/>
		<path fill="#FFFFFF" d="M321,451c4.3,0,4.3-6.6,0-6.6S316.7,451,321,451z"/>
		<path fill="#FFFFFF" d="M335,432.5c-4.2,0-4.2,6.4,0,6.4S339.2,432.5,335,432.5z"/>
		<path fill="#FFFFFF" d="M189,509.2c-2.8,0-5.4,1.1-7.4,3.1c-0.7,0.6-1.4,1.3-2.1,1.9c-4.2,3.9-4,11,0,14.9c4,4,11,4.2,14.9,0
			c0.6-0.7,1.3-1.4,1.9-2.1c1.9-2,3.1-4.6,3.1-7.4c0-2.8-1.1-5.5-3.1-7.4C194.5,510.3,191.8,509.2,189,509.2z"/>
		<path fill="#FFFFFF" d="M211,512.6c-4,0-4,6.3,0,6.3S215,512.6,211,512.6z"/>
		<path fill="#FFFFFF" d="M203,496.3c-4.4,0-4.4,6.8,0,6.8S207.4,496.3,203,496.3z"/>
		<path fill="#FFFFFF" d="M225,476.3c-4.2,0-7.8,3.5-7.8,7.8c0,4.2,3.5,7.8,7.8,7.8s7.8-3.5,7.8-7.8
			C232.8,479.9,229.2,476.3,225,476.3z"/>
		<path fill="#FFFFFF" d="M223,499.6c-5.3,0-5.3,8.2,0,8.2S228.3,499.6,223,499.6z"/>
		<path fill="#FFFFFF" d="M149,180.5c-2.4,0-4.8,1-6.5,2.7c-1.6,1.6-2.9,4.2-2.7,6.5c0,0.7,0.1,1.3,0.1,2c0.1,0.8,0.2,1.6,0.3,2.4
			c0.4,1.5,1.2,2.9,2.3,4c1.7,1.7,4,2.7,6.4,2.7s4.7-1,6.4-2.7c0.5-0.6,0.9-1.2,1.4-1.8c0.8-1.4,1.2-3,1.2-4.6c0-0.7,0.1-1.3,0.1-2
			c0.2-2.4-1.1-4.9-2.7-6.5C153.8,181.5,151.4,180.5,149,180.5z"/>
		<path fill="#FFFFFF" d="M159,171c-3.5,0-3.5,5.5,0,5.5S162.5,171,159,171z"/>
		<path fill="#FFFFFF" d="M147,167.7c2.5,0,2.5-3.9,0-3.9S144.5,167.7,147,167.7z"/>
		<path fill="#FFFFFF" d="M161,154.3c-4.4,0-4.4,6.8,0,6.8S165.4,154.3,161,154.3z"/>
		<path fill="#FFFFFF" d="M357.3,47c-0.6-0.7-1.3-1.1-2.1-1.6c-1.7-1.1-3.1-1.1-5.1-1.4c-0.9-0.1-1.9,0-2.8,0.4
			c-2,0.8-3,1.1-4.5,2.6c-1.9,1.9-2.9,4.5-2.9,7.2c0,1,0.2,1.9,0.4,2.9c0.2,1,0.7,2,1.2,2.9c0.9,1.5,2,2.6,3.5,3.5
			c1.5,0.9,3.2,1.3,4.9,1.3c1.8,0,3.4-0.4,4.9-1.3c0.7-0.5,1.3-1,2-1.5c0.9-0.9,1.6-2,2.1-3.2c0.2-0.3,0.3-0.6,0.4-0.9
			c0.2-0.4,0.4-0.9,0.5-1.3c0.5-1.7,0.5-3.4,0-5.2C359.3,49.6,358.5,48.2,357.3,47z"/>
		<path fill="#FFFFFF" d="M365,36.9c-3.7,0-3.7,5.7,0,5.7S368.7,36.9,365,36.9z"/>
		<path fill="#FFFFFF" d="M351,37.8c5.3,0,5.3-8.2,0-8.2S345.7,37.8,351,37.8z"/>
		<path fill="#FFFFFF" d="M373,16.5c-4.1,0-4.1,6.4,0,6.4S377.1,16.5,373,16.5z"/>
	</g>
</g>
<g id="Layer_2">
</g>
</svg>
