<?xml version="1.0" standalone="no"?>
<!DOCTYPE svg PUBLIC "-//W3C//DTD SVG 20010904//EN"
 "http://www.w3.org/TR/2001/REC-SVG-20010904/DTD/svg10.dtd">
<svg version="1.0" xmlns="http://www.w3.org/2000/svg"
 width="650.000000pt" height="400.000000pt" viewBox="0 0 650.000000 400.000000"
 preserveAspectRatio="xMidYMid meet">
<metadata>
Created by potrace 1.16, written by Peter Selinger 2001-2019
</metadata>
<g transform="translate(0.000000,400.000000) scale(0.100000,-0.100000)"
fill="#000000" stroke="none">
<path d="M0 2000 l0 -2000 3250 0 3250 0 0 2000 0 2000 -3250 0 -3250 0 0
-2000z m1111 -15 c-1 -222 -5 -383 -11 -406 -13 -48 -64 -107 -107 -125 -71
-30 -164 -11 -214 43 -41 43 -53 71 -38 89 19 23 34 17 60 -23 32 -50 63 -65
126 -60 57 4 84 21 112 72 14 26 16 80 19 405 4 381 7 419 39 387 12 -12 14
-78 14 -382z m924 377 c81 -30 127 -59 183 -114 99 -98 142 -197 143 -330 0
-106 -19 -177 -70 -255 -190 -292 -609 -298 -800 -12 -57 86 -76 154 -75 274
1 93 3 105 37 178 58 124 168 221 302 266 54 17 225 13 280 -7z m971 4 c16 -8
46 -31 68 -50 32 -30 36 -38 26 -51 -19 -22 -41 -18 -75 14 -85 80 -229 63
-297 -35 -72 -103 -4 -211 182 -289 75 -31 180 -105 207 -146 17 -25 27 -57
30 -98 5 -54 2 -68 -26 -125 -46 -95 -135 -146 -251 -146 -68 0 -110 13 -166
51 -54 37 -108 117 -93 136 18 21 35 15 65 -24 51 -68 78 -87 143 -102 138
-31 271 65 271 195 0 86 -36 123 -202 206 -139 68 -183 100 -214 154 -35 59
-37 155 -6 206 25 41 67 81 107 101 40 21 190 23 231 3z m924 -6 c6 -11 8 -25
5 -30 -4 -6 -79 -10 -184 -10 -124 0 -181 -4 -189 -12 -8 -8 -12 -58 -12 -158
0 -100 4 -150 12 -158 8 -8 64 -12 184 -12 149 0 173 -2 178 -16 14 -38 -9
-43 -193 -46 l-176 -3 0 -200 0 -200 185 -3 c101 -1 188 -6 193 -11 5 -5 6
-19 2 -30 -6 -21 -10 -21 -218 -19 l-212 3 -3 454 c-2 357 0 456 10 463 7 4
102 8 210 8 188 0 198 -1 208 -20z m692 3 c72 -11 134 -53 167 -113 32 -58 33
-166 2 -228 -44 -86 -125 -122 -281 -125 l-105 -2 -5 -220 c-4 -121 -7 -221
-8 -222 -7 -9 -41 -1 -44 10 -8 23 -2 892 6 905 9 15 162 12 268 -5z m1156
-452 c-3 -448 -3 -456 -23 -456 -19 0 -20 8 -23 233 l-2 232 -280 0 -280 0 0
-219 c0 -121 -3 -226 -6 -235 -7 -19 -38 -21 -51 -3 -7 9 -11 854 -4 900 1 6
48 11 53 5 1 -2 4 -88 7 -193 l6 -190 275 0 275 0 3 190 c2 190 7 210 39 198
11 -4 13 -86 11 -462z"/>
<path d="M1765 2312 c-140 -48 -239 -150 -284 -291 -16 -48 -13 -167 4 -225
44 -144 158 -252 310 -292 132 -36 278 9 385 116 166 166 171 402 12 573 -58
61 -102 90 -181 117 -75 25 -177 26 -246 2z"/>
<path d="M4407 2314 c-4 -4 -7 -88 -7 -187 l0 -179 108 3 c92 4 115 8 157 30
126 64 129 244 5 305 -34 16 -72 23 -151 28 -58 3 -108 3 -112 0z"/>
</g>
</svg>
